<svg id="Capa_1" data-name="Capa 1" xmlns="http://www.w3.org/2000/svg" viewBox="0 0 1772.13 713.44"><path d="M964.94,357.4c1.42-1.22,2.53-1.82,3.11-2.74,10.38-16.55,25.53-20.64,44.11-18.57,12.05,1.34,24.35.33,36.54.42a10.3,10.3,0,0,1,2.44,1c-4,18.95-8,38.07-12.06,57.17Q996.14,594.2,953.26,793.73a197,197,0,0,0-3.88,29.13c-.64,10.37,3.08,14.53,13.37,16.55,4.65.91,9.56.62,14.12,1.77,2.66.67,4.88,3.12,7.3,4.77-2.16,2.57-4,5.55-6.59,7.56-1.35,1-4,.48-6.09.48q-73.17,0-146.32,0c-4.21,0-10.09,1.39-10.13-5.36,0-6,4.78-7.58,10.05-7.64,1.19,0,2.38-.07,3.56-.18,23.46-2.13,30-6.58,36-29.88,8.46-33.11,15.56-66.58,23-99.93,6.12-27.27,12.27-54.55,17.72-82,1.59-8,2.31-16.66.81-24.53-2.16-11.29-11-15.44-22-12.46-71,19.23-133.7-25.73-138.5-99.33-5.07-77.72,49.47-148.09,126-160.53C905.57,326.65,938.37,330,964.94,357.4ZM883.61,506.14c27.19,0,48.09-20.9,48-47.9-.1-24.08-14.31-38.42-38.14-38.48-27.51-.07-50,21.85-49.91,48.58C843.65,491.7,859,506.18,883.61,506.14Z" transform="translate(-111.84 -233.52)"/><path d="M234.46,569.15c-1.25,1.11-2.18,1.58-2.52,2.31-7.67,16.88-21.22,20.36-38.43,18.72-14.44-1.37-29.11-.35-43.68-.43a9.19,9.19,0,0,1-2.34-.85q37.75-177.42,75.62-355.38h95.82c-7.4,35.22-14.73,70.15-22.16,105.49,11.47-2.76,22.07-6.64,32.94-7.71,75.13-7.37,126,40.44,124.4,116.25-1.46,67.89-51.72,129.83-117.75,144.84a140,140,0,0,1-58.43.86C261.18,590,246.59,582.35,234.46,569.15ZM316.18,420c-22.67-.05-44,14.94-51.26,36-7.58,22.05,2.21,41.54,24.38,48.54,28.11,8.87,55.29-6.37,63.55-35.64C360.78,440.81,345.22,420.06,316.18,420Z" transform="translate(-111.84 -233.52)"/><path d="M281,650.06c6.22-4.76,11-8.62,16-12.18,20.83-14.87,43.54-24,69.67-23.26,30.72.83,48.1,13,58.65,42.55,3.52-3.14,6.71-6.11,10-8.94,24.42-20.91,51.54-34.78,84.83-33.55,39.68,1.47,64,30.4,56.52,69.51-7.4,38.82-16.36,77.35-24.45,116a153,153,0,0,0-2.86,21.2c-.74,11.23,2.91,15.77,14,17.95,4.65.92,9.57.61,14.12,1.79,2.63.67,4.78,3.2,7.15,4.89-2.14,2.55-4,5.5-6.53,7.47-1.36,1-4,.45-6.1.45-43.13,0-86.25.12-129.38-.18-3.44,0-9.38-2.37-9.82-4.51-1.17-5.7,3.54-7.87,8.89-8.5,11-1.3,16.74-8.89,19.52-18.44q7.37-25.22,13.23-50.87c6.59-29,13-58,18.71-87.2,3.71-18.85-4.39-33.23-20.24-35.93a33.77,33.77,0,0,0-19.7,2.71c-14.66,7.41-26.09,16.67-29.08,35.8-5.51,35.19-14.76,69.77-21.78,104.74-2.27,11.28-2.91,23-3.38,34.5-.33,7.88,3.39,13.47,12.14,15,2.4.43,4.29,3.68,6.42,5.63-2.35,2.35-4.48,5-7.14,6.9-1.21.86-3.47.31-5.25.31-38.07,0-76.14.12-114.21-.2-3.46,0-9.4-2.33-9.85-4.48-1.17-5.68,3.51-7.89,8.87-8.52,11-1.29,16.75-8.89,19.55-18.42q7.38-25.21,13.25-50.87c6.52-28.7,12.75-57.47,18.39-86.35a46.45,46.45,0,0,0-1-20.16c-3.34-12.51-17-20.67-29.36-17-18.24,5.37-33.22,14.26-37.4,35.7-7.46,38.18-16.54,76-24.24,114.18-1.92,9.47-1.78,19.5-1.49,29.24.22,7.3,3.65,12.92,12.19,14.12,2.47.35,4.55,3.43,6.81,5.27-2.29,2.44-4.29,5.29-7,7.16-1.43,1-4,.36-6.12.36q-65.58,0-131.16,0c-4.16,0-10.16,1.63-10.49-5s5-7.84,10.51-8.08c3.85-.16,7.69-.72,11.53-1.17,12-1.41,21.11-7.11,24-19.25,8.39-34.62,16.32-69.35,24.23-104.09.7-3.08.26-6.55-.23-9.75-2.12-13.8-12.24-20.14-25.74-16.86-2.55.62-5.61-.89-8.43-1.41,1.18-3,2-6.28,3.68-9.06.77-1.3,3-1.77,4.59-2.56,39.58-19.75,79.13-39.55,118.82-59.09,3.09-1.52,7.09-1.19,10.67-1.72.2,3.34,1,6.78.47,10C284.8,633.5,283,641,281,650.06Z" transform="translate(-111.84 -233.52)"/><path d="M561.4,492.61c11.33,25.11,41,29.51,77.48,12.24l34.3,62.72c-.65,1.19-.9,2.14-1.51,2.65-55.24,46.35-151.37,31.37-189.44-29.64C464.43,512,461,481.16,468.75,448.84c20.51-85.65,112.13-138.66,196.4-113.76,48.3,14.27,75.73,57,68.76,108.6-1.86,13.71-6.43,27-9.62,40.58-1.55,6.56-5.3,8.56-12.1,8.51-46.38-.31-92.77-.16-139.15-.16Zm87.29-58.42c-3.58-18-13.82-26.86-31.41-28-21.63-1.44-44.09,11.06-49.95,28Z" transform="translate(-111.84 -233.52)"/><path d="M1482.29,613.28c.72-17.89-8.71-25.68-26.46-22.06-2.41.49-5.26-1.17-7.9-1.84,1.07-2.81,1.58-6.06,3.37-8.29,1.54-1.91,4.5-2.72,6.88-3.92,38.42-19.36,76.8-38.79,115.34-57.91,3.61-1.79,8.21-1.58,12.35-2.3.23,3.93,1.36,8,.56,11.76Q1556.81,666.39,1526.87,804a106,106,0,0,0-1.95,16.78c-.66,12.77,2.92,17,15.75,19,4.1.63,8.39.39,12.35,1.47,2.38.65,5.88,3,6,4.7.12,2.32-2.08,5.5-4.21,7-1.94,1.32-5.12,1.09-7.75,1.09-53.2,0-106.41.26-159.61-.3a160.18,160.18,0,0,1-37-5c-35.39-8.88-55.61-33.29-56.73-69.56-1.23-39.93,8.68-77.4,31.45-110.45,26.22-38.06,64.55-54.82,109.54-57.19C1450.32,610.69,1466,612.6,1482.29,613.28Zm-14.66,54.83c-.55-6.26-.55-14.66-2.13-22.74-4.24-21.69-24.13-28.82-40.37-13.71-8,7.46-14.55,17.3-19.51,27.18-14.24,28.35-22,59-26.65,90.15-3.34,22.14-4.27,44.73-4.8,67.16-.24,9.87,4,19.58,14.77,23.37,11,3.89,21.33.29,28.29-7.95,8.11-9.61,15.79-20.27,20.73-31.74C1455.73,758.54,1463.58,714.79,1467.63,668.11Z" transform="translate(-111.84 -233.52)"/><path d="M1215.42,254.09l-17.15,82.14h44.39c-4.24,20.41-8.24,39.8-12.3,59.18-1.4,6.68-3.63,13.27-4.22,20-.66,7.62-4.39,8.91-11.09,8.62-11.56-.51-23.16-.14-35.83-.14C1167.37,479,1155.56,534,1143.66,589.41h-96.15c11.8-55.16,23.51-109.93,35.39-165.53H1054c6.31-29.48,12.45-58.13,18.75-87.55,7.44,0,14.54-.31,21.59.1,5.25.31,7.22-1.68,8.17-6.75,2.8-14.88,6.22-29.63,9.2-44.48,1-4.8,2.9-7.43,8.23-8.63C1151.2,269.49,1182.35,261.93,1215.42,254.09Z" transform="translate(-111.84 -233.52)"/><path d="M1163.25,609.87c12.34,1.63,24.86,2.43,37,5,37.08,7.94,58.57,32.13,61.23,70,3,43-7.73,83-33.27,117.64-32.82,44.52-80.23,56.35-132.66,54.16a127.61,127.61,0,0,1-24.65-3.6c-38.55-9.35-59.58-34.74-60.78-75.37-1.15-39,8.81-75.54,30.56-108.11C1066.59,630.82,1109.39,610.82,1163.25,609.87Zm20.61,59c-.5-6.49-.55-14.55-1.86-22.41-1.55-9.26-4.55-17.87-15.09-21.22-10.7-3.41-19.93-.16-26.77,7.36a118.9,118.9,0,0,0-18.24,26.07c-13.88,27.57-20.77,57.49-26.5,87.58-4.61,24.2-9.13,48.56-5.56,73.41,1.44,10,4.16,19.6,15.29,23.08s21-.3,28.14-8.66c6.85-8.06,13.37-16.92,17.71-26.48C1170.72,764.09,1179.47,717.8,1183.86,668.89Z" transform="translate(-111.84 -233.52)"/><path d="M1538.08,868.05c14.36.23,21.9,8.05,26.76,19,3.86,8.67,6.59,17.86,10.52,26.5,8.76,19.28,22.67,24.28,42.2,15.68,29.21-12.86,44-37.74,38.39-68.9-11.19-62.59-23.42-125-35.33-187.46-1.61-8.44-3.52-16.86-5.92-25.1-3.74-12.86-12.36-19.91-26.07-20.15-4.25-.08-9.82-.25-8.47-5.92.69-2.94,6.2-6.72,9.56-6.75,47.57-.44,95.14-.36,142.72-.11,2.52,0,5,2.69,7.53,4.13-2.16,2.77-3.91,6.11-6.65,8.11-1.89,1.38-5.16.81-7.78,1.28-8.61,1.57-14.4,6.72-15,15.34-.65,9.68-.85,19.68.79,29.19,6,34.84,12.82,69.54,19.37,104.28a22.4,22.4,0,0,0,1.7,3.49c20.55-32.55,45.26-61.4,56.71-98.06,3.73-12,3.35-23.73-.17-35.93-2.88-9.95-3.57-20.54-5.27-31.13,4.11-.52,5.56-.86,7-.86,28.25,0,56.5-.15,84.74.16,2.86,0,5.69,2.7,8.53,4.14-2.24,2.76-4.37,7.81-6.74,7.93-17.71.88-29.41,12-38.84,24.37q-35.58,46.75-68.78,95.3c-34.06,49.77-67.12,100.22-100.71,150.31-11.38,17-24.49,32.54-43.43,41.23-9.25,4.24-19.63,7.64-29.68,8.21-21.64,1.24-43.4.3-65.1.5-6.19.05-9.14-2.22-7.81-8.48C1527.84,915.12,1532.91,891.94,1538.08,868.05Z" transform="translate(-111.84 -233.52)"/><path d="M690,741.4c1.64,11.72,2.23,22.14,4.64,32.11,11.7,48.4,70.44,50.11,97.24,26.51,3.53-3.1,7.35-10.73,12.94-4.94s-1.65,10.18-5.1,13.88c-29.56,31.72-64.8,51-109.53,47.2C633.42,851.39,598.65,811,605,754.58c6.61-58.52,35.76-103.46,89.27-129.9,29.62-14.64,61.71-16.9,93.89-8.95,30.05,7.42,49.53,32.54,51.55,67.13.84,14.39-.71,29-2.49,43.43s-3.45,15.11-17.67,15.11H690Zm2.2-13.27H726.5c34.24,0,39.57-3.7,44.8-37.53a163.39,163.39,0,0,0,.67-45c-2.21-17.33-15.2-24.62-31.29-17.85A54.37,54.37,0,0,0,718,646.38C701.63,670.45,695.91,698.35,692.19,728.13Z" transform="translate(-111.84 -233.52)"/></svg>