<svg id="Capa_1" data-name="Capa 1" xmlns="http://www.w3.org/2000/svg" viewBox="0 0 1785.44 987.35"><path d="M785.45,1025.64V840.78c4.8-.25,9.27-.69,13.74-.7,31.92-.06,63.85,0,95.77-.05,20.45,0,30.51-7.13,36.92-26.58,5.54-16.79,6.63-34.21,5.53-51.73-.24-3.7-1.78-7.42-3.23-10.91Q859.95,572.33,785.57,393.89c-1.28-3.07-2.85-6-5-10.51l-109,144.78L878,813.66c-5.06.4-7.81.81-10.56.81-89.82,0-179.63-.06-269.45.2-7.78,0-12.28-2.52-16.26-9.13-16.46-27.33-33.45-54.35-50.26-81.48-2.45-4-5-7.88-8.65-13.68-3,12.89-1.36,24.08-1.65,35.11s-.06,22.13-.06,33.2v35H280.41c-2.5-9.6-3.06-752-.51-767.34H517.6V356.76c3-3.57,5-5.51,6.47-7.75,16-23.63,32-47.22,47.66-71,3.33-5.06,6.78-7.69,13.22-7.68q204.33.29,408.65.21a41.6,41.6,0,0,1,5.19.81c20.63,65.44,41.42,131.41,63.22,200.57,13-34.69,22.47-67.45,33.22-99.76,10.87-32.66,21.32-65.46,32.07-98.57h244.94c-14.81,38.54-29.32,76.27-43.82,114l1.65,1.18c2.26-2.55,4.64-5,6.75-7.67,109.36-138,316.79-149.3,439.59-23,56.44,58.08,82.82,128.75,74.95,209.53-8.9,91.24-55.26,160.62-133.31,208-125,75.83-290.78,46.11-380-67.83-43.26-55.29-62.33-118.31-56-188.6.15-1.69.22-3.39.27-5.09a15.4,15.4,0,0,0-.62-2.6c-1.73,3-3.33,5.08-4.24,7.43q-49.85,128.46-99.35,257c-3.27,8.55-3.84,18.22-5,27.46-3,24.61-8.3,48.62-17.17,71.78-27.2,71-79.2,115.29-150.13,138.89-49.06,16.33-99.72,21.34-151.11,19.07-21.21-.94-42.33-3.89-63.48-6A44,44,0,0,1,785.45,1025.64Zm827-479.4,1.37-.1c-1.21-13.91-1.18-28.08-3.91-41.69-4.17-20.73-20.69-33.35-41.94-34.41s-40.41,9.71-45.56,29.53c-8.08,31.06-9.5,63.15-1.48,94.44,4.87,19,20,29.45,39.51,31,18.9,1.54,34.54-6.15,43.47-23.08,4.6-8.73,6.74-19.12,8.26-29C1613.53,564.23,1612.47,555.15,1612.47,546.24Z" transform="translate(-67.28 -46.33)"/><path d="M240.9,730.39c-.12,47.74-39.67,87-87.31,86.63-47.14-.36-86.09-39.4-86.31-86.52-.22-47.67,39.07-87.09,86.83-87.11A87,87,0,0,1,240.9,730.39Z" transform="translate(-67.28 -46.33)"/></svg>