<?xml version="1.0" encoding="utf-8"?>
<!-- Generator: Adobe Illustrator 25.4.1, SVG Export Plug-In . SVG Version: 6.00 Build 0)  -->
<svg version="1.1" id="Capa_1" xmlns="http://www.w3.org/2000/svg" xmlns:xlink="http://www.w3.org/1999/xlink" x="0px" y="0px"
	 viewBox="0 0 14400 14400" style="enable-background:new 0 0 14400 14400;" xml:space="preserve">
<style type="text/css">
	.st0{fill:#FFFFFF;}
</style>
<g>
	<path d="M5279.5,8966.6c0-1178.1,0-2356.1,0-3534.2c1.2-3.3,2.7-6.4,3.4-9.8c15.3-67.3,55.9-112,120.8-134.9
		c9.4-3.3,19.1-5.5,28.7-8.2c1178.1,0,2356.1,0,3534.2,0c3.8,1.2,7.6,2.7,11.5,3.7c66.3,16,110.7,56.2,133.2,120.5
		c3.3,9.4,5.5,19.1,8.2,28.7c0,1178.1,0,2356.1,0,3534.2c-1.2,3.8-2.7,7.6-3.7,11.5c-15.8,65.5-55.3,109.9-118.9,132.5
		c-9.9,3.5-20.2,5.9-30.3,8.9c-1178.1,0-2356.1,0-3534.2,0c-3.8-1.2-7.6-2.7-11.5-3.7c-65.5-15.8-109.9-55.3-132.5-118.9
		C5284.9,8987,5282.4,8976.7,5279.5,8966.6z M8620.8,6205.8c-6.8-0.4-10.3-0.8-13.8-0.8c-321.2,0-642.4,0.1-963.5-0.4
		c-15.5,0-18.5,5.5-18.4,19.5c0.4,234.1,0.4,468.1-0.1,702.2c0,14.8,4.1,19.1,18.9,19c71.7-0.7,143.4-0.3,215.1-0.3
		c6.9,0,13.7,0.6,21.7,1c0,9.1,0,16.2,0,23.2c0,255.4,0,510.8,0,766.2c0,26.8,0,26.8-27.3,26.8c-400,0.1-800,0.2-1200,0.3
		c-37.9,0-75.9-0.5-113.8,0.2c-15.8,0.3-21.3-4.7-21.3-21.4c0.5-259.5,0.5-519.1,0-778.6c0-16,5-19.9,20.3-19.8
		c80,0.7,160,0.3,240,0.3c23.2,0,23.6,0,23.6-22.9c-0.1-211,0-421.9-0.6-632.9c-0.1-26.9-3.3-53.8-5-81.2c-339.8,0-678.4,0-1019,0
		c0,7.4,0,13.8,0,20.2c0,752,0.1,1504-0.5,2255.9c0,18.8,5.6,22.4,22.9,22.4c932.7-0.4,1865.4-0.4,2798.1,0
		c17.6,0,22.9-4.1,22.9-22.6c-0.5-752-0.4-1504-0.4-2255.9C8620.9,6220,8620.8,6213.6,8620.8,6205.8z M6937.7,7274.4
		c6.1,0.6,11.3,1.6,16.6,1.6c171.8-0.6,343.5-1.5,515.3-1.7c16.3,0,20.6-5.4,20.6-21.6c-0.4-446.7-0.3-893.4-0.4-1340.1
		c0-6.3-0.7-12.7-1.1-19.7c-184.3,0-367.1,0-551,0C6937.7,6353.4,6937.7,6812.8,6937.7,7274.4z"/>
	<path class="st0" d="M8620.8,6205.8c0,7.9,0,14.2,0,20.6c0,752-0.1,1504,0.4,2255.9c0,18.4-5.3,22.6-22.9,22.6
		c-932.7-0.4-1865.4-0.4-2798.1,0c-17.3,0-22.9-3.6-22.9-22.4c0.5-752,0.5-1504,0.5-2255.9c0-6.4,0-12.7,0-20.2
		c340.6,0,679.2,0,1019,0c1.8,27.3,5,54.2,5,81.2c0.5,210.9,0.5,421.9,0.6,632.9c0,22.9-0.3,22.9-23.6,22.9c-80,0-160,0.4-240-0.3
		c-15.3-0.1-20.4,3.8-20.3,19.8c0.5,259.5,0.5,519.1,0,778.6c0,16.7,5.5,21.6,21.3,21.4c37.9-0.7,75.8-0.2,113.8-0.2
		c400-0.1,800-0.2,1200-0.3c27.3,0,27.3,0,27.3-26.8c0-255.4,0-510.8,0-766.2c0-7.1,0-14.1,0-23.2c-8-0.4-14.9-1-21.7-1
		c-71.7-0.1-143.4-0.4-215.1,0.3c-14.8,0.1-18.9-4.3-18.9-19c0.4-234.1,0.4-468.1,0.1-702.2c0-14,2.9-19.6,18.4-19.5
		c321.2,0.4,642.4,0.3,963.5,0.4C8610.6,6205,8614.1,6205.4,8620.8,6205.8z"/>
	<path class="st0" d="M6937.7,7274.4c0-461.6,0-921.1,0-1381.5c184,0,366.7,0,551,0c0.4,7,1.1,13.4,1.1,19.7
		c0,446.7,0,893.4,0.4,1340.1c0,16.2-4.3,21.5-20.6,21.6c-171.8,0.2-343.5,1.1-515.3,1.7C6949,7276,6943.7,7275,6937.7,7274.4z"/>
</g>
</svg>
