<svg id="Capa_1" data-name="Capa 1" xmlns="http://www.w3.org/2000/svg" viewBox="0 0 1874.45 813.67"><path d="M678.41,714.55V460.68H598.9V230.18H909.26V946.27H23.19v-716H341.36c1.83,6.25,2.69,208.42.88,229.85h-88v254a2.74,2.74,0,0,0,.33.41,1.53,1.53,0,0,0,.71.47,38.89,38.89,0,0,0,5,.56q207.48,0,415-.11A13.79,13.79,0,0,0,678.41,714.55Z" transform="translate(-23.19 -133.17)"/><path d="M1243.44,594.19V946.07H1012.35V230.38a27.89,27.89,0,0,1,4.25-.65q76,.11,151.95.23a12.06,12.06,0,0,1,9.07,3.64c52.33,50.29,108.53,96.2,163.53,143.47Q1497.42,511.41,1657,641.78c2.82,2.3,5.67,4.56,8.22,6.61a7.1,7.1,0,0,0,1.45-.63,1.2,1.2,0,0,0,.37-.69,19.64,19.64,0,0,0,.22-2.53q.09-206,.16-411.95a3,3,0,0,1,.13-.84,4.58,4.58,0,0,1,.36-.74c6.13-1.65,215-2.31,229.71-.65V946a59.34,59.34,0,0,1-6.79.8q-110.13,0-220.26,0c-4.89,0-7.91-2.27-11.19-5q-108.93-91.2-217.89-182.38-95.54-80-191.07-159.91C1248.75,598.1,1246.92,596.83,1243.44,594.19Z" transform="translate(-23.19 -133.17)"/><path d="M384.31,563.51V133.17H556.79V562.83C551.16,564.61,399.24,565.34,384.31,563.51Z" transform="translate(-23.19 -133.17)"/></svg>