<svg id="Capa_1" data-name="Capa 1" xmlns="http://www.w3.org/2000/svg" viewBox="0 0 1847.82 251.75"><path d="M1550.5,665.72h-71.24V594.33c-2.14-.62-143-.81-146.72-.24v71.54H1261c0-3.75,0-7.58,0-11.4s0-7.75,0-11.62V491.13c0-4,0-7.92,0-11.88s.15-7.72.16-11.59-.06-7.74-.07-11.61,0-7.73,0-11.95c.85,0,1.68-.12,2.51-.12,7.84,0,15.68.13,23.51.15,3.87,0,7.74-.15,11.61-.15H1550.5ZM1478.89,508.1H1332.61v20.79c4.34.51,144.24.31,146.28-.24Z" transform="translate(-36.09 -414.12)"/><path d="M851.46,594.16V515.44H827v-71c2.08-.55,93.51-.61,96.1,0V665.68H648.7V444.13h98.54c.53,1.93.73,66.64.19,71.14H720.5c-.58,2.14-.7,75.75-.18,78.89Z" transform="translate(-36.09 -414.12)"/><path d="M1157.43,574V444.47c2.09-.6,68.47-.73,71.35-.2V665.7c-1,.07-1.77.16-2.54.16q-33.67,0-67.36,0a5.14,5.14,0,0,1-3.57-1.29q-58.49-49-117-98l-9.92-8.3c-.51-.43-1.07-.8-2-1.51V665.65H955.13c-.56-1.88-.64-218.89-.06-221.52.57-.05,1.17-.15,1.78-.15l46,.09a4,4,0,0,1,3.11,1c13.5,13.15,28.06,25.11,42.35,37.38,34.78,29.87,69.79,59.48,105.35,88.43C1154.71,571.8,1155.8,572.67,1157.43,574Z" transform="translate(-36.09 -414.12)"/><path d="M36.4,444.12h76.4v98.62c1-.86,1.62-1.31,2.16-1.83,16.37-15.73,32.8-31.4,49.09-47.21q24.72-24,49.23-48.21A4.82,4.82,0,0,1,217,444q45.57.06,91.13,0c.62,0,1.23,0,1.8.08a2.24,2.24,0,0,1,.14.3c0,.08.05.19,0,.23L203.69,552c35.45,38,72.17,74.6,107.13,113.8h-2.57q-45.57,0-91.13.06a5.11,5.11,0,0,1-4-2c-26-27.34-52-54.74-78.19-81.93-6.78-7-12.77-14.76-19.57-21.77-.67-.69-1.31-1.4-1.94-2.06a1.78,1.78,0,0,0-.35.1.38.38,0,0,0-.15.18,2.25,2.25,0,0,0-.07.52c0,.35,0,.7,0,1q0,52.26,0,104.51a4.55,4.55,0,0,1,0,.52,1.09,1.09,0,0,1,0,.26,3,3,0,0,1-.27.36H36.59C36.08,663.77,35.86,449.33,36.4,444.12Z" transform="translate(-36.09 -414.12)"/><path d="M1733.17,607.73,1731,610q-24.82,26.85-49.62,53.72a6.07,6.07,0,0,1-5,2.14q-45.32-.11-90.61,0H1583a3.74,3.74,0,0,1-.14-.36.38.38,0,0,1,0-.24,2.55,2.55,0,0,1,.3-.43L1684,555.24a5.06,5.06,0,0,0,.25-.56L1582.39,444.13c1.41-.07,2.31-.15,3.21-.15h52.83c12.68,0,25.36,0,38-.05a6.09,6.09,0,0,1,5,2.14q24.82,27,49.8,53.91l1.81,2c.75-.76,1.43-1.4,2.05-2.07q24.93-26.94,49.8-53.91a5.85,5.85,0,0,1,4.79-2q45.3.07,90.61,0h2.8a2.72,2.72,0,0,1,.17.41.41.41,0,0,1,0,.24,4.89,4.89,0,0,1-.45.64L1781.94,554.86l102,110.71c-1,.11-1.6.24-2.23.24q-46.37,0-92.73.06a4.72,4.72,0,0,1-3.77-1.89q-24.35-26.38-48.73-52.74Z" transform="translate(-36.09 -414.12)"/><path d="M445.78,594.86H342.58V444.15h71.3v79H545.4v-79h71.37v150.7H517.45v70.81H445.83c0-3.89,0-7.81,0-11.73s0-7.74,0-11.61V594.86Z" transform="translate(-36.09 -414.12)"/><path d="M813.83,547.35H760.55V414.12h53.28Z" transform="translate(-36.09 -414.12)"/></svg>