<?xml version="1.0" encoding="utf-8"?>
<!-- Generator: Adobe Illustrator 25.4.1, SVG Export Plug-In . SVG Version: 6.00 Build 0)  -->
<svg version="1.1" id="Capa_1" xmlns="http://www.w3.org/2000/svg" xmlns:xlink="http://www.w3.org/1999/xlink" x="0px" y="0px"
	 viewBox="0 0 3840 3840" style="enable-background:new 0 0 3840 3840;" xml:space="preserve">
<g>
	<path d="M452.2,1952.1c0.8-0.9,1.4-2.1,2.4-2.6c1-0.6,2.3-0.6,3.5-0.7c16-1,32.1-1.8,48.1-3c16.8-1.2,33.6-2.6,50.4-4
		c1.6-0.1,3.1-0.6,5.2-1.1c0.4-2.7,1-5.4,1-8.1c0.1-59.1,0.1-118.2,0-177.3c0-2.8-0.5-5.5-0.8-8.8c-3-0.4-5.7-1-8.4-1
		c-17.7-0.3-35.4-0.5-53.1-0.8c-51.1-0.8-102.2-1.6-153.3-2.5c-20.5-0.4-41-0.9-61.5-1.4c-1.2,0-2.3-0.4-3.5-1.5c2-0.3,4-0.8,6-0.7
		c20.9,0.6,41.8,1.2,62.7,1.8c7.6,0.2,15.3,0.2,22.9,0.3c37,0.4,74,0.6,111.1,1.1c21.3,0.3,42.6,1,63.9,1.4c4,0.1,7.9-0.2,12.3-0.4
		c0.6-1.8,1.4-3.3,1.4-4.7c0.1-23.3,0.1-46.6,0-69.9c0-1.1-0.6-2.3-1.1-4.1c-3.7-0.5-7.6-1.1-11.5-1.6c-3.6-0.4-7.2-0.8-10.8-1.1
		c-22.5-1.6-44.9-3.1-67.4-4.6c-13.2-0.9-26.5-1.8-39.7-2.6c-18.5-1.1-36.9-1.9-55.4-3.1c-17.2-1.1-34.5-2.7-51.7-4
		c-12.4-0.9-24.9-1.7-37.3-2.5c-17.3-1-34.5-1.8-51.8-2.9c-21.6-1.4-43.1-3.1-64.7-5.4c4-2.1,8.2-0.9,12.3-0.7
		c6.4,0.4,12.8,1,19.2,1.5c19.6,1.4,39.3,2.8,58.9,4.2c1.6,0.1,3.2,0.3,4.8,0.4c17.7,0.9,35.3,1.7,53,2.9
		c17.6,1.2,35.2,2.7,52.9,4.1c1.2,0.1,2.4,0.2,3.6,0.2c18.5,1,36.9,1.8,55.4,3c17.2,1.1,34.4,2.9,51.7,4.1
		c16.4,1.1,32.9,1.8,49.4,2.8c6.4,0.4,12.8,1.1,19.2,1.5c3.1,0.2,6.2,0,9.9,0c3.1-14.1-0.2-28.3,2.1-42.3c8.6-0.9,16.5-0.1,24.3,2.4
		c2,4.8,1,9.7,1.2,14.4c0.2,3.2,0.1,6.4,0.7,9.6c0.2,1,2.3,2.4,3.5,2.4c1.2,0,3.2-1.3,3.4-2.3c0.6-3.1,0.4-6.4,0.6-9.6
		c0.2-4.3,0.3-8.7,0.5-13.8c6.3,0.5,11.8,0.8,18.1,1.3c0.7-3,1.4-6,2.3-9.7c1.9-0.1,4.2-0.5,6.5-0.4c4.8,0.2,9.6,0.7,14,1
		c3.2-3.7,2.2-7.2,1.7-11c-0.9-0.6-1.8-1.6-2.9-1.8c-10.7-1.6-21.5-3-32.3-4.5c-2.3-0.3-4.6-0.9-7.2-1.5c-0.3-4-0.5-7.5-0.9-11.1
		c-0.3-2.6-0.9-2.8-6.9-3.3c-0.6,4.1-1.2,8.3-1.8,13.1c-9.6,0.5-18.5-2.3-28.3-3c-0.7-4.9-1.3-9.6-2.1-14.8
		c-11.8-3.7-24.5-3-36.7-6.7c-1.5-4.2-1.2-8.4-0.2-13.2c13.6-0.1,26.3,4.6,40.4,4.4c-1.3-2.4-2.3-4.3-3.3-6.2c0,0-0.3,0.2-0.3,0.2
		c11.3-0.5,22.4,0.3,33,4.5c1.1,0.4,2.3,1,3.4,0.9c10.2-1.5,20,1.5,29.9,2.8c27.5,3.8,55,7.8,82.4,11.8c1.9,0.3,3.8,0.8,6.2,1.3
		c1.2,10.7,0.4,21.1,0.6,31.5c0.1,10.9,0,21.7,0,32.6c0,10.5,0,20.9,0,31.4c0,10.9,0,21.7,0,32.6c0,10.3-0.1,20.6,0.2,32.7
		c6.1-4.2,8.4-8.9,11.6-12.7c3.3-4,6.4-8.2,9.7-12.3c3.2-4.1,6.5-8.2,9.7-12.3c3.2-4.1,6.5-8.2,9.8-12.3c3.3-4.1,6.6-8.2,9.8-12.2
		c3.3-4.1,6.6-8.1,9.9-12.2c3.1-3.7,6.1-7.5,9.2-11.2c3.3-4,6.7-8,10-12.1c3.4-4,6.7-8,10.1-12s6.8-8,10.2-11.9s6.8-7.9,10.3-11.9
		c3.4-3.9,6.9-7.8,10.1-11.3c8.6-0.3,170,18.3,178.3,20.5c-10.1,12.3-21.4,23.1-31.8,34.6c-10.8,11.9-21.8,23.7-32.5,35.7
		c-10.5,11.7-20.8,23.5-31.3,35.5c1.9,5.2,6,7.5,9.9,10.1c4-2.5,7.6-4.7,12-7.4c-1.7,5.1-1.7,5.1-7.2,11c2.6,3.1,5.1,6.3,8.8,10.7
		c-6.9-0.7-8.9-6.5-14.3-7.3c-3.3,2.2-6.9,4.6-10.4,6.9c-6.6,0.2-9.1-6.5-13.9-8c-8.9,0.8-5.3,8.5-8.1,12.6c1.8,3.3,6.3-0.2,8.5,3.5
		c-4.2,0.3-8.1,0.5-11.7,0.8c-9,8.6-41.7,48.7-48.1,59c6.7,11.1,58.1,73.9,71.3,87.2c7.4-1,15.3-2.2,23.8-3.3
		c0.3,4.5-3.1,6.5-4.8,9.4c-1.9,3.3-5.5,5.8-5.5,10.5c8.7,2.3,16.6-3.9,25.4-1.3c-2.1,6.6-8.6,10.7-10.8,18.2
		c2.9,0.2,5.1,0.8,7.2,0.5c5.9-0.8,11.8-2,17.3-3c2.7,3.5-0.5,4.8-1.5,6.6c-2,3.5-4.5,6.6-6.6,10c-0.3,0.5,0,1.5,0.1,2.9
		c8.3,1.4,16.1-3.5,24.7-2.3c-1.3,7.4-9.5,11-10.3,19.1c8.9,0.5,16.8-3.3,25.9-3.6c-1.8,7.7-9,11.8-10.8,18.4c1.2,3.4,3.7,3,6.1,2.8
		c4.7-0.3,9.2-3.3,14.5-1.6c-0.3,5.5-5.7,8.5-7.2,14c3.4,4,7,8.3,11,12.9c-2.6,2.7-5.9,2.6-8.8,2.9c-17.2,1.9-34.4,3.6-51.6,5.5
		c-25.6,2.9-51.2,5.8-76.8,8.8c-13.2,1.5-26.3,3-39.5,4.4c-8.6-7.5-14.9-16.3-22.1-24.4c-6.9-7.8-13.6-15.9-20.3-24
		c-7-8.3-13.8-16.7-20.7-25.1c-6.6-8.1-13.2-16.1-19.4-23.8c-3.9-0.3-4.8,2.2-6.1,4.1c-9.8,13.8-19.4,27.7-29.3,41.3
		c-3,4.1-4.3,8.4-4.2,13.4c0.2,14.5,0.1,29,0,43.4c0,3.6-0.3,7.1-0.5,10.9c-1.8,0.7-3.2,1.7-4.7,1.9c-35.4,5.1-70.9,10.1-106.3,15.2
		c-8,1.1-15.9,2.7-23.9,3.7c-5.5,0.7-11.2,0.4-16.8,1.1c-8.4,0.9-16.7,2.2-25,3.4l0.2,0.2c0.5-2.3,2-3.2,4.2-3.5
		c6.7-1,13.4-2.1,19.9-3.1c2.8-8.5,3.2-27.5,0.7-40c-6.2-1.3-12.4,1-18.7,1.6c-6.3,0.6-12.7,1.3-19.5,2c-3-11.5,0-22.8-2.2-34.3
		c-10.4-2.7-20.5,1.5-30.7,1.6c-10.4,0.1-20.7,2.1-31.1,3.2c0,0,0.2,0.1,0.2,0.1c0.8-2,2.3-3.1,4.5-3.3c11.1-0.9,22.3-1.8,33.4-2.9
		c7.9-0.8,15.8-1.9,23.7-2.9c0.7-5.3,1.3-10,1.8-14.4c7.1-2,7.1-1.9,13.2-0.2c-1.6,3.9-5.8,2.2-8.8,4.4c0,2.5,0,5.4,0,9.2
		c10.9,0,21.1-1,31.4-1.5c-4.5,3.5-9.9,2.8-15,3.2c-5.5,0.4-11.2,0.1-16.6,3.5c-0.4,9.6-1.8,19.3,1,29.8c11.8-2.1,23.4-1.5,34.9-5.7
		c0-7.9-0.1-15.4,0.1-22.9c0.1-3.8-2-5.8-4.7-7.7c5.8-1,11.7-2.1,18.6-3.3c-4.6-0.4-8.2-0.6-12.4-0.9c-0.8-2-1.7-4.1-2.9-7
		c-6.3,0-12.9,0-21.4,0c7-6.4,14.5-3.4,21.3-6.1c0.4-2.2,1.1-4.8,1.4-7.4c0.5-4.7-0.9-9.6,2-14.9c5.9-0.4,12.2-0.9,18.5-1.4
		c-4.5-2.1-9.1-1.6-13.7-1.5c-4.4,0.1-8.8,0.3-13.2,0.6c-2.8,0.2-5.6,0.9-8.4,1c-17.6,1.1-35.3,2-52.9,3.2
		c-14.4,1-28.8,2.3-43.2,3.4L452.2,1952.1z M595.8,1943.1c32.5-0.9,64.8-4.6,97.1-6c2.2,10.8,2.1,24.2-0.2,32.7
		c-3.1,0.5-6.2,1-9.4,1.4c-3.2,0.4-6.4,0.8-9.6,1c-3.2,0.3-6.4,0.3-9.6,0.7c-3.6,0.4-7.2,1-10.8,1.3c-3.2,0.3-6.4,0.4-9.6,0.8
		c-3,0.3-6.3-0.3-10,2.6c6.1,2.8,11,0.1,15.9,0c5.2-0.1,10.4-0.7,15.6-1.2c5.6-0.5,11.2-1.1,16.8-1.6c5.1-0.5,10.3-0.4,14.8-2.6
		c1.7-14.6,1.4-28.9-0.6-37.5C683.9,1933.4,609.2,1939.1,595.8,1943.1z M803.1,1726c3.3,3.1,6.1,5.6,9.1,8.4
		c2.2-1.6,3.9-2.6,5.3-3.9c1.1-1,2-2.2,3.2-3.5c-2.1-3.9-4.7-6.6-9.3-8.1C809,1720.9,806.4,1723.2,803.1,1726z M847,1727.9
		c-3.5-3.1-6.2-5.5-9.4-8.3c-2.9,2.4-5.6,4.7-8.4,7c2.3,4.2,4.8,7.1,9.3,8.3C840.9,1732.9,843.4,1730.9,847,1727.9z M880.2,1729.3
		c2.4,3.8,4.9,6.6,9.7,7.7c2.4-2.1,4.9-4.4,7.9-7.1c-3.3-2.9-6-5.2-8.9-7.6c-2,1.3-3.8,2.2-5.3,3.5
		C882.4,1726.7,881.4,1728,880.2,1729.3z M854.5,1727.5c2,4.4,5,6.8,9.3,8.8c2.5-2.2,5.1-4.5,8.2-7.2c-3.2-3-5.8-5.3-8.8-8.1
		C860.1,1723.3,857.3,1725.4,854.5,1727.5z M905.7,1729.8c1.7,4.2,4.8,6.4,9,8.5c2.5-2,5-4.2,8.1-6.7c-2.9-3.7-5.2-6.7-9.7-7.6
		C910.6,1725.9,908.2,1727.9,905.7,1729.8z M893.8,1720.5c2.9,2.7,5.1,4.6,7,6.4c3.4-1.2,6.1-2.1,6.3-6.3
		C903.1,1719.6,899.2,1718.9,893.8,1720.5z M799.3,1722.7c2.7-2.4,4.9-4.3,8-7c-5.5-1.5-9.5-1.5-15.1-0.8
		C794.9,1717.9,796.8,1720,799.3,1722.7z M856.9,1720c-4.1-3.4-4.1-3.4-12.9-2.4c0.9,3.9,3.5,5.7,7.5,6.7
		C853.3,1723,855,1721.5,856.9,1720z M795.4,1725.1c-2.4-2-3.4-6.1-8.6-4.8c0.2,3.6,0.4,7,0.5,10.6
		C791.7,1730.6,793.6,1728.3,795.4,1725.1z M831.1,1737.9c-0.7-4.3-3.2-6.2-6.9-6.8c-2.6,1.3-5.1,2.3-5.4,6.2
		C822.8,1738.7,826.9,1738.3,831.1,1737.9z M882.6,1739.8c-6.8-8.3-7-8.3-12.5-0.9C873.9,1740.9,877.7,1740.5,882.6,1739.8z
		 M831,1719.1c-0.4-0.9-0.6-2.1-1-2.1c-3.1-0.3-6.3-0.6-9.4-0.6c-0.4,0-0.8,1-1.7,2.1c1.9,1.7,3.9,3.4,6.1,5.3
		C827.4,1721.9,829.2,1720.5,831,1719.1z M881.7,1720.1c-10-2.1-10.7-2.1-11.4,1.1c1.7,1.4,3.7,3.1,5.8,4.9
		C878.6,1724.1,881.5,1723.4,881.7,1720.1z M855.9,1738.1c-0.3-3.7-2.8-4.8-5.3-6.1c-3,1-5.7,2.3-6.3,6.1
		C848.3,1739,852.1,1739.6,855.9,1738.1z M805.4,1735.7c-1.3-3-2.9-5.3-6.2-5.9c-2.7,1.2-5.2,2.3-5.6,6.2
		C797.4,1736.7,801,1737.8,805.4,1735.7z M612.2,1978.2c0,0.5,0,0.9,0,1.4c2.3,0,4.6,0.1,7,0c1.8-0.1,3.6-0.5,5.4-0.7
		c-0.1-0.2-0.1-0.4-0.2-0.6C620.3,1978.2,616.2,1978.2,612.2,1978.2z M588.2,1980.7c0,0.2,0,0.5,0,0.7c4.1,0,8.3,0,12.4,0
		c0-0.2,0-0.5,0-0.7C596.4,1980.7,592.3,1980.7,588.2,1980.7z M589.7,1564.1c2.2,0.4,3.9,0.7,5.5,0.8c0,0,0.5-1.6,0.3-1.8
		C593.9,1561.9,592.1,1561.5,589.7,1564.1z"/>
	<path d="M3364.9,2080c-14.6-2.6-29.1-5.2-43.9-6.3c-12.4-1-24.6-3.6-36.9-5.5c-36.1-5.4-72.2-10.8-108.4-16.2c-6.3-1-12.7-2-20-3.1
		c-6.3-9.5-11.4-20.4-17.3-30.8c-6.1-10.8-12.1-21.7-18.3-32.5c-5.9-10.5-11.9-20.9-17.7-31c-4.4-0.7-5,2.7-6.4,4.8
		c-14.3,21.4-28.4,42.8-42.6,64.2c-2.2,3.3-4.6,6.5-7.1,10c-11.3-0.1-22.4-1.3-33-3.6c-2.5-4-4.7-7.7-7-11.3
		c-0.7-1.8-1.4-3.7-2.1-5.5c-0.5-4.4-1.8-8.4-5.1-11.5c-0.7-1.8-1.4-3.7-2-5.5c-0.8-4.2-1.8-8.4-5.3-11.3c-0.7-1.8-1.3-3.7-2-5.5
		c-1.7-3.9-3.4-7.7-5-11.6c-0.6-1.9-1.2-3.8-1.8-5.7c-1-1.5-0.6-4.3-3.7-3.6c1.4-5.1-1.1-8.8-4.5-12.1c0.3-2.2,0.3-4.3-1.9-5.6
		c-0.5-1.9,0.2-4.7-3.4-3.9c1.9-5.2-1-8.9-4-12.6c-0.1-2.4-0.7-4.2-3.7-3.6c1.5-4.1,1.3-4.6-1.7-5.9c0.1-1.2,0.4-2.3,0.2-3.4
		c0-0.3-1-0.6-1.6-0.9c-0.1,0.4-0.3,0.9-0.1,1.1c0.5,1,1.2,1.9,1.9,2.9c0.5,2,1,4,1.5,6c1.3,1.2,2.5,2.3,3.8,3.5
		c-1,4.9,2.7,8.4,4,12.6c0.9,1.5,0.8,3.8,3.3,3.9c-0.5,2.2-0.5,4.3,1.9,5.6c0,4.6,2.3,8.3,4.6,12c0.6,1.8,0.8,4,3.6,3.7
		c-0.7,2.4-1.7,4.8,1.9,5.6c-0.7,4.9,1.1,8.7,5,11.6c-0.4,2.2-0.8,4.5,2,5.5c-0.2,4.7,1.3,8.6,5.3,11.3c-0.4,2.3-0.9,4.6,2.1,5.5
		c-0.5,4.8,1.3,8.6,5,11.5c-0.4,2.2-0.7,4.5,2.1,5.5c0.5,3.5,1.1,7,1.7,11.4c-43.8-5-87.1-10-130.7-15.1c-0.9-4.2,2-6.3,3.7-8.7
		c20.7-29.1,41.5-58.1,62.3-87.2c2.3-3.2,4.3-6.6,7-10.8c-13.6-4-26.9-1.5-40-4.2c0-2.7,0-5,0-8c15.8-1.7,31.3,1,46.6,1
		c8-8.4,51.3-74.3,57.3-87.3c-2.5-3.9-5.2-8.3-8-12.6c-4.6-7.1-9-14.2-13.9-21.1c-2.7-3.7-4-7.7-4.4-12c0.7,0.4,1.4,0.8,2.1,0.9
		c0.4,0,0.8-0.7,1.2-1.1c-0.3-0.1-0.7-0.2-1-0.2c-0.7,0.1-1.4,0.4-2.2,0.6c-1.8,0.8-3,0-4-1.4c-2.5-3.6-5-7.3-7.9-11.4
		c-12.7-1.5-25.8,0.6-38.7-2.6c11.2,0,22.4,0,34.6,0c-0.8-2.8-0.9-4.8-1.8-6.2c-17.8-25.8-35.6-51.6-53.5-77.4
		c-0.6-0.9-1.7-1.4-3.2-2.6c-3.2,5.3,0.3,11.4-3.1,16.9c-2.5,0.3-5.6,0.6-8.9,0.9c-2.6-9.2-0.9-18.1-1.3-26.8
		c-0.4-8.3,0.5-16.7-0.6-25.5c-9-1.4-17.3,0.9-25.6,0.9c-0.6-1.3-1.4-2.3-1.6-3.4c-0.2-1.1,0.2-2.3,0.5-4.1c3-0.7,6-1.4,9-2.1
		c0.1-0.9,0.4-1.8,0.1-2.4c-1.7-3-3.6-6-5.5-9.1c7.5-2,161-20.4,169.7-20.4c18.2,25.9,35.4,53,52.9,79.5c4.4,0.2,4.9-3.2,6.1-5.4
		c14.6-25.9,29-51.9,43.5-77.9c1.9-3.5,3.9-7,6.1-10.8c3.4-0.8,6.9-1.8,10.4-2.3c37-5.4,74-10.7,111-16c9.9-1.4,19.9-3.1,29.8-4.6
		c7.5-1.1,15.1-1.9,22.7-2.9c0,0-0.2-0.2-0.2-0.2c-2.4,2.9-5.2,5.7-7.3,8.9c-2,3-3.2,6.5-4.9,9.7c-14.3,28.3-28.6,56.7-42.9,85
		c-1.6,3.1-3,6.4-4.7,10.2c6.4,1.5,11.9,0.8,17.4,0.3c2.8-0.2,5.6-1,8.4-1.2c18.5-1.1,36.9-2,55.4-3.2c16.8-1.1,33.7-2.5,50.5-3.8
		c1.2-0.1,2.4-0.3,3.6-0.3c18.5-1,36.9-1.9,55.4-3.1c16.8-1.1,33.7-2.5,50.5-3.7c1.2-0.1,2.4-0.3,3.6-0.4c18.5-1,36.9-2,55.4-3.2
		c16.8-1.1,33.7-2.5,50.5-3.8c2.8-0.2,5.6-0.4,8.4-0.6c10.8-0.7,21.6-1.5,32.5-2.1c2.4-0.1,4.7,0,7.2,1.2c-3.1,0.4-6.2,0.8-9.3,1.2
		c-3.6,0.4-7.2,1.1-10.8,1.3c-18.9,1.1-37.8,2-56.6,3.2c-16,1-32.1,2.5-48.1,3.7c-1.6,0.1-3.2,0.3-4.8,0.4
		c-18.9,1.1-37.8,2-56.6,3.2c-16.4,1.1-32.9,2.6-49.3,3.8c-14.8,1.1-29.7,2-44.5,2.9c-10,0.7-20,1.4-30.1,2
		c-18.5,1.1-36.9,2-55.4,3.2c-11.6,0.8-23.2,1.9-35.6,2.9c-13.7,25.6-27.5,51.3-41.1,76.5c1.3,3.4,3.6,2.8,5.4,2.8
		c34.2-0.2,68.4-0.2,102.6-0.7c41.4-0.5,82.9-1.4,124.3-2.2c29.4-0.6,58.7-1.4,88.1-2c3.6-0.1,7.1,0,10.8,1.4c-2,0.3-4,0.8-6.1,0.8
		c-60.8,0.9-121.5,1.7-182.3,2.6c-45.1,0.7-90.1,1.5-135.2,2.3c-1.6,0-3.2,0.1-4.8,0.1c-4.6-0.1-7.3,2.4-9.4,6.3
		c-5,9.2-10.2,18.2-15.2,27.4c-2.6,4.9-6.2,9.3-7.6,15.4c2.5,0.8,4.7,1.4,6.8,2.1c3.8,4.6,4.7,11.1,9.9,15.7
		c3.1-5.6,6-10.8,9.2-16.7c2.1,0.5,4.2,1.1,6,1.5c0.1,1.5,0.5,2.4,0.2,3c-4.8,10.1-9.7,20.2-15.1,31.4c-1.8-2.1-3.2-3.3-4-4.8
		c-2.5-4.6-4.7-9.3-7.1-14c-0.9-1.6-2.1-3-3.9-5.4c-2.7,5.1-5,9.3-7,13.1c3.4,5.5,6.8,10.5,9.7,15.7c16.9,30.6,33.7,61.3,50.5,92
		c1.4,2.5,2.7,4.9,4,7.4c1.6,3.1,4,4.8,7.6,5c13.6,0.8,27.3,1.6,40.9,2.6c18,1.3,36.1,2.8,54.1,4.2c1.6,0.1,3.2,0.4,4.8,0.5
		c16.9,1,33.7,1.8,50.6,2.9c12.4,0.8,24.9,1.7,37.3,2.6c2.5,0.2,4.8,0.7,5.8,3.4l0.2-0.1c-1.6-0.3-3.1-0.8-4.7-0.9
		c-16.8-1-33.7-1.9-50.5-3.1c-17.2-1.2-34.4-2.9-51.6-4.1c-14.8-1.1-29.6-1.9-44.5-2.8c-12.4-0.8-24.8-1.7-37.2-2.5
		c-2.3-0.1-4.6,0.2-7.9,0.4c4.1,11.3,10.9,20.3,15.1,31.6c-9.7,1.4-18.2-1-26.7-1.1c-8.4-0.2-16.8-1.1-25.1-2.3
		c-8.8-1.3-17.5-2.4-26.2-2c-2.6,7.7-2.9,16.7-0.9,30.4c5.2,0.8,10.6,1.9,16.1,2.6c16.7,2,33.5,3.8,50.2,5.6c8,0.9,15.9,2,23.9,2.6
		c5.8,0.4,9.5,2.9,12,8.3c6.1,13.1,12.8,25.9,19.2,38.8c2,3.9,4,7.8,6.2,12.3c12.2,1.9,24.5,3.9,36.7,5.7c2.3,0.3,3.6,1.4,3.9,3.7
		L3364.9,2080z M3001.4,1757.7c-0.7,0.2-1.3,0.3-2,0.6c-0.3,0.1-0.4,0.5-0.7,0.7c0.6,0.1,1.5,0.5,1.8,0.2c0.4-0.4,0.4-1.2,0.5-1.9
		c0.9-0.3,1.8-0.6,2.7-0.9c-0.3-0.1-0.8-0.5-0.9-0.4C3002.3,1756.6,3001.9,1757.1,3001.4,1757.7z M3026.7,1739.4
		c-1.2,1.6-2.3,3.3-5,7.1C3025.5,1743.4,3028.3,1742.8,3026.7,1739.4c1,0.4,2.1,0.8,3.2,1.2c0.1-0.4,0.2-0.8,0.3-1.2
		C3029,1739.4,3027.9,1739.4,3026.7,1739.4z M3055.6,1724.8c2.4-1.7,4.7-3.4,7.1-5.1c2.3-1.7,4.6-3.5,6.9-5.2
		c2.4-1.6,4.8-3.2,7.3-4.8c2.7-1.4,5.3-2.7,8-4.1c1.4-1.4,2.7-2.8,4.1-4.2c-2.5,0.6-5.4,1-4,4.3c-4.8-0.5-5.9,0.1-7.8,4.3
		c-3.7-0.3-6.2,1.2-7.2,4.8c-3.7-0.1-6.4,1-7,5.1c-4.9,0.1-6,1-7.1,5.1c-0.7-0.2-1.3-0.7-2-0.7c-0.4,0-0.7,0.8-1.1,1.2
		c0.3,0.1,0.7,0.3,0.9,0.2C3054.3,1725.5,3055,1725.1,3055.6,1724.8z M3115.4,1683.1c1.7-1.1,3.4-2.1,6.9-4.4
		c-4.6,1-6.7,1.6-6.6,4.6c-1.9,0.7-3.8,1.3-5.6,2c0.3,0.5,0.5,1,0.8,1.6C3112.4,1685.7,3113.9,1684.4,3115.4,1683.1z M2913,1625.5
		c-0.7,7.3-1.4,13.5,0.7,20.3c5-0.4,9.8-0.6,14.5-1.2c5.1-0.6,10.4,0.6,15.3-2.5c1.1-6.3,1.3-12.5-0.2-19.2
		C2933,1622.2,2923.7,1624.8,2913,1625.5z M3165.9,1798.2c-6.5-1.1-11.2-2.6-15.9,1c2.1,5.1,3.7,9.7,8.2,13.9
		C3160.8,1808.1,3163,1803.9,3165.9,1798.2z M3177.8,1797.4c2.4,9,2.5,8.9,7.8,14.7c3.2-4.5,6.3-8.8,6.4-14.7
		C3187.2,1797.4,3182.9,1797.4,3177.8,1797.4z M3090.5,1809c-0.9,0-1.8,0-2.6,0.1c-1.4,4.6-5.4,8-5.6,13.8c5.2,0.1,9.7,1,15.1-1
		C3094.8,1817.1,3092.7,1813.1,3090.5,1809z M3109.8,1798.5c-4.9-0.5-9.3-1.7-14.2,1.2c2.3,4.7,3.7,9.1,8.2,12.9
		C3106.4,1807.8,3109.2,1804.1,3109.8,1798.5z M3124.5,1822.8c-2.3-5.9-4-10.3-7.8-14.1c-3.6,4.2-6.3,8.3-7,14.1
		C3114.5,1822.8,3118.8,1822.8,3124.5,1822.8z M3143.6,1808.2c-3.2,5.1-5.7,9.1-6.6,14.6c5,0.5,9.4,1.6,14.5-0.9
		C3149.4,1817.2,3147.7,1812.9,3143.6,1808.2z M3130.9,1812.5c2.8-4.6,6.2-8.4,6-14.3c-5-1-9.5-1.7-14.2,1.5
		C3125.5,1804.2,3126.5,1809.1,3130.9,1812.5z M3082.8,1799c-4.9-1.2-9.4-1.6-14.4,0.3c0.6,1.9,0.9,3.5,1.7,4.8
		c1.5,2.8,3.2,5.4,5.4,9C3079,1808.5,3081.8,1804.5,3082.8,1799z M3177.8,1823.1c0.2-6-3.2-9.8-6.1-14.6c-4.4,4.3-6.8,8.6-7.5,14.6
		C3169.2,1823.1,3173.3,1823.1,3177.8,1823.1z M3062.8,1810.9c-0.9,4.7-1.7,8.3,0.8,12.1c2-0.3,3.7-0.5,6.2-0.9
		C3068,1817.6,3066.7,1814,3062.8,1810.9z M3246.8,1582.4c4.2-1.4,4.2-1.4,6.6-5.6C3250.8,1579,3249.1,1580.4,3246.8,1582.4z
		 M3262.7,1571.5c0.9-0.9,1.9-1.8,2.9-2.8c0,0-0.6-0.7-0.7-0.7c-1.2,0.8-2.3,1.6-3.4,2.5C3261.7,1570.7,3262,1570.9,3262.7,1571.5z
		 M3239.4,1590.6c-0.5-0.5-0.9-1-1-0.9c-1.2,0.8-2.3,1.6-3.5,2.5c0.3,0.3,0.7,0.8,0.7,0.8
		C3236.9,1592.2,3238.1,1591.4,3239.4,1590.6z M3227.4,1600.2c-0.5-0.5-0.9-1-1-0.9c-1.2,0.8-2.4,1.7-3.6,2.5
		c0.3,0.2,0.7,0.8,0.8,0.7C3224.9,1601.8,3226.1,1601,3227.4,1600.2z M3215.2,1609.9c-0.5-0.5-0.9-1-1-0.9c-1.2,0.8-2.4,1.7-3.6,2.5
		c0.3,0.3,0.7,0.8,0.8,0.7C3212.6,1611.5,3213.8,1610.7,3215.2,1609.9z M3194.9,1625.4c-4.5,0.7-5.5,1.8-6.1,4.7
		C3190.9,1628.5,3192,1627.6,3194.9,1625.4z M3183.7,1634.1c-0.4-0.5-0.8-1-0.9-1c-1.2,0.8-2.4,1.6-3.6,2.4c0.3,0.3,0.7,0.8,0.8,0.7
		C3181.3,1635.6,3182.5,1634.8,3183.7,1634.1z M3175.7,1640c-4.4,0.5-5.3,1.7-6.6,5C3171.8,1642.9,3172.9,1642,3175.7,1640z
		 M3164.4,1648.4c-2.3-0.1-4.1,0.2-4.2,3.2C3162,1650.2,3163.2,1649.3,3164.4,1648.4z M3145.8,1662.1c0.3-1.2-2.7-1.8-1.7,1.3
		C3145.5,1662.3,3146.7,1661.4,3145.8,1662.1z M3139.4,1666.5c-4.4,0.6-5.2,1.8-6.9,5.2C3135.5,1669.5,3136.7,1668.6,3139.4,1666.5z
		 M3205.8,1617.2c-0.4-0.4-0.8-1-0.9-0.9c-1.2,0.8-2.4,1.6-3.5,2.4c0.2,0.3,0.6,0.8,0.7,0.8
		C3203.4,1618.7,3204.6,1617.9,3205.8,1617.2z M3096,1695.6c-0.3,0.2-0.6,0.4-0.9,0.5c0.2,0.3,0.3,0.5,0.5,0.8
		c0.4-0.3,0.9-0.6,1.3-1C3096.6,1695.8,3096.3,1695.7,3096,1695.6z M3102.9,1690.8c-0.3,0.2-0.6,0.3-0.9,0.5
		c0.2,0.3,0.3,0.5,0.5,0.8c0.4-0.3,0.9-0.6,1.3-1C3103.5,1691,3103.2,1690.9,3102.9,1690.8z M3126.2,1674.3c0.1,0.3,0,0.7,0.2,0.8
		c0.3,0.1,0.7,0.1,1,0.1c-0.1-0.4-0.2-0.8-0.2-1.2C3126.9,1674,3126.6,1674.1,3126.2,1674.3z M3154.6,1654.9c-0.3-0.1-0.7-0.2-1-0.3
		c-0.1,0.4-0.1,0.9-0.2,1.3c0.4-0.1,0.7-0.1,1-0.3C3154.6,1655.5,3154.6,1655.1,3154.6,1654.9z M3276.8,1558.5
		c-0.3-0.1-0.6-0.3-0.9-0.3c-0.3,0.1-0.4,0.4-0.6,0.7c0.5,0.1,1,0.2,1.4,0.4C3276.8,1559.1,3276.8,1558.8,3276.8,1558.5z
		 M3038.7,1735.1c-0.1-0.3-0.1-0.7-0.2-0.7c-0.3-0.1-0.7-0.1-1-0.1c0.1,0.4,0.2,0.8,0.2,1.2
		C3038,1735.4,3038.4,1735.2,3038.7,1735.1z M3044.5,1729.8c0.1,0.3,0.1,0.6,0.2,0.7c0.3,0.1,0.7,0.1,1,0.1
		c-0.1-0.4-0.2-0.8-0.3-1.2C3045.1,1729.5,3044.8,1729.7,3044.5,1729.8z M3010.3,1751.6c0.1,0.2,0,0.6,0.2,0.7
		c0.3,0.1,0.6,0.1,0.9,0.1c-0.1-0.4-0.1-0.8-0.2-1.1C3010.9,1751.3,3010.6,1751.4,3010.3,1751.6z"/>
	<path d="M2012.4,1713.1c0.5-2.9,0.7-5.5-2.7-5.9c-3.2-0.4-6.4-0.4-9.6-0.4c-9.7,0-19.3,0-29.6,0c-0.8-2.1-1.6-4.3-2.5-6.4
		c-1.3-2.8-3.5-2.8-6.4-1.4c-0.7,2.3-1.5,4.8-2.4,7.7c-9.9,0-19.5,0-29.6,0c-1.1-2.3-2.2-4.8-3.6-7.7c-6-1.5-12.5-0.5-18.8-0.8
		c-4.4-0.2-8.9-0.1-13.2-0.6c-1.1-0.1-2.5-1.9-2.8-3.1c-0.5-2.2,0.7-4,3.1-4.1c3.6-0.2,7.2-0.3,10.8-0.3c6.8,0,13.6,0,21.1,0
		c0.6-3.3,1.3-5.9,1.4-8.6c0.3-6.4,0.3-12.8,0.4-19.1c5.1-2.8,10-1.9,14.7-1.9c38.6-0.6,77.3-1.1,115.9-1.6
		c6.8-0.1,13.7,0.1,20.5,0.1c5.5,4.6,11.3,9,16.6,13.8c42.1,38.6,84.1,77.3,126.2,116c2,1.9,4.1,3.7,7.1,6.3
		c0.8-2.2,1.6-3.5,1.6-4.7c0.1-8.4,0-16.8-0.1-25.2c-3.4-1.7-6.3-3-9.1-4.5c-5-2.7-7.6-6.9-7.4-12.7c0.2-5.6,0-11.3,0-16.9
		c0-17.7,0-35.4,0-53.1c0-5.5-1.2-11.6,3.5-16c5.4-5.1,12-7.9,19.5-8.3c7.6-0.3,15.3-0.9,22.9-1.2c36.6-1.8,73.2-3.5,109.8-5.2
		c3.6-0.2,7.2,0,10.6,0c3.5,6,0.4,12.4,3,18.7c1.9,0.2,4.2,0.8,6.5,0.8c8.9-0.2,17.7-0.6,26.6-0.9c2.7-0.1,5.5,0,8.9,0
		c0.4,3.1,0.8,5.3,0.9,7.6c0.1,1.9-0.3,3.9-0.5,6.4c-2.7,0.4-4.9,0.9-7.2,1c-55.9,2.3-111.8,4.6-167.7,6.8c-2.8,0.1-5.7,0.1-8.4,0.5
		c-3.3,0.5-3.2,2.9-2.7,5.9c9,2.3,18.2,0.5,27.4,0.5c9.7-0.1,19.3-0.9,29-1.2c9.3-0.3,18.5-0.4,27.8-0.7c9.7-0.3,19.3-0.8,29-1.2
		c9.2-0.4,18.4-0.7,27.2-1.1c3.3,4.7,2.2,9.3,2.2,13.6c0.1,35.4,0,70.8,0.1,106.1c0,3.8-0.7,7.8,1.6,12.5c7.1-4.1,13.6-7.8,20.8-12
		c3.1,1.8,6.4,3.8,10.6,6.3c-3.5,2.5-6,4.4-8.6,6.1c-6.8,4.3-13.7,8.4-20.5,12.7c-4.1,2.6-4.9,6-1.9,10.8c20-11.2,38.9-24,59.1-36
		c3.3,2.1,6.5,4.2,10.4,6.7c-2.5,1.9-3.9,3.2-5.6,4.2c-17.4,10.8-34.9,21.5-52.3,32.5c-4,2.5-7.8,3.7-13.1,1.4
		c-0.2,4.9-0.4,8.8-0.4,12.8c0,30.6,0,61.1,0,91.7c0,4.4-0.3,8.7-0.4,13.8c-2.9,0.3-5.1,0.8-7.4,0.7c-45.4-2.1-90.9-4.4-136.3-6.3
		c-5.9-0.2-9.6-2.8-13.5-6.6c-34.7-33.5-69.5-67-104.4-100.4c-10.5-10-21.1-19.8-31.7-29.7c-2-1.9-4.1-3.7-6.6-5.8
		c-1,1.4-2.2,2.2-2.2,3.1c-0.1,25.7-0.1,51.5-0.1,77.2c0,1.1,0.6,2.3,1.1,3.8c10.9,2.8,22.3,0.4,33.9,2.7c0.3,2.4,0.8,4.6,0.9,6.9
		c0.1,2.4-0.3,4.8-0.4,7.3c-4.2,3.1-8.5,1.6-13.2,1c-0.7-2.4-1.4-4.6-2.2-7.2c-1.8-0.2-3.7-0.7-5.7-0.7c-31.4-0.5-62.8-0.9-94.2-1.3
		c-15.7-0.2-31.4-0.4-47.1-0.4c-4.7,0-5.2,1.3-3.9,7.3c5.4,1.8,11.1,1,16.6,1.1c33.8,0.4,67.6,0.6,101.4,0.9c3.8,0,7.8-0.8,11.3,1.6
		c-0.7,3.6-3.1,2.8-4.7,2.8c-12.1,0-24.2-0.1-36.2-0.3c-13.3-0.1-26.6-0.3-39.8-0.4c-4.4,0-6.9,1.5-6.3,3.5c0.9,3,3.5,2.9,5.9,2.9
		c22.5,0.5,45.1,0.8,67.6,1.3c4.4,0.1,8.7,0.3,12.9,0.4c2.6,8.8,2.7,12.1,0.5,23.2c-2.5,0.2-5.3,0.6-8,0.5c-47-0.8-94-1.7-141.6-2.5
		c-0.2-4.3-0.6-7.8-0.6-11.4c-1-107.4-0.4-215.7,1.3-226.2c10-1.2,20.2-1.4,30.7,0.1c0.3,4.4,0.5,8.4,1,12.3
		c0.3,2.4,2.2,3.5,4.3,2.9c1.2-0.4,2.8-1.8,3-3c0.7-3.9,0.8-7.9,1.2-12.6c6.3-0.3,12.2-0.7,18.5-1c0.9-1.8,1.7-3.5,2.6-5.4
		C1997.4,1712.8,2005.5,1716.7,2012.4,1713.1z M2229.7,1848.2c1.6,1.4,2.5,2.6,3.3,2.6c1.5,0,3.1-0.6,4.4-1.4
		c17-9.9,33.9-19.8,50.8-29.8c1.2-0.7,2.9-1.6,2.1-3.7c-0.7-0.4-1.6-1.2-2-1C2267.9,1824.2,2249.7,1837.1,2229.7,1848.2z
		 M2446.9,1817c-1.6-0.9-2.6-1.8-3.5-1.8c-1.5,0.1-3.1,0.7-4.4,1.5c-17,10.5-34,21.1-50.9,31.8c-0.8,0.5-1.2,1.7-1.8,2.5
		c0.6,0.6,0.9,0.9,1.2,1.1c0.3,0.2,0.7,0.4,1.1,0.4c0.8,0,1.7,0.1,2.3-0.3c17.5-10.5,34.9-21.1,52.3-31.8
		C2444.4,1819.7,2445.4,1818.4,2446.9,1817z M2368.2,1817c-2.1-3.7-4.7-1.8-7-0.4c-16.8,10.1-33.5,20.3-50.2,30.6
		c-1.1,0.7-1.6,2.1-2.4,3.3c1,0.7,1.4,1.1,1.6,1.1c1.9-0.5,3.9-0.7,5.5-1.6C2337.5,1838.2,2362.1,1822.7,2368.2,1817z
		 M2269.8,1849.3c0.9,0.7,1.8,2,2.5,1.9c1.5-0.1,3.1-0.7,4.4-1.5c16.9-10,33.9-20.1,50.7-30.3c0.9-0.5,1.4-1.7,1.9-2.4
		c-0.7-0.8-1.3-1.9-1.7-1.9C2322.7,1815.8,2280,1840.9,2269.8,1849.3z M2407.4,1817.1c-3.2-3.3-5.6-1.4-7.9,0
		c-16,9.8-32.1,19.6-48.1,29.4c-1.6,1-2.8,2.4-4.3,3.7c3.3,3.1,5.6,1.4,8,0c16-9.8,32.1-19.5,48.1-29.4
		C2404.8,1819.9,2406,1818.4,2407.4,1817.1z M1968.8,1681.2c-0.3-2.4-0.2-4.4-0.8-6.2c-0.3-0.8-1.8-1.8-2.7-1.8
		c-1.4,0.1-3.8,0.9-3.9,1.5c-0.4,4.2-0.5,8.5-0.1,12.7c0.1,0.8,2.4,1.7,3.8,1.9c0.8,0.1,2.5-0.9,2.7-1.6
		C1968.4,1685.5,1968.5,1683.1,1968.8,1681.2z"/>
	<path d="M1269.3,1813.1c6.4,0.8,12,1.1,17.4,2.4c13.6,3.3,21.2,12.7,23.8,26c4.1,21.5-16.3,34.8-33.6,31.2c-4.8-1-9.2-2.8-13-6.1
		c-2.4-2.1-4.8-4.1-8.7-7.5c3,16.7,6.7,31.3,10.3,46.7c2.9-1.7,5.1-3.3,7.5-4.4c10.4-4.6,20.3-0.8,23.8,9
		c3.7,10.3-2.6,20.9-13.5,22.4c-3.5,0.5-7.1,0.1-10.7,0.1c-1.5,15.4,3.7,25.5,16.8,32c5.2,2.5,9.8,5.5,12.9,10.4
		c0.8,1.4,1.7,3.1,2.9,3.7c7.7,3.6,9.2,10.6,10.7,17.8c0.5,2.4,1.1,4.7,1.9,7c4.9,14.9-2.3,26.3-10.8,37.2c-1.4,1.8-4,2.6-6.1,3.7
		c-2.1,1.1-4.4,1.8-6.6,2.9c-0.7,0.3-1.1,1.1-2.2,2.3c-2.3,16.5,3.2,32.6,6.6,48.8c1.6,0.4,2.9,1.1,3.9,1c11.6-2.1,19,4.8,25.8,12.4
		c3.2,3.5,5.9,7.8,7.8,12.1c3.8,8.7,3.2,17.3-2.8,25c-2,2.5-4,5-6.3,7.9c1.6,2,2.9,3.9,4.5,5.6c14.8,16.9,16.8,35.8,8.6,56.2
		c-2.9,7.1-6.3,13.9-8.9,21.1c-2.2,6-3.8,12.3-5.5,18.5c-0.4,1.5-0.3,3.1-0.5,6c2.7-2,4.6-3.1,6.2-4.6c23.1-20.6,56.3-5.2,64.9,17.4
		c3,7.8,3.2,15.9-0.2,23.5c-8,18-22.2,28.2-41.5,31c-9.6,1.4-18.3-1.6-25.9-7.7c-2.1-1.7-4.1-3.5-6.4-5.5c-1.8,8.3-1.9,14.7,0.2,19
		c1,2.1,2.8,3.9,4.6,5.4c1.8,1.5,4.2,2.3,6.3,3.5c3.8,2.3,7.7,4.4,11.3,7c13.3,9.6,18.6,22.7,16.2,38.9c-0.5,3.5-1.3,7-2.1,11.4
		c3.8-1.6,6.5-3.1,9.4-3.8c10.6-2.8,18.4,1.6,21.2,12.2c1.3,5,2.4,10.1,1.2,15.5c-1.8,8.1-7.2,13.5-15.3,15.1
		c-8.5,1.6-16.5-1.8-20.7-9c-1.4-2.4-2.3-5.1-3.8-8.5c-4.1,3.8-5.1,9.1-8.4,12.8c-3.2,3.6-6.3,7.4-10.1,10.2
		c-4.2,3-9.2,4.9-14.6,7.7c-0.7,4.6-1.4,9.7-2.3,14.8c-2.7,16.8-7.8,32.8-17.1,47.3c-5.5,8.5-11.9,16.2-20.4,22
		c-13.3,9.1-27.5,11.2-42.4,5c-6.6-2.8-13.1-6.4-18.6-11c-16.9-14-30.3-31-41.2-50c-1-1.7-1.5-3.7-2.2-5.3c0.8-1.4,1.2-2.6,2-3.4
		c3.1-3.6,5.9-4.5,9.3-2.2c3.3,2.2,6.1,5.1,8.9,8c7.5,7.8,14.7,16,22.4,23.6c4.6,4.5,9.9,8.3,15.2,11.9c7,4.8,9.1,5,19.3,3.3
		c0.8-2.6-1.1-3.5-2.7-4.6c-16.4-11.4-30.3-25.3-41.8-41.4c-29.3-41-55.1-84-73.7-131.1c-1.5-3.7-2.8-7.6-3.6-11.5
		c-0.8-3.6,1.1-6.9,3.7-8.2c3.7-1.7,8.3-0.5,10.6,3c1.1,1.7,1.8,3.6,2.7,5.4c14.8,32.7,33.4,63.2,53.8,92.7c0.8,1.1,1.9,2,4,2.1
		c-0.6-1.4-1.1-2.8-1.7-4.1c-25.6-52.5-45.1-107.4-63.2-162.8c-3.1-9.5-6.1-19.1-9.5-28.6c-2.6-7.4-3.3-15-2.2-22.6
		c1-7.5,2.8-14.9,4.2-22.2c1.7-0.9,2.7-1.7,3.7-1.8c5.8-0.7,6.8-0.2,8.4,4.2c1.1,3,1.9,6.1,2.9,9.2c18.1,57.9,37,115.6,60.7,171.5
		c7.5,17.8,15.7,35.2,24.1,52.6c7.4,15.2,16.9,29.2,26.9,42.9c1.4,1.9,2.9,3.9,4.7,5.5c4.7,4.4,10.2,3.3,12.6-2.6
		c1.1-2.6,1.6-5.4,2.2-8.1c5.9-27.7,7.3-55.8,5.9-84c-1-20.1-2.4-40.1-3.7-60.2c-1.1-18.1-4.2-35.9-10.2-53.1
		c-2.3-6.6-3.5-13.4-2.6-20.2c3.4-26-1.1-51.3-5.2-76.7c-7.3-45.2-14.9-90.4-23-135.5c-12.6-70-27.7-139.5-43.8-208.8
		c-20.2-86.9-43.3-173-69.7-258.3c-18.4-59.3-41-116.7-67.8-172.6c-4.9-10.1-9.6-20.4-14.3-30.6c-5.9-12.9-15.5-22.4-27.3-29.8
		c-1-0.6-2.2-0.9-3.3-1.3c-0.3-0.1-0.8,0-1.2,0.1c-2.8,0.9-3,3.6-3.4,5.8c-2.2,11.4-5,22.8-6,34.4c-2.1,24.8-3,49.8-1.4,74.7
		c1.5,23.7,2.4,47.4,3.9,71.1c0.5,8,1.8,15.9,2.7,23.9c0.7,5.7-2.1,9.3-7.8,10c-9.9,1.2-16.3-3.3-17.6-13.6
		c-1.8-14.8-3.4-29.6-4.4-44.4c-2.3-32.1-4.2-64.2-6.2-96.9c-0.5,3.2-1,6-1.4,8.7c-0.5,2.8-1.1,5.5-1.4,8.3
		c-2.5,22.8-4.2,45.6-2.9,68.6c0.2,3.6,0.1,7.2-0.6,10.7c-0.5,2.2-2.2,4.3-5,4.5c-3.4,0.3-7.3-1.1-8.2-3.8
		c-1.5-4.5-3.1-9.2-3.4-13.9c-1.6-22.5-2.9-44.9-4.1-67.4c-1.3-24.1-0.9-48.2,4.1-72c2.3-11.1,5.7-21.8,11.3-31.6
		c2.2-3.8,4.6-7.6,7.4-11c11.5-14,26.3-17.6,43.4-12.8c2.7,0.8,5.3,1.9,7.9,3c3,1.3,5.7,2.3,9.2,1.4c8.6-2.1,14.8,2.2,19.4,9
		c10.3,15.3,20.8,30.6,28.4,47.6c3.3,7.3,6.7,14.5,10.3,22.3c3.1-0.6,5.8-1,8.4-1.6c10.3-2.5,19.1,0.4,26.6,7.5
		c13.2,12.5,15.5,30.9,5.7,44.9c-1.2,1.6-2.4,3.2-3.4,5c-2.4,4-3.3,8.2-1.6,12.7c1.6,4.1,3,8.3,4.8,12.3c8.1,17.8,19.9,33,33.9,46.5
		c2.9,2.8,5.9,5.4,8.9,8.1c12.1,11,16.4,24.4,12.5,40.4c-0.9,3.5-1.6,7.1-2.2,10.6c-3,19.4,6.9,38.3,24.6,46.8
		c3.6,1.7,7.4,3.2,10.7,5.4c17.5,11.5,22,31.5,11.5,49.6c-1.8,3.1-4.1,6-6.1,9c-3.9,5.7-3.5,11.3,0.8,16.7c2.3,2.8,4.8,5.4,7.2,8.1
		c11.1,12.2,22.3,24.3,33.3,36.6c6.7,7.5,12.2,16,15.9,25.4c7.2,18.2,6.6,36.1-2.3,53.6C1273,1805.9,1271.2,1809.4,1269.3,1813.1z"
		/>
	<path d="M2483.2,2295.7c-3.1-22.7,14.9-41.9,37.4-45.2c10-1.5,19.1,1.3,27.2,7.4c2.8,2.1,5.3,4.4,9.3,7.6
		c-1.2-10.1-3.7-18-6.7-25.9c-2.1-5.6-4.5-11.2-7.1-16.6c-10.2-20.8-8.6-40.4,5.9-58.6c1.2-1.6,2.4-3.2,3.5-4.9
		c0.2-0.3,0.3-0.7,0.7-1.8c-1.8-2.9-3.9-6.2-5.8-9.7c-6.4-11.4-5.4-22.2,2.7-32.5c8.8-11.3,16.7-15.2,32.8-15.8
		c0.3-1.7,0.9-3.5,1.1-5.4c0.2-1.9,0-3.9,0-6.5c-11-2.3-20.1-6.8-20.4-19.8c-0.2-9.8,3.8-14.2,19.6-21.7
		c-13.2-5.3-17.1-17.2-20.8-28.9c-0.7-2.2-0.7-4.9-0.2-7.2c1.7-7.4,3.8-14.8,5.8-22.1c0.3-1.1,0.7-2.7,1.5-3.2
		c6.7-4.4,10.3-12.2,17.7-15.7c14.6-6.9,20.6-19.6,22.9-34.6c0.1-0.7-0.5-1.4-1-2.6c-4.5,0.4-9,2.1-13.9,0.2
		c-11.1-4.3-15.2-17.2-8.1-26.7c2.5-3.4,5.9-5.3,10.2-5.7c5.3-0.5,8.7,0.3,17.6,4.7c3.3-3.8,2.5-9,4-13.4c1.5-4.5,2.2-9.4,3.3-14.1
		c1-4.6,2-9.3,3.4-15.9c-3.8,2.9-5.9,4.4-8,6c-12.4,9.4-25.3,6.9-35.1,1.2c-7-4.1-10.8-10.5-11.4-18.8c-1.1-16,6.7-28.5,21.9-33.4
		c5.9-1.9,12.3-2.5,19.1-3.7c-1.6-3-3.1-5.8-4.5-8.6c-10.4-20-10.3-40.1-0.6-60.2c3.9-8,9.1-15.2,15-21.8
		c11.1-12.2,22.2-24.4,33.4-36.5c11.6-12.6,11.8-14.5,2.3-29c-1.8-2.7-3.4-5.5-4.6-8.4c-5.5-14-3.5-26.8,6.7-38
		c5-5.4,11.1-9.2,17.9-12c9.7-4.1,16.6-11.3,21.4-20.4c3.9-7.2,5.7-14.8,3.6-23.2c-1.6-6.2-2.6-12.6-3.1-19
		c-1.2-13.7,3.6-25.2,13.5-34.7c4.6-4.5,9.5-8.7,13.9-13.4c14.4-14.9,25.8-31.8,33.1-51.3c2.1-5.8,2.7-10.7-1.8-15.6
		c-1.6-1.7-2.8-4-3.9-6.1c-10.2-18.9-3-40.5,16.5-49.7c1.4-0.7,2.9-1.3,4.1-1.8c1.9-3.1-1-4.7-1.7-6.8c-3-9-0.9-17.3,5.8-21.5
		c7.4-4.6,16.1-3.3,23,3.4c1.1,1.1,2,2.3,2.9,3.3c3.6-0.2,3.9-3.2,4.8-5.1c7.1-14.5,15.8-28,25.6-40.8c1.7-2.2,3.4-4.5,5.4-6.4
		c3.1-2.9,7.1-4.9,11-3.3c5.2,2,9.3,0,13.7-1.8c5.6-2.4,11.4-3.7,17.5-4c11.6-0.5,21.2,3.7,29.2,11.9c6.2,6.5,10.5,14.2,14.1,22.3
		c5.1,11.5,7.7,23.7,9.4,36c2.5,18.8,3.1,37.6,1.9,56.6c-1.4,22.9-2.5,45.7-4,68.6c-0.3,4.3-1.4,8.7-2.7,12.9
		c-1.2,3.8-5.2,6.6-7.9,6.4c-3.9-0.2-7.5-4.5-7.8-9.4c-0.1-1.2,0-2.4,0.2-3.6c2.6-26.2,0.4-52.2-2.9-78.1c-0.4-3.1-0.7-6.3-2.4-9.4
		c-0.3,3.3-0.7,6.6-0.8,9.9c-0.8,39.4-3.9,78.7-8.7,117.8c-1.2,10-1.9,20-3,30c-0.7,5.6-1.5,11.2-2.9,16.6c-1.5,5.8-7.3,7.8-12.4,5
		c-5.7-3.2-9.1-8-9.2-14.6c-0.1-5.6,0.2-11.3,0.8-16.8c6.5-52.8,8.5-105.7,6.8-158.9c-0.4-14.1-2.4-28-5.2-41.8
		c-0.9-4.3-1.8-8.5-3.6-11.7c-3.6-1.7-5.5,0-7.5,1.3c-13,8.7-22.5,20.5-29.3,34.5c-15.1,31.1-29,62.7-41.8,94.8
		c-29.9,75.1-53.6,152.3-74.3,230.4c-25.5,96.7-48,194.2-67.5,292.3c-12.7,63.8-23.9,128-33.8,192.3c-1.9,12.3-3.6,24.7-4.6,37.1
		c-0.6,8-0.3,16.1,0.5,24c1.2,11.8,0.2,23.2-3.7,34.4c-4.5,13-6.8,26.4-7.6,40.1c-1,17.3-2.4,34.5-3.4,51.7
		c-1.8,30.2-1.5,60.3,4,90.1c0.9,4.7,1.7,9.5,3.1,14.1c2.2,6.9,7.9,8.2,12.9,3.2c2.3-2.3,4.1-4.9,6.1-7.5
		c12.1-16.1,22.3-33.5,31-51.6c13.4-27.9,25.2-56.5,36-85.5c4.2-11.4,13.4-15.2,23.9-9.7c4.4,2.3,6.4,6.6,4.3,11.1
		c-14.2,31.9-25,65.3-41,96.4c-0.1,0.4-0.4,0.7-0.4,1.1c0,0.6,0.1,1.2,0.1,1.8c0.3-0.1,0.7-0.2,0.9-0.4c0.2-0.3,0.4-0.8,0.2-1
		c-0.3-0.6-0.8-1.1-1.2-1.7c1.4-0.3,3.4,0,4.1-0.9c2.6-3,4.9-6.4,7.1-9.7c15.7-23.4,29.7-47.8,42.2-73c2.3-4.7,4.7-9.3,7.3-13.8
		c1.8-3.1,4.9-3.9,8.4-2.9c3.2,1,5.5,3.8,5.1,7.2c-0.3,2.7-1,5.5-2.1,8.1c-21.5,52.8-48.6,102.3-84.8,146.6
		c-9.7,11.9-19.9,23.2-32.9,31.6c-0.9,0.6-1.5,1.7-2.2,2.5c0.9,2.8,3.3,2.6,5,2.4c3.5-0.3,7.2-0.8,10.5-2.2c3.3-1.4,6.2-3.7,9.1-5.9
		c11.8-9.1,22.5-19.4,31.7-31.3c3.5-4.6,7.5-8.3,13.4-9.7c2.5-0.6,4.7-0.5,6.4,1.8c1.7,2.4,3,4.8,1.5,7.8c-0.2,0.4-0.4,0.7-0.7,1
		c-11,15.8-21.6,32-35.8,45.4c-7.4,7-15.5,12.7-24.7,17.1c-13,6.3-25.7,5.4-38.1-1.4c-8.2-4.5-14.9-10.9-20.7-18.2
		c-12.1-15.2-18.5-32.8-21.9-51.6c-0.9-4.7-1.6-9.5-2.3-14.3c-0.6-3.5-2.3-6.1-6-6.6c-7.9-1.2-12.7-6.5-17-12.5
		c-3.3-4.6-6.3-9.3-10-14.7c-1.6,2.9-2.9,5.1-4.1,7.4c-6.3,11.7-21.5,12.3-30.2,5.2c-2.1-1.7-4.1-4.1-5-6.6
		c-3.1-8.8-1.9-17.6,2.4-25.6c3.5-6.5,10-7.7,16.8-6.6c3.4,0.6,6.7,2.2,10.8,3.5c-0.6-3.9-1.2-7.4-1.6-10.8
		c-2.4-18.3,4.9-32.1,20.3-41.8c3-1.9,6.4-3.4,9.6-5c5.8-2.9,9.3-7.5,9.9-14.1c0.4-4,0.6-7.9,0.9-11.7c-3.1-1.3-4.3,0.6-5.6,2
		c-11.8,11.4-25.5,13-40.2,7.4c-13.7-5.2-24-14.5-30-28.1c-0.8-1.8-1.5-3.7-2.3-5.5L2483.2,2295.7z"/>
	<path d="M1584,1784.2c2.8,13.4,2.5,27,1.7,40.4c-1.2,18.6,7.7,30.3,22.8,38.8c3.1,1.8,6.3,3.7,9.8,4.6c5,1.3,8.2,4.5,11.4,8.1
		l-0.3-0.4c0.3,2.1,0.3,4.3,2.8,5.3c0,0-0.3-0.5-0.3-0.5c0.9,1.8,1.8,3.5,2.8,5.3c0,0-0.3-0.5-0.3-0.5c0.9,1.8,1.8,3.5,2.8,5.3
		l-0.3-0.5c0.9,1.8,1.8,3.5,2.8,5.3l-0.3-0.5c0.9,1.8,1.8,3.6,2.7,5.3l-0.3-0.5c0.9,1.8,1.8,3.6,2.7,5.3l-0.3-0.5
		c0.9,1.8,1.8,3.6,2.7,5.3c0,0-0.3-0.5-0.3-0.5c0.9,1.8,1.8,3.5,2.7,5.3c0,0-0.3-0.5-0.3-0.5c0.9,1.8,1.8,3.6,2.7,5.3l-0.3-0.5
		c5.1,10.2,10.2,20.5,15.4,30.7c0.3,0.5,1.3,0.7,1.9,1.1l-0.3-0.5c0,2.2-0.1,4.6,2.7,5.3l-0.3-0.6c0,2,0,4,0,6.1
		c-1.4,0.5-2.4,1.2-3.5,1.3c-47.6,2.1-94-3.5-138.5-21.2c-20.7-8.2-40-18.9-56.7-33.7c-1.5-1.3-3-2.7-4.4-4.1
		c-11.5-11.2-11.5-11.2-11.5-27.2c0-38.6,0-77.2,0-115.8c0-3.8,0.4-7.7-0.6-11.3c-4-0.1-4.6,2.5-5.5,4.6c-4,9.8-6.4,19.8-6.4,30.5
		c0.1,22.9,0,45.8,0,68.7c0,4,0,8,0,12c-3.2-0.1-3.7-2.2-4.3-4c-3-9.2-4.8-18.7-4.8-28.4c0-14.5,0-28.9,0-43.4
		c0-19.1,5.7-36.4,16.5-52c11.6-16.9,26.5-30.2,43.8-40.8c20-12.4,41.8-20.4,64.5-26.5c19.5-5.2,39.3-8.2,59.4-10.3
		c2.3-0.2,4.7,0,6.6,0c0.8,1.4,1.5,2.1,1.5,2.8c0.2,10.8,0.3,21.7,0.4,32.5c0,4.6-2.8,6.3-8,6.3c2.8,0.4,4.7,0.7,6.9,1
		c2,4.5,1,8.9,1.2,13.2c0.2,4,0,8,1.4,12c0.2-2.1,0.7-4.2,0.7-6.3c0.1-30.2,0.1-60.3,0.1-90.5c0-4.4,0.2-8.7,0.3-12.1
		c0.9-1.2,1.1-1.6,1.4-1.9c0.3-0.2,0.8-0.3,1.1-0.3c19.6,1.8,39.2,3.6,58.8,5.5c1.1,0.1,2.2,0.9,3.2,1.3
		c1.6,9.5,2.5,153.2,1.1,183.3c-0.1,1.9-0.6,3.8-1.1,6.5c-21.3-1.5-42.1-3-63.6-4.5c-0.5-2.8-1.3-5.4-1.3-8
		c-0.1-17.7-0.1-35.4-0.1-53.1c0-2.4,0-4.7,0-7.5c-5,0-9.4,0-14.3,0c4,0.5,7.4,0.9,11.4,1.3c0.1,2.7,0.3,4.9,0.4,7.7
		c-2.7,1.3-5.2,2.4-7.6,3.6c-5.4,2.7-10.9,5.2-16,8.3c-7,4.3-12.4,10.1-15.4,18c-0.8,2.1-2.6,3.9-3.9,5.8c-0.4-2.2-0.9-4.5-1.3-6.7
		c-1.2-0.9-2.4-1.9-3.7-2.8c-0.8-1.6-1.7-3.2-2.5-4.7c-0.7-1.7-1.5-3.4-2.2-5c-0.8-1.6-1.5-3.3-2.3-4.9c-1-1.4-2-2.8-3-4.3
		c-0.1-2.5-0.3-4.9-0.4-7.3c-2.7-0.7-2.7-2.7-2.6-4.9c-1.4-0.7-2.9-1.4-4.3-2.2c0.2-2.1,0.7-4.3-2.1-5.1c0-2.1,0-4.2-2.9-4.4
		c-0.1-2.4-0.3-4.8-0.5-7.2c-1.5-0.8-2.9-1.6-4.4-2.4c1.3-3.2-1-3.7-3.2-4.3c1.2-3.2,1.2-3.2-0.3-4.5c0.1,1.5,0.3,3,0.4,4.4
		c1.1,1.4,2.1,2.8,3.2,4.2c0.8,1.9,2.1,3.1,4.3,2.6c-1.3,2.5-1.2,4.8,0.7,6.9c1,1.5,2,2.9,2.9,4.4c0.7,1.7,1.4,3.4,2.1,5.1
		c0.4,2.5,2.1,2.6,4.1,2.4c-1.4,2.8,0.2,4.1,2.6,4.9c-0.8,2.5-2,5,0.7,7.1c0.6,1.7,0.4,4,3.1,4.2c-0.1,2-0.8,4.4,2.3,4.9
		c0,2-0.5,4.2,2.2,5c0.3,1.9-0.3,4.2,2.5,4.7c-0.3,2.5,1.8,2.5,3.3,3.1C1583.1,1779.9,1580.1,1782.9,1584,1784.2z M1654.3,1741.1
		c0-2.3-0.1-4.6-0.1-6.9c0-1.5,0.1-3,0.2-4.5c-4.7,0-9.5,0-14.2,0c0,0.3,0,0.6,0,1c4.7-0.4,9.4-0.7,14.1-1c0.1,3.8,0.2,7.6,0.3,11.4
		c-0.4,0.1-0.7,0.3-1.1,0.4c-0.4,0.1-0.7,0.2-1.1,0.2c0-0.3,0.1-0.6,0.1-0.8C1653.1,1740.9,1653.7,1741,1654.3,1741.1z
		 M1614.7,1727.9c0-0.1,0-0.2,0-0.3c-3.4,0-6.8,0-10.2,0c0,0.1,0,0.2,0,0.3C1608,1727.9,1611.3,1727.9,1614.7,1727.9z
		 M1589.4,1706.1c-0.1-0.2-0.2-0.5-0.2-0.5c-0.7,0-1.3,0.1-2,0.2c0.1,0.2,0.2,0.5,0.2,0.5
		C1588.1,1706.2,1588.8,1706.2,1589.4,1706.1z M1573.8,1707.9c-0.3,0.1-0.6,0.1-1,0.2c0.4,0.2,0.8,0.5,1.3,0.6
		c0.3,0.1,0.6-0.1,1-0.2C1574.6,1708.3,1574.2,1708.1,1573.8,1707.9z M1558.2,1710.9c-0.1-0.2-0.2-0.6-0.2-0.5
		c-0.7,0-1.4,0.1-2.1,0.2c0.1,0.2,0.2,0.5,0.2,0.5C1556.9,1711.1,1557.6,1711,1558.2,1710.9z M1605.2,1703.6
		c-0.3-0.2-0.5-0.4-0.8-0.5c-0.3,0-0.6,0.1-1,0.2c0.3,0.2,0.5,0.4,0.8,0.5C1604.5,1703.9,1604.8,1703.7,1605.2,1703.6z
		 M1591.2,1737.7c0.4-0.1,0.8-0.2,1.1-0.3c-0.3-0.2-0.6-0.5-0.9-0.6c-0.3-0.1-0.7,0.1-1.1,0.2
		C1590.6,1737.3,1590.9,1737.5,1591.2,1737.7z"/>
	<path d="M1629.6,1876.1c1-1,2.1-2.9,3.1-2.8c4,0.2,8,1.1,12,1.6c19.9,2.6,39.4,0.5,58.2-6.5c8.3-3.1,16-7.4,22.8-13.4
		c7.3-6.4,11.6-14.3,11.6-24.2c-0.1-14.9-0.1-29.7-0.5-44.6c-0.1-3.2,0.6-5.4,2.9-7.3c-1.7-3.7-4.4-4.1-7.7-2.2
		c-1.4,0.8-2.8,1.6-4.2,2.5c-3.8,2.5-7.6,2.1-11.3-0.3c-2-1.3-4.1-2.4-6.5-3.8c-3.1,1.5-6.3,2.9-9.3,4.3c-0.7-0.6-1.2-1.1-1.2-1.1
		c1.5-1.8,3.1-3.5,4.9-5.5c-1.6-1.9-3.3-3.9-5.4-6.3c4.9-0.8,7,3.6,12,3.3c2.6-1.5,6.3-3.7,10.3-6c-5.9-7.5-14.9-8.6-22.8-13.6
		c-0.3-3-0.9-6.5-0.8-10c0.5-16.8-1.3-33.7,1.1-50.5c0.7-5-0.9-10.3-1.1-15.4c-0.1-3.9,0.4-7.9,0.7-12.5c3.6,0,6.4-0.4,9,0.1
		c16.2,3.1,32.4,6.3,48.5,9.7c3.8,0.8,7.4,2.9,11,4.4c1.1,0.5,2.1,1.3,3.2,1.4c15.6,1.7,29,9.2,42.7,15.8
		c14.2,6.8,27.2,15.6,39.2,25.9c8.6,7.4,16.2,15.6,22.5,25c8.9,13.4,14.1,27.9,14.1,44.1c0,14.5-0.1,28.9,0,43.4
		c0.1,19.3-7.5,35.8-18.2,50.8c-10.2,2.2-48.5,2.2-59.6,0c-0.4-4.4-0.9-8.9-1.3-13.5c-2.2,5.1-2.6,10.1-0.3,15.5
		c18.5,1.6,37-0.6,55.1,0.9c1.8,2.6,0,4-1.2,5.4c-11.4,12.7-25,22.7-39.7,31.2c-18.2,10.4-37.5,18.4-57.5,24.6
		c-29,9-58.7,13.6-89.4,15.6c-2-2.2-4-4.6-6.1-6.9c0,0,0.3,0.6,0.3,0.6c-0.9-1.8-1.8-3.6-2.7-5.3c0,0,0.3,0.5,0.3,0.5
		c-5.1-10.2-10.2-20.5-15.4-30.7c-0.3-0.6-1.3-0.7-1.9-1.1c0,0,0.3,0.5,0.3,0.5c-0.1-2.2,0.1-4.5-2.7-5.3c0,0,0.3,0.5,0.3,0.5
		c-0.1-2.2,0.1-4.5-2.7-5.3c0,0,0.3,0.5,0.3,0.5c-0.2-2.1,0-4.5-2.7-5.3c0,0,0.3,0.5,0.3,0.5c-0.2-2.1-0.1-4.5-2.7-5.3
		c0,0,0.3,0.5,0.3,0.5c-0.2-2.1-0.1-4.4-2.7-5.3c0,0,0.3,0.5,0.3,0.5c-0.3-2.1-0.1-4.4-2.8-5.3c0,0,0.3,0.5,0.3,0.5
		c-0.3-2.1-0.2-4.4-2.8-5.3c0,0,0.3,0.5,0.3,0.5c-0.3-2.1-0.3-4.3-2.8-5.3c0,0,0.3,0.5,0.3,0.5c-0.3-2.1-0.3-4.3-2.8-5.3
		C1629.3,1875.8,1629.6,1876.1,1629.6,1876.1z M1748,1767.4c-2.6,1.7-5.1,3.3-8.6,5.6c2.9,1.9,4.7,3.2,6.7,4.2
		c1,0.5,2.5,0.5,3.5,0.1c1.8-0.7,3.5-1.8,5.1-3c0.4-0.3,0.3-1.3,0.6-2.5C1753.1,1770.5,1750.8,1769.1,1748,1767.4z M1806.4,1773.8
		c-6.4-7.7-9.2-7.7-14.4,0.2C1796.8,1779.1,1801.6,1778.6,1806.4,1773.8z M1781.4,1773.5c-8.5-7.1-9.3-7.1-15.1,0.3
		C1773.6,1778.4,1773.6,1778.4,1781.4,1773.5z M1722.1,1767.2c-2.6,1.8-5.1,3.5-7.8,5.4c8,6,8,6,15.3,0.6c-0.3-0.7-0.5-1.7-1-2.1
		C1726.7,1769.8,1724.6,1768.7,1722.1,1767.2z M1780.6,1765.7c5.6,5.8,7.1,5.8,10.8,0C1787.8,1765.7,1784.4,1765.7,1780.6,1765.7z
		 M1824,1768.4c-3.1,1.9-5.2,3.2-7.5,4.7c2.6,2.3,4.2,4.8,8.1,2.7C1824.4,1773.9,1824.2,1771.8,1824,1768.4z M1727.1,1765.8
		c4.4,2.3,6.4,4,8.2,4c1.9-0.1,3.8-1.9,7.4-4C1737,1765.8,1733.5,1765.8,1727.1,1765.8z M1766.3,1765.8c-4.1,0-7.7,0-11.8,0
		C1760.9,1771.3,1760.9,1771.3,1766.3,1765.8z M1817.9,1766c-4.9,0-8.2,0-12.2,0C1811.8,1771,1811.8,1771,1817.9,1766z
		 M1807.3,1778.9c3.5,1.9,6.2,2.1,9.4-0.4C1813.5,1775.5,1810.9,1774.7,1807.3,1778.9z M1755.9,1779.6c3.4,0.5,6.3,2.2,9.1-0.7
		C1760.4,1775.1,1760.4,1775.1,1755.9,1779.6z M1782.5,1779c4.1,1.1,4.1,1.1,7.7-0.7C1785.8,1775.5,1785.8,1775.5,1782.5,1779z
		 M1741.3,1682c0-0.2,0-0.5-0.1-0.5c-0.3-0.1-0.7-0.1-1.1,0c-0.3,0.1-0.6,0.3-0.9,0.4C1740,1681.9,1740.7,1682,1741.3,1682z
		 M1724.8,1684.2c0.7-0.1,1.5-0.2,2.2-0.3C1726.3,1684,1725.5,1684.1,1724.8,1684.2z M1711.7,1686.9c-1-0.3-1.4-0.4-1.7-0.5
		c0,0.2,0,0.5,0.1,0.5C1710.3,1686.9,1710.6,1686.9,1711.7,1686.9z M1756.3,1679.1c-0.3,0.1-0.6,0.2-0.9,0.3
		c0.3,0.1,0.6,0.3,0.9,0.3c0.3,0,0.6-0.2,0.9-0.3C1756.9,1679.3,1756.6,1679.2,1756.3,1679.1z"/>
	<path d="M2735.2,1650.8c3.4-0.6,6.1-0.3,7.1-1.4c4-4.8,9.6-2.7,14.4-3.9c2.5-0.7,5.8,1.7,9.6,2.9c2-1.3,4.7-3,7.7-4.9
		c2.4,1.2,4.8,2.4,8,4c-2.2,2.9-4.1,5.3-6.2,8.1c1.7,1.9,3.6,3.9,5.8,6.3c-1.7,2.9-4.3,4.5-7.8,6.2c-2.4-1.3-5.1-2.7-8.3-4.4
		c-4.1,4.5-9.5,4.8-15.1,5.6c-3.8,0.5-6-1.9-8.9-2.9c-2.3-0.8-5.2,1.7-4.5,4c0.8,2.7,1.9,5.3,2.9,7.9c5.9,15.4,12.2,30.6,17.6,46.2
		c5,14.3,11.1,28.2,16.2,42.5c5,14,10.2,27.9,15.4,41.9c5.3,14.3,10.5,28.7,15.7,43c5.1,14,10,28,15.1,42
		c4.6,12.7,2.2,13.7,19.6,13.7c7.2,0,14.5,0.2,21.7,0.6c2.3,0.1,4.6,0.9,7.2,1.5c0.3,3.1,0.8,5.8,0.8,8.6c0,4.8-0.2,9.5-0.3,15
		c-5.3,0.9-9.9,0.2-14.6-1c3.6-0.3,7.1-0.5,11.5-0.9c0.3-3.2,0.8-6.3,0.8-9.3c0.1-3.2-0.3-6.3-0.5-9.6c-6.6-4.2-13.6-2.2-20.2-2.5
		c-6.3-0.3-12.8-1.5-19,0.3c-0.9,7.2,2.3,12.7,6,18.7c2.7,0.4,5.8,0.9,9.9,1.5c-3.2,0.7-5.5,1.2-7.8,1.8c-1.1,6.8,1.9,12.3,4.2,18.2
		c5.4,13.8,9.9,28,14.7,42.1c1.6,4.6,3.2,9.1,4.6,13.7c0.5,1.8,0.3,3.7,0.6,6.5c-51.9-5.1-103-10.1-153.9-15.1
		c-5.7-7.7-5.5-17.3-11.4-24.7c-4.5,4.1-8.6,7.8-13.3,12.2c-4.6-4.9-8.9-9.5-13.4-14.2c-2.6,1.5-5,2.8-8.5,4.8
		c5.1-28.4,11-55.3,16.9-82.2c6-27.5,12.2-54.9,18.9-82.2c6.6-26.8,11.3-54.2,20.9-80.2C2719.2,1703.6,2728.8,1677.8,2735.2,1650.8z
		 M2814.6,1918.7c0.1-0.2,0.2-0.5,0.2-0.7c-6.8,0-13.6,0-20.4,0c0,0.2,0,0.5,0,0.7C2801.1,1918.7,2807.8,1918.7,2814.6,1918.7z
		 M2788.3,1940.4c0-0.3,0-0.5,0-0.8c-1.6-0.1-3.2-0.5-4.7-0.4c-5.3,0.5-6.8-2.6-7-7.1c0-0.2-0.9-0.3-2-0.6c0.1,3.1,0.3,5.7,0.4,8.9
		C2779.7,1940.4,2784,1940.4,2788.3,1940.4z M2804.1,1941.8c6.2,1.5,12.5,2,18.8,0C2816.6,1941.8,2810.4,1941.8,2804.1,1941.8z
		 M2734.1,1732.8c0-0.2,0-0.5,0-0.7c-2.1,0-4.3,0-6.4,0c0,0.2,0,0.5,0,0.7C2729.8,1732.8,2732,1732.8,2734.1,1732.8z M2751.4,1735.3
		c0-0.2,0-0.5,0-0.7c-2.1,0-4.3,0-6.4,0c0,0.2,0,0.5,0,0.7C2747.1,1735.3,2749.2,1735.3,2751.4,1735.3z M2776.5,1917.8
		c-0.4,0-0.8,0-1.2,0c0,2.1,0,4.2,0,6.2c0.4,0,0.8,0,1.2,0C2776.5,1922,2776.5,1919.9,2776.5,1917.8z M2754.8,1658.2
		c-0.4-1-0.7-2.2-0.8-2.2c-1,0.1-1.9,0.5-2.8,0.8c0.2,0.6,0.4,1.7,0.7,1.7C2752.8,1658.6,2753.7,1658.4,2754.8,1658.2z"/>
	<path d="M1319,1638c55.9,3.3,110.9,6.5,165.9,9.8c1.1,0.1,2.1,0.9,3.8,1.7c-1.6,2.1-2.7,4.1-4.3,5.8
		c-11.5,12.9-23.1,25.7-34.7,38.6c-0.5,0.6-1.1,1.2-1.6,1.8c-6.6,6.9-72.3,83.2-79.4,92.3c-0.9,1.2-1.5,2.6-2.7,4.7
		c4.5,1.7,8.5,1,12.3,1.1c4.4,0.1,8.9,0.1,13.3,0.1c4,0,8.1-0.2,12.1,0.1c3.9,0.2,8.1-0.9,12.1,1.6c0.1,1.3,0.1,2.8,0.3,5.1
		c-3.4,0.3-6.5,0.9-9.6,0.9c-12.9,0.1-25.8-0.1-38.6-0.1c-2.8,0-5.7-0.1-8.4,0.2c-2.8,0.3-5.1,1.5-6.8,4.2
		c-2.5,4.1-5.4,7.9-8.5,11.6c-2.8,3.3-3.9,6.8-3.9,11c0.1,38.6,0,77.2,0,116.3c2.8,1.4,5.6,2.8,8.7,4.4c-2.9,5-6.6,9.6-8.1,14.7
		c-1.5,5.2-0.8,11.1-1.1,17.2c-7.3,1.9-14.4,1.8-21.9,2c-6.3-11.5-16.6-18.2-28-23.5c-5.5-2.6-9-6.7-10.6-12.4
		c-0.7-2.3-1.1-4.7-1.8-7.6c3.7-1,7.1-1.7,10.5-2.8c15.5-5.3,20.1-24.5,8.9-36.3c-4.5-4.7-10.1-6.4-16.4-6
		c-3.6,0.2-7.1,0.9-11.3,1.5c-2.3-6.8-4.7-13.4-4.4-21.7c3.8,1.2,6.7,2.2,9.7,3c9,2.2,17.7,1,25.6-3.7c10.9-6.5,16.6-16,16-29
		c-0.8-15.8-11.3-29.3-26.5-33.8c-3.1-0.9-6.2-1.6-10-2.5c1.5-5,2.9-9.7,4.5-14.4c3.7-11.4,4-22.9,1.8-34.5
		c-0.6-3.4-1.6-6.7-0.8-10.2c-6.9-6.8-9.1-16.7-15.6-23.9c-6.7-7.5-13.2-15.2-19.9-22.7c-6.5-7.2-13.1-14.1-19.7-21.2
		c-1.6-1.8-3.3-3.6-4.8-5.4c-2.8-3.5-3.3-7.3-0.8-11.1c1.5-2.3,3.5-4.2,5.9-7c11.4,14.8,22.3,29.1,33.5,43.7
		c6.4-4.3,9.8-10.4,14.3-15.4c4.8-5.4,9.3-11.1,14-16.6c4.4-5.2,8.9-10.4,13.3-15.6C1309.6,1648.8,1314.1,1643.6,1319,1638z
		 M1333.1,1732.7c-0.4,0.5-0.7,1-1.2,1.4c-0.4,0.4-0.8,0.6-1.3,0.9c0.3,0.1,0.7,0.3,0.9,0.2c0.3-0.1,0.5-0.4,0.7-0.7
		c0.3-0.5,0.5-1.1,0.8-1.6c1.1,0,2.1,0,3.2-0.1c0.3,0,0.7-0.4,1-0.6c-0.4,0.1-0.7,0.3-1.1,0.4
		C1335.2,1732.6,1334.1,1732.6,1333.1,1732.7z M1433.3,1703.2c-0.6,0.1-1.3,0.1-1.9,0.2c0.3,0.2,0.5,0.5,0.8,0.6
		c0.3,0.1,0.7,0,1-0.1C1433.3,1703.8,1433.3,1703.4,1433.3,1703.2z M1377.1,1721c0.3-0.1,0.6-0.3,1-0.4c-0.3-0.2-0.6-0.7-0.8-0.6
		c-0.4,0.2-0.8,0.5-1.2,0.8C1376.4,1720.8,1376.7,1720.9,1377.1,1721z M1409.5,1710.9c-0.2-0.2-0.4-0.5-0.6-0.6
		c-0.3-0.1-0.7,0-1.1,0c0.2,0.3,0.4,0.8,0.7,1C1408.7,1711.4,1409.1,1711,1409.5,1710.9z M1360.8,1725.4c0.3,0.1,0.6,0.2,0.9,0.3
		c-0.2-0.3-0.4-0.6-0.6-0.9C1361,1725,1360.9,1725.2,1360.8,1725.4z M1301.4,1744.1c-0.3,0.1-0.6,0.2-0.9,0.3
		c0.4,0.1,0.8,0.3,1.1,0.4C1301.6,1744.5,1301.5,1744.3,1301.4,1744.1z M1368.2,1723c0.3,0.1,0.6,0.2,0.9,0.2c0.1,0,0.2-0.4,0.3-0.6
		c-0.3-0.1-0.6-0.2-0.8-0.2C1368.4,1722.4,1368.3,1722.8,1368.2,1723z M1384.6,1718.1c0.3,0.1,0.5,0.2,0.8,0.3
		c-0.2-0.3-0.3-0.6-0.5-0.9C1384.8,1717.7,1384.7,1717.9,1384.6,1718.1z M1393,1715.1c-0.3,0.1-0.6,0.1-0.9,0.2
		c0.1,0.2,0.2,0.6,0.2,0.6c0.3,0,0.6-0.1,0.9-0.2C1393.2,1715.5,1393.1,1715.3,1393,1715.1z M1400.1,1713.6c0.3-0.1,0.6-0.2,0.9-0.3
		c-0.5-0.1-1-0.1-1.6-0.2C1399.6,1713.2,1399.8,1713.4,1400.1,1713.6z M1417.2,1708.5c-0.1-0.2-0.2-0.6-0.3-0.6
		c-0.3,0-0.6,0.1-0.8,0.2c0.1,0.2,0.2,0.6,0.3,0.6C1416.6,1708.7,1416.9,1708.6,1417.2,1708.5z M1423.6,1706.1
		c0.3,0.1,0.6,0.2,0.8,0.3c-0.2-0.3-0.4-0.6-0.5-0.9C1423.8,1705.7,1423.7,1705.9,1423.6,1706.1z M1308.7,1741.7
		c-0.3,0.1-0.6,0.2-0.9,0.3c0.4,0.1,0.8,0.3,1.1,0.4C1308.9,1742.1,1308.8,1741.9,1308.7,1741.7z M1316,1739.2
		c-0.3,0.1-0.6,0.2-0.9,0.3c0.4,0.1,0.8,0.3,1.2,0.4C1316.2,1739.7,1316.1,1739.5,1316,1739.2z M1323.9,1737.4
		c-0.2-0.2-0.4-0.5-0.7-0.5c-0.3,0-0.6,0.2-0.9,0.3c0.2,0.2,0.4,0.5,0.7,0.5C1323.3,1737.7,1323.6,1737.5,1323.9,1737.4z
		 M1354.5,1727.4c-0.3-0.1-0.6-0.2-0.9-0.2c-0.1,0-0.2,0.4-0.3,0.6c0.3,0.1,0.6,0.2,0.9,0.2
		C1354.3,1728,1354.4,1727.6,1354.5,1727.4z M1294.3,1746.7c-0.3-0.1-0.6-0.2-0.9-0.2c-0.1,0-0.2,0.4-0.3,0.6
		c0.3,0.1,0.6,0.2,0.9,0.2C1294.1,1747.3,1294.2,1747,1294.3,1746.7z M1345.9,1730.2c0.3,0.1,0.6,0.2,0.8,0.3
		c-0.2-0.3-0.3-0.6-0.5-0.9C1346.1,1729.8,1346,1730,1345.9,1730.2z"/>
	<path d="M2489.7,1808.7c-1.3-2.9-2.6-5.8-4.3-9.6c2.9-7.2,6-14.9,9.2-22.7c3.2-7.8,6.5-15.6,9.7-23.4c3.2-7.8,6-15.8,9.7-23.3
		c3.9-7.7,4.3-17.3,11.7-23.2c-0.8-8.8,4.6-15.7,7.3-23.4c2.8-7.9,6.2-15.7,9.4-23.5c3.2-7.8,6.3-15.5,9.3-22.8
		c10.5-2.4,82.6-7.7,92.4-6.9c0.3,2.2,0.7,4.5,1,6.9c1,8.6,4.2,16.3,9.2,23.3c1.2,1.6,2.4,3.2,3.5,4.9c2,3.4,1.9,6.9-0.3,10.2
		c-0.9,1.3-2,2.5-3.1,3.7c-10.3,11.2-20.4,22.8-31.2,33.6c-5.7,5.7-10.3,12-14.6,18.5c-15.2,22.7-18.6,46.6-7,72
		c0.6,1.4,1,2.9,1.5,4.3c-20.7,7.3-20.7,7.3-33.2,19.6c-3.3,0.2-6.9,0.2-10.5,0.6c-2.3,0.3-3.4,1.9-2.4,4.5c1.7,2.3,3.4-0.3,5.1-0.4
		c4.6-0.3,5.3,0.7,3.8,7.3c-8.7,2.2-18.1-1.9-26.6,1.4c-1.5,3.8-0.4,6,3.2,6.4c2.8,0.3,5.6,0.2,8.4,0.3c4.4,0,8.8,0,13.7,0
		c2.4,11.9,6.8,21.9,18.1,27.2c10.8,5.1,21.7,5.4,32.7,1c0.8,6.7,0.5,8.9-3.4,20.4c-2.9-0.3-6-0.6-9.1-0.9
		c-12.4-0.9-21,4.9-23.6,15.9c-2.7,11.7,3.3,22.3,15.1,26.5c2.6,0.9,5.3,1.5,8,2.2c-0.6,9.9-2.5,13.4-11.5,21
		c-1.7-0.7-3.5-1.5-5.2-2.2c0,0,0.4,0.4,0.4,0.4c-0.1-2.2-0.5-4.3-2.7-5.4l0.4,0.5c-0.7-3.3-2.3-6-5.2-7.7l0.4,0.5
		c-0.4-3.5-2-6.2-5.2-7.7l0.4,0.5c-0.1-2.2-0.5-4.2-2.7-5.4l0.4,0.5c-1.7-2.6-3.5-5.1-5.2-7.7l0.4,0.5c-0.5-3.4-2.1-6.1-5.2-7.7
		l0.4,0.5c-0.9-1.8-1.8-3.6-2.7-5.4c-0.6-0.6-1.1-1.2-1.7-1.9c-1.1-1.8-2.2-3.5-3.2-5.3l0.4,0.5c-1.7-2.6-3.5-5.1-5.2-7.7l0.4,0.5
		c-0.6-3.4-2.2-6-5.2-7.7l0.4,0.5c-0.3-3.5-2-6.1-5.2-7.7l0.4,0.5c-0.9-1.8-1.8-3.6-2.7-5.4c-0.6-0.6-1.1-1.2-1.7-1.9
		c-1.1-2.1-2.1-4.2-3.2-6.2c-0.3-0.4-0.6-0.7-0.9-1c-1.3-1.7-2.6-3.5-4-5.2c0,0,0.4,0.5,0.4,0.5c-1.7-2.6-3.5-5.1-5.2-7.7l0.4,0.5
		c-0.6-3.3-2.3-5.9-5.2-7.7l0.4,0.5c-0.5-3.4-2.3-6-5.2-7.7l0.4,0.5c-0.5-3.4-2.2-6-5.2-7.7l0.4,0.5c-0.4-3.5-2.3-6-5.2-7.7l0.4,0.5
		c-0.4-3.4-2.3-6-5.2-7.7l0.4,0.5c-0.4-3.5-2.3-6-5.2-7.7l0.4,0.5c-0.5-3.4-2.3-5.9-5.2-7.7L2489.7,1808.7z M2586.4,1713.5
		c0-0.2,0-0.4,0-0.6c-1.9,0-3.9,0-5.8,0c0,0.2,0,0.4,0,0.6C2582.5,1713.5,2584.4,1713.5,2586.4,1713.5z M2605.9,1716
		c0-0.2,0-0.4,0-0.6c-1.9,0-3.9,0-5.8,0c0,0.2,0,0.4,0,0.6C2602,1716,2603.9,1716,2605.9,1716z M2567.2,1711.2
		c-0.1-0.4-0.1-0.7-0.2-1.1c-1.8,0.1-3.7,0.2-5.5,0.4c0,0.2,0,0.5,0,0.7C2563.4,1711.2,2565.3,1711.2,2567.2,1711.2z M2540.2,1708.2
		c2.3,0.4,3.2,0.6,4.2,0.6c0.6,0,1.2-0.4,1.8-0.6c-0.7-0.2-1.5-0.5-2.2-0.5C2543.1,1707.7,2542.3,1707.9,2540.2,1708.2z
		 M2652.5,1664.3c-0.7-0.3-1.5-0.8-2.1-0.8c-0.4,0-0.7,1-1.1,1.5c0.7,0.3,1.3,0.8,1.9,0.7
		C2651.7,1665.7,2652.1,1664.9,2652.5,1664.3z"/>
	<path d="M2536,1878.6c0.6,0.6,1.1,1.2,1.7,1.9c-0.1,2.3,0.4,4.3,2.7,5.4c0,0-0.4-0.5-0.4-0.5c1.7,2.6,3.5,5.1,5.2,7.7
		c0,0-0.4-0.5-0.4-0.5c0.5,3.4,2.2,6,5.2,7.7c0,0-0.4-0.5-0.4-0.5c0.4,3.5,2,6.1,5.2,7.7c0,0-0.4-0.5-0.4-0.5c0,2.4,1.1,4.2,3.2,5.3
		c0.6,0.6,1.1,1.2,1.7,1.9c-0.1,2.3,0.3,4.3,2.7,5.4c0,0-0.4-0.5-0.4-0.5c0.6,3.3,2.2,6,5.2,7.7c0,0-0.4-0.5-0.4-0.5
		c0.4,3.5,1.9,6.2,5.2,7.7c0,0-0.4-0.5-0.4-0.5c0,2.2,0.5,4.2,2.7,5.4c0,0-0.4-0.5-0.4-0.5c0.7,3.2,2.3,6,5.2,7.7
		c0,0-0.4-0.5-0.4-0.5c0.4,3.5,2,6.2,5.2,7.7c0,0-0.4-0.5-0.4-0.5c0.1,2.2,0.5,4.3,2.7,5.4c0,0-0.4-0.4-0.4-0.4
		c0.6,2.4,1.4,4.8-1.3,6.5c-1,0.6-2.1,1.2-3.2,1.7c-7.3,3.3-12.6,8.4-16.2,15.5c-0.7,1.4-2,2.5-3.3,4.1
		c-48.9-3.1-97.8-6.2-146.7-9.3c-1.5-0.1-3-0.8-4-1.1c-0.5-0.9-0.7-1.3-0.8-1.6c-0.1-0.4,0-0.8,0.1-1.2
		c23.9-55.3,47.8-110.6,71.7-165.8c0.3-0.6,1-1.1,1.8-2c1.9,1.4,3.7,2.7,5.6,4c0,0-0.4-0.5-0.4-0.5c0.5,3.4,2.3,5.9,5.2,7.7
		c0,0-0.4-0.5-0.4-0.5c0.5,3.4,2.3,5.9,5.2,7.7c0,0-0.4-0.5-0.4-0.5c1.7,2.6,3.5,5.1,5.2,7.7c0,0-0.4-0.5-0.4-0.5
		c0.6,3.3,2.3,6,5.2,7.7l-0.4-0.5c0.5,3.4,2.3,5.9,5.2,7.7c0,0-0.4-0.5-0.4-0.5c0.5,3.4,2.3,6,5.2,7.7c0,0-0.4-0.5-0.4-0.5
		c0.4,3.4,2.2,6,5.2,7.7c0,0-0.4-0.5-0.4-0.5c0.4,3.5,2.1,6.1,5.2,7.7l-0.4-0.5c0,2.8,1.7,4.2,4,5.2c0.3,0.3,0.6,0.7,0.9,1
		C2533.1,1874.9,2533.3,1877.4,2536,1878.6z"/>
	<path d="M1759.4,2148.1c2.8-5.7,9.8-6.7,11.8-13c-1.7-0.4-2.9-1.1-3.8-0.8c-15.8,4.5-31.6,9.2-47.6,13.8c-1.3,3.5-2.6,6.4-3.5,9.4
		c-6.5,21.6-12.8,43.2-19.4,64.7c-1.5,5-3.8,9.7-6,14.4c-1,2.2-2.9,4.6-5.6,3.5c-2.4-1-5.1-2.8-6.2-5c-1.2-2.3-1.3-5.5-1-8.2
		c0.9-8.8,1.8-17.6,3.4-26.3c2-10.7,4.7-21.2,7.1-31.8c0.5-2.3,0.8-4.6,1.1-6.3c-0.7-1-0.9-1.5-1.2-1.6c-0.3-0.2-0.8-0.2-1.2,0
		c-11.6,4.6-23.2,9.1-34.7,13.8c-2.6,1-4.9,2.5-7.4,3.8c-3.6,12.2-7.1,24.2-10.7,36.1c-1.2,3.8-2.7,7.6-4.4,11.2
		c-1.3,2.6-3.5,4.9-6.6,4.5c-3.4-0.5-5.8-3-6.2-6.6c-0.5-4.3-1.3-8.8-0.7-13.1c1.1-9.5,3-19,4.6-28.8c-2.8-2.5-5.6-5.1-8.5-7.7
		c2.5-6.1,9.4-5.3,13.1-10.1c2.6-8.8,5.3-18.5,8.4-28.1c8.7-27.6,18.3-54.9,30.5-81.2c1.3-2.9,2.8-5.8,4.7-8.4
		c1.7-2.3,4.1-4.3,7.2-3.1c3.8,1.4,8.1,2.8,8.2,7.7c0.1,3.9-0.5,8-1.6,11.8c-1.9,6.5-4.5,12.9-6.7,19.4
		c-7.1,20.9-14.1,41.9-21.1,62.8c-0.6,1.8-1,3.7-1.5,5.8c7.6-0.1,20.8-4.1,43-13.1c1.1-3.3,2.4-7.1,3.6-10.9
		c9.1-27.9,17.8-55.9,29.5-82.8c2.7-6.3,5.8-12.4,8.9-18.5c1.1-2.1,2.8-3.8,4.3-5.7c5.2,0,8.4,3,11.5,5.3c1.5,5.1,0.3,9.4-1,13.6
		c-4.7,15-9.4,29.9-14.2,44.8c-3.9,12.2-8,24.4-11.9,36.7c-0.8,2.6-1.3,5.4-2.1,8.7c9,1.4,16.9-2.4,25-3.7
		c8.3-1.3,16.6-2.9,24.8-4.4c4.8-6.6,5.8-14.3,8.9-21.1c-4.2-2.1-8-3.6-11.3-5.7c-4.9-3.1-5.2-8.3-0.7-12.1c3-2.5,6.6-4.5,10.2-6.3
		c5.4-2.7,10.9-5.1,16.4-7.5c1.1-0.5,2.3-0.6,3.4-0.8c8.7-1.4,17.4-2.8,26.1-4.2c10.8-1.7,21.6-2.5,32.5-1.2c4.9,0.6,9.4,1.7,12.7,7
		c-2.4,1-4.4,2.3-6.6,2.7c-14.2,2.6-28.5,4.9-42.7,7.6c-4.3,0.8-8.5,2.3-12.7,3.5c-1,2.1-2.1,3.8-2.6,5.7c-2.8,9.6-5.4,19.2-8,28.6
		c3.2,3.8,6.7,3.6,10.3,2.8c4.7-1.1,9.3-2.8,14-3.5c5.1-0.7,10.4-1,15.6-0.8c3.5,0.1,7.2,1,9.6,5.4c-1.5,1.1-2.7,2.7-4.4,3.3
		c-3.8,1.3-7.8,2.1-11.7,2.9c-12.6,2.7-24.8,6.8-36.7,11.7c-3.3,1.3-5.3,3.3-6.3,6.7c-1.3,4.5-2.7,9-4.5,14.9
		c4.7-1.4,8.1-2.3,11.4-3.4c16.4-5.3,32.8-10.8,49.3-16c5-1.6,10.1-2.7,15.2-3.6c4.9-0.8,9.5,0,12.4,4.7c-2.3,4.2-6.3,5.3-10,6.8
		c-13.4,5.4-26.8,10.8-40.3,16.1c-8.2,3.2-16.6,6.2-24.9,9.2c-12,4.3-24.8,0.7-32.5-9.1c-1.2-1.5-2-3.5-2.5-5.4
		c-0.6-2.3-0.2-4.9-1.2-7C1763,2150.8,1760.8,2149.5,1759.4,2148.1z"/>
	<path d="M1165.1,1791.2c-2-2-4.3-3.7-5.9-5.9c-20.7-28.2-41.2-56.5-61.8-84.9c-1.1-1.5-1.9-3.3-3.4-5.8c8.7-2.2,16.7,1.5,25.1-0.9
		c1-7.5,0.9-15,0-22.8c-7.3-3.6-15.1-2-22.5-2.8c-7.6-0.8-15.2-1.4-22.1-2c-9.8-12-29.7-41.6-33.9-50.4c0.1-0.4,0.2-0.8,0.5-1.1
		c0.3-0.3,0.7-0.5,1.1-0.4c31.6,2.9,63.2,5.8,95.4,8.7c1.2,3.1,2.5,6,3.4,9c2.7,9.3,5.3,18.5,7.9,27.8c1.3,4.9,4.2,9.9-0.2,14.8
		c0,6.4-0.1,12.8,0.1,19.3c0,0.7,1.6,2,2.4,2c0.8,0,2.1-1.3,2.3-2.2c0.5-2.3,0.5-4.7,1-9.5c1.9,4.7,3.2,7.3,3.9,10.1
		c7,27.2,14.2,54.4,20.9,81.7c5.1,21,10.3,42,15,63.1c4.6,20.8,9.3,41.6,13.7,62.4c5.8,27.5,11.5,55.1,17.2,82.6
		c0.3,1.5,0.4,3.1,0.6,5.4c-11.4,3.7-23.1,2.1-35.1,3.9c-0.7-4.4-1.3-8.2-1.9-12.3c-6.4-2.4-12.8,1.1-19.8-0.4
		c-0.3-2.7-0.8-5.3-0.9-8c-0.1-2.3,0.3-4.7,0.5-7.6c2.6-0.6,4.9-1,7.2-1.6c1.1-0.3,3-0.7,3.2-1.3c1.2-5.9,6.2-4.8,10-5.6
		c0.8-3.3-0.8-4.9-3.7-4.8c-5.2,0.2-10.3,0.7-15.6,1c-2.5-5.6-1.7-10.6-1-16.2c6.7-0.9,13-1.7,19.8-2.6c0.3-3,0.6-5.6,0.9-8.3
		c-1.5-0.7-2.5-1.5-3.6-1.6c-5.5-0.2-11.1-0.2-17.2-0.2c0-5.4,0-10.1,0-15.2c6-3.5,13.5,0,20.1-3.7c0.2-2.5,0.3-5.2,0.5-8
		c-1.5-0.6-2.5-1.3-3.6-1.3c-5.2-0.1-10.4-0.1-15.8-0.1c-3-5.1-1.7-10.1-1.2-15.4c6.1-3.2,12.9-0.4,19.2-2.6
		c2.6-2.5,1.6-5.6,0.8-9.1c-5.9-3.3-12.6,0.2-19.2-1.8c-2.5-4.6-1.4-9.6-0.6-15.4c6.5-0.6,12.8-1.2,19.7-1.9
		c0.3-2.8,0.6-5.5,0.9-8.2c-6.6-3.9-13.9-0.2-20.4-2.8c-1.4-4.9-1-9.6-0.3-15.1c5.3-0.5,10.4-0.9,16.4-1.4c-0.7-2-0.9-4-1.9-5.4
		c-5.9-8.6-12.1-17-18.1-25.5c0.8-0.3,1.5-0.6,2.3-0.9C1166.5,1790.5,1165.8,1790.9,1165.1,1791.2z M1132.2,1694.3
		c0.9-7.5,1-14.9-0.1-23c-2.3-0.1-4.4-0.8-6-0.2c-1.1,0.4-2,2.5-2.1,3.9c-0.3,6.3-0.7,12.7,0.4,19c1.6,0.5,2.6,1.1,3.7,1.1
		C1129.2,1695.1,1130.3,1694.6,1132.2,1694.3z M1175.9,1787.7c-0.3-0.1-0.6-0.3-0.9-0.2c-0.1,0-0.2,0.4-0.3,0.6
		c0.3,0.1,0.6,0.3,0.9,0.2C1175.7,1788.4,1175.8,1788,1175.9,1787.7z"/>
	<path d="M2076.9,2043c-3.9,0-4,3.5-5.1,5.7c-9.9,20.2-19.9,40.4-29.3,60.8c-7.6,16.4-14.3,33.2-21.5,49.8c-3,7-5.8,14.1-10.3,20
		c-4.3,1.2-7.5-0.4-10.8-2c-3-1.5-4.8-4-5.7-7.4c-2.2-8.7-2-17.5-1.3-26.4c1.4-18,2.7-36.1,3.9-54.1c0.2-2.7,0-5.4,0-8.2
		c-3.8,0.2-3.9,3.2-4.6,5.2c-5.8,15.4-11.4,30.9-17,46.4c-3.2,8.7-6.4,17.3-9.7,26c-1.4,3.7-3.2,7.3-4.8,10.9
		c-4.7,0.7-7.3-1.7-9.7-4.7c-0.9-7.7,1.4-15.1,3-22.5c8-36.7,21-71.6,36.1-105.9c0.5-1,1.4-1.9,2.1-2.8c15.8,3.7,24.5,13.3,25.7,29
		c0.5,6.4-0.2,12.8-0.6,19.2c-0.4,6.4-1,12.8-1.4,19.2c-0.1,1.6,0,3.2,0,5.5c3.5-1.2,4-4,4.9-6.2c10.8-25.1,22.7-49.7,36.1-73.6
		c1.8-3.1,3.5-6.4,5.8-9.2c4.9-6.1,10.8-7.8,18.3-5.2c3,1,6,2.3,8.7,4c9.3,5.6,11.5,10.3,9.1,21.1c-5.6,25.5-11.5,50.9-17.4,76.4
		c-6.4,27.8-12.9,55.6-19.6,83.3c-2.1,8.5-3.8,17.2-9.2,24.4c-10.4-2.1-12.7-4.1-11.4-13c1.9-13.5,4.4-26.9,7.4-40.2
		c8.7-38.4,17.7-76.7,26.6-115.1c0.8-3.5,1-7.1,1.5-10.7c0.1-0.6,0.2-1.2,0.3-1.8C2076.9,2041.7,2076.9,2042.4,2076.9,2043z"/>
	<path d="M984.4,2130c-2.5,2.2-4,3.4-5.3,4.7c-21.7,21-43.3,42-65,63c-1.2,1.1-2.3,2.2-3.4,3.4c-4.9,5.1-10.3,7.6-17.2,4
		c-7.1-3.6-13.3-8-13-17.1c0.2-4,0.9-8,1.8-11.9c6.2-27.5,14.8-54.2,23.7-80.9c5-14.8,10.4-29.6,15.9-44.2
		c2.8-7.5,5.9-14.9,10.6-21.2c6.8,0.9,6.8,0.9,13,5.7c1.6,3.9,0.4,7.8-0.5,11.6c-2.4,9.3-4.8,18.7-7.8,27.8
		c-11.3,35.2-22.9,70.3-34.3,105.4c-0.7,2.2-1.3,4.4-2.7,9.1c4-3.4,6.1-4.9,8-6.7c16.4-16,32.8-32,49.2-48c4-3.9,8.1-7.8,12.3-11.6
		c5.1-4.6,10.9-8.2,18.1-9.2c1.3-3.8,2.5-7.6,3.9-11.3c3.6-9.9,8.3-19.2,15.2-27.2c4.2-4.8,9.1-9.1,13.9-13.2
		c10.5-8.9,31.6-6.7,42,3.9c4.3,4.3,5.7,9.5,5.9,15.3c0.4,12.6-1.8,24.8-4.8,36.9c-4.7,18.5-13,35.4-24.6,50.6
		c-12.3,16-21.1,17-38,6.1c-8.7-5.6-13.8-13.3-14.9-23.6c-0.5-4.8-0.8-9.6-1.2-14.4C985.1,2135.2,984.8,2133.4,984.4,2130z
		 M1009.4,2168c13.4-9.6,20.7-22.4,27.1-35.7c7.4-15.4,12.7-31.5,13.1-51.6c-7.3,10.1-7.2,20.2-11,29.1c-7.6-0.1-12.6-5-17.5-10.1
		C1008.2,2119.9,1003.1,2149.1,1009.4,2168z"/>
	<path d="M2367.3,2075.3c-1.5-1.2-3.1-2.3-4.6-3.6c-1.2-1-2.2-2.2-3.3-3.5c1-6.7,5.9-10.6,9.9-14.8c2.2-2.2,5.2-1.9,7.9-0.6
		c5,2.5,10,5.1,15.6,8c1.6-2.3,2.9-4.6,4.6-6.7c3.3-4,6.6-8.2,10.4-11.6c8.6-7.7,11.4-7.6,21.3-1.8c4.8,2.9,6.4,6.3,5.7,11.9
		c-1.7,13.9-2.7,28-4,42c-2.7,28.8-3.9,57.7-3.7,86.7c0,1.9,0.2,3.8,0.4,5.4c2.7,1.2,3.5-0.4,4.3-1.7c7-12.2,14.2-24.3,21-36.6
		c10.7-19.3,21.1-38.9,31.8-58.2c11.5-20.7,23.4-41.3,35.2-61.8c1.1-1.9,2.9-3.4,6-6.9c-0.6,4.6-0.5,7-1.2,9.1
		c-11.3,32.6-21.9,65.5-37.3,96.6c-12.7,25.6-25.4,51.1-38.2,76.6c-1.4,2.9-3,5.7-4.9,8.3c-5.7,7.6-12.4,9.6-21.2,5.9
		c-5.5-2.3-11-4.9-15.7-10.9c0.9-44-3-88.9,3.3-133.9c-5.1-2.9-9.5-5.4-14.7-8.4c-1.1,4.1-2.1,7.9-3,11.7
		c-5.7,24.6-11.2,49.3-17.1,73.9c-1.8,7.4-4.5,14.6-6.8,21.8c-0.6,1.9-1.4,3.8-2.2,5.6c-1.3,2.6-3.1,4.7-6.3,4.9
		c-3.1,0.2-7.4-2.5-8.1-6.1c-0.9-4.3-1.6-8.8-1-13.1c1.9-14.7,4.2-29.4,6.9-44c2.1-11.4,5-22.8,7.4-34.1
		C2366.2,2082.1,2366.6,2079,2367.3,2075.3z"/>
	<path d="M886.9,2227.6c5.1-2.3,9.1-2.1,12.9-2.3c19.7-0.8,39.3-2.9,58.7-6.7c56.3-11.3,106.5-35.4,150.5-72.4
		c3.4-2.8,6.5-6,9.4-9.3c2.6-3,5-6.3,4.5-11c-3.2-2.2-6.9-1.1-10.3-1.1c-13.8,0.3-24.9-5.7-34.9-14.3c-7.1-6.1-8-11.5-2.1-18.9
		c11.9-15.2,24.6-29.6,42.6-38.3c12.5-6.1,23.3-4.2,33.8,3.7c6.2,4.7,7.6,8.4,5.1,15.7c-3,9.1-6,18.2-11.8,25.8
		c-10.7-3-11.5-4-10.7-13.1c0.5-5.5,1.6-11,2.6-17.1c-1.8,0.3-3,0.1-3.8,0.7c-12.6,8.9-23.1,19.9-33.1,31.5c-2,2.3-3.2,5.3-4.5,7.7
		c2.2,3.2,4.7,2.3,7,2.2c13.2-0.6,24.2,4.9,34.6,12.1c1.6,1.1,3.1,2.6,4.4,4.1c4.3,5.1,5.5,10.7,2.1,16.7c-1.8,3.1-3.9,6.2-6.4,8.7
		c-5.2,5.1-10.5,10-16.2,14.4c-47,36.4-99.8,59.7-158.7,68.6c-14.7,2.2-29.6,3.7-44.5,2.8c-6-0.4-12-1.2-18-2.1
		C895.1,2235,890.9,2233,886.9,2227.6z"/>
	<path d="M2620.2,2237.3c-1.7-4.6-2.7-8.4-0.9-12.9c6.7-1,13.4-2,20.1-3c62.5-8.8,118-33.5,166.6-73.6c4.6-3.8,8.8-8.2,12.8-12.7
		c2.4-2.6,4.3-5.9,2.9-10.5c-3.5,0-7.1,0-10.7,0c-13.7,0.2-24.8-6.1-34.7-14.7c-5.8-5.1-6.3-10.6-2.4-17.3c0.2-0.3,0.4-0.7,0.6-1
		c12.2-15,24.7-29.5,42.7-38.4c13-6.4,24-4.1,34.7,4.2c3.7,2.9,6.2,6.7,5,11.5c-2.6,10.5-5.9,20.7-12.6,29.2
		c-10.7-3-11.4-3.8-10.3-12.9c0.7-5.9,1.6-11.8,2.7-19.2c-11.8,7.3-20.5,16.1-29,25.1c-4.9,5.2-10.3,10-12.6,17c2.4,3.3,5.4,2,8,1.9
		c13.1-0.2,24.4,5,34.3,12.9c9.4,7.4,10.1,15.6,2.4,25.1c-3.8,4.7-8.2,8.9-12.8,12.7c-36.5,30-77.4,51.8-122.9,64.8
		c-20.6,5.9-41.5,9.6-62.8,11.5C2634.5,2237.8,2627.7,2237.3,2620.2,2237.3z"/>
	<path d="M1401.9,2092.7c1.2-0.7,2.9-1.1,3.7-2.1c9.7-12.8,19.3-25.7,28.8-38.7c1.9-2.6,3.1-5.6,4.9-8.2c1.3-1.9,3-3.6,4.3-5.2
		c11,3.8,12.9,5.8,11.8,15.3c-0.9,8.4-2.7,16.6-4.6,24.9c-8.1,36.1-16.3,72.1-24.6,108.1c-0.9,3.9-2.3,7.7-3.9,11.3
		c-0.9,2.1-2.8,3.7-4.2,5.5c-1.6-0.5-2.8-0.8-3.9-1.2c-6.5-2.3-9.9-6.8-9.1-13.8c0.9-8.4,1.6-16.8,3.4-25
		c5.5-25.1,11.4-50.1,17.1-75.2c0.3-1.5,0.3-3.1,0.6-6.5c-2.7,3.2-4.4,4.8-5.7,6.7c-10.3,16.3-20.6,32.6-30.6,49.2
		c-2.5,4.1-3.6,8.9-5.5,13.3c-1.7,4-3.5,8.1-5.7,11.9c-0.9,1.5-3.1,2.8-4.9,3.1c-5.1,0.9-12.9-4.9-13-10.2c-0.1-6,0.2-12.1,1.7-17.9
		c6.1-23.3,12.7-46.5,19-69.8c0.8-3,1.4-6.1,2.3-10c-1.9,0.5-3,0.5-3.9,1c-2,1-4,3.7-6.1,1c-0.9-1.2-0.7-4.1,0.2-5.5
		c2.8-4.4,5.9-8.6,9.3-12.5c3.2-3.6,7-6.6,10.5-9.8c4.5-0.9,7.8,1.7,11.3,3.5c4.4,2.3,6.4,5.6,5.3,10.9c-2.5,12.2-4.8,24.4-7.2,36.6
		c-0.6,3.1-1,6.3-1.5,9.5c-0.4,0.5-2.2,0.8-0.3,1.7C1401.9,2094,1401.9,2093.4,1401.9,2092.7z"/>
	<path d="M2691,2102.5c2.9,1.9,6.1,1,9.1,0.9c17.7-0.3,35.4-0.7,53.1-1.1c5-0.1,9.6,0.9,13.2,4.6c0.5,0.5,0.8,1.3,1.2,2
		c-2.1,2.9-5.3,3.5-8.5,3.8c-14.4,1.3-28.8,3-43.2,3.8c-14.1,0.7-28.1,0.5-42.2,0.7c-4,0.1-8,0-12.2,0c-1.1,3.2-2.2,5.7-3,8.4
		c-4.1,13.5-7.8,27-12.2,40.4c-2.5,7.6-5.6,15-8.9,22.3c-1.8,4-4.6,5.3-7.5,4.6c-5-1.2-8.2-4.5-7.5-9.2c1.6-11.1,3.2-22.3,5.8-33.2
		c2.2-9.8,5.8-19.2,8.5-28.9c1.4-4.9,4.5-9.6,2.3-15.1c-0.3-0.8,0.4-2.6,1.2-3c3.7-2,4-5.8,5.2-9.2c2.7-7.6,5.3-15.2,7.7-22.8
		c0.7-2.1,0.9-4.4,1.5-7.7c-4.6,1.5-7.9,2.6-11.8,3.9c-2.1-5.6,0.8-10.2,1.5-14.9c6.8-4.7,14.2-6.6,21.6-8.5
		c15.8-4.1,31.8-4.8,47.8-1.6c8.4,1.7,16.2,4.8,22.6,10.7c5.2,4.8,5.6,9.6,1,14.7c-2.9,3.2-6.4,6.1-10,8.6c-9.9,6.9-20,13.4-30,20.2
		C2695,2098.4,2692,2098.9,2691,2102.5z M2675.7,2055.3c-1.9,10.2-3.7,19.2-5.3,28.3c-0.2,1.3,0.2,2.6,0.4,4.9
		c17.1-9,32.2-18.8,46.4-30c1.7-1.3,4.2-2.8,2.3-6.5C2704.9,2049.9,2690.3,2050.9,2675.7,2055.3z"/>
	<path d="M1574.1,2038.2c-15.4,2.6-30.1,5-44.7,7.4c-2,0.3-4,0.9-5.9,0.9c-3,0-5.1-1.7-7.6-4.7c20.6-10.4,42.3-13.8,63.5-18.2
		c1.1-1.9,1.8-3.3,2.7-4.6c5.3-7.7,7.9-8.8,15.6-3c5.4,4.1,10.7,4.2,16.8,3.9c14.4-0.9,28.9-1.3,43.3-1.6c7.4-0.2,14.3,1.9,20.4,6.2
		c1.1,0.8,1.8,2.2,3.2,4.1c-5.7,2.9-10.9,1.5-15.9,1.7c-5.2,0.2-10.5,0.1-15.7,0.2c-4.8,0.1-9.6,0.3-14.5,0.6
		c-5.2,0.4-10.4,0.9-15.6,1.4c-5.2,0.5-10.4,0.9-15.9,1.4c-1.2,2.8-2.6,5.2-3.3,7.8c-12.8,44.8-23.2,90.1-31.6,135.9
		c-1.8,9.9-3.5,19.7-5.5,29.6c-0.6,3.1-1.5,6.2-2.6,9.2c-1.9,5.2-6.5,6-10.4,2.1c-2.8-2.8-3.6-6.3-3.5-9.9c0.1-10-0.2-20.1,0.9-30.1
		c4.2-39.6,11.1-78.7,21.4-117.1c1.8-6.6,3.6-13.2,5.3-19.7C1574.8,2041.2,1574.4,2040.4,1574.1,2038.2z"/>
	<path d="M2307.3,2023.7c8.9-13.6,9-13.8,22-5.2c3.5,2.3,6.8,1.9,10.3,1.7c12.4-0.7,24.9-1.5,37.3-2c4.8-0.2,9.7,0,14.4,0.7
		c6.7,1,13.3,2.8,18.3,9.3c-1.8,0.9-3.1,2-4.4,2c-4.8,0.3-9.7,0-14.5,0.3c-17.7,0.9-35.3,1.9-53,2.9c-2,0.1-3.9,0.8-6.3,1.3
		c-1.1,3-2.5,5.8-3.3,8.9c-13,46-23.7,92.6-32,139.6c-1.5,8.3-3.1,16.6-4.7,24.8c-0.6,2.7-1.4,5.4-2.3,8.1c-0.7,2.3-1.8,4.7-4.5,5.1
		c-3.1,0.4-5.8-1.2-7-3.7c-1.5-3.2-2.7-6.8-2.8-10.3c-0.2-7.6-0.1-15.3,0.6-22.9c4.6-46.4,13-92.2,26-137.1c0.7-2.3,1.2-4.6,2.1-7.8
		c-2.4-0.1-4.3-0.6-6-0.3c-14.3,2.3-28.5,4.8-42.8,7.3c-4.3,0.8-7.8,0-10.3-4.8C2264.6,2031.7,2286,2028.1,2307.3,2023.7z"/>
	<path d="M2201.3,2028.2c4.6,2.6,8.4,4.7,12.4,7c-0.3,3.2-0.1,6.1-0.8,8.7c-3.2,12-6.2,24.1-10,36c-10.8,34.1-22,68-33.1,102
		c-0.6,1.8-1,3.6-2,7.6c4-3.6,6.5-5.5,8.7-7.7c17.3-16.8,34.5-33.7,51.8-50.6c5.8-5.6,11.6-11.2,18.8-14.9c3.7-1.9,6.9-2,9.7,2.4
		c-1.3,6.2-5.6,11-10.1,15.5c-5,5.2-10.5,9.9-15.7,15c-16.7,16.3-33.4,32.6-50.1,48.8c-0.9,0.8-1.7,1.7-2.6,2.5
		c-7.4,6.9-10.9,7.8-18.1,4.4c-9.7-4.5-13.7-10.5-12.4-19.7c0.8-6.4,2.2-12.7,3.9-18.9c10.2-38.1,22.1-75.5,36.2-112.4
		C2191.3,2045.4,2194.5,2036.7,2201.3,2028.2z"/>
	<path d="M2896.7,2082.9c-3.7,12.8-7.3,25.3-10.8,37.5c2.5,2.4,4.4,1.3,6.2,0.8c6.6-1.8,13.1-4.1,19.8-5.2
		c5.5-0.9,11.2-0.6,16.8-0.5c2.6,0,3.5,0.9,8.1,5.6c-2.6,1.3-4.8,3-7.3,3.7c-6.2,1.8-12.6,2.8-18.7,4.7
		c-10.3,3.2-20.5,6.8-31.1,10.4c-2.2,6.4-4.3,12.4-6.2,18c2.6,3.6,4.9,1.2,6.8,0.6c16-5.2,32-10.7,48-15.8c6.5-2.1,13.2-3.6,19.8-5
		c4.9-1,9.5-0.5,13.4,4.7c-1.8,1.5-3.2,3.5-5.1,4.4c-7.6,3.5-15.4,6.9-23.2,10c-15.7,6.1-31.5,12-47.3,17.8
		c-11.4,4.2-23.6,0.9-31.6-8.4c-1.5-1.7-3-4.3-2.8-6.4c0.4-5.1-2-8.3-6.8-11.2c2.1-2.1,3.5-4.1,5.3-5.1c5.3-3,7.6-7.8,9.4-13.3
		c3.3-10.2,7-20.3,10.5-30.3c-4.5-2.4-8.6-4.1-12.1-6.5c-3.9-2.7-4.2-7.2-0.6-10.3c3.3-2.8,7.1-5.2,11-7.2c5.3-2.8,10.9-5,16.4-7.5
		c1.1-0.5,2.3-0.7,3.4-0.9c8.7-1.4,17.4-2.7,26.1-4.1c10.8-1.7,21.5-2.5,32.4-1.3c4.9,0.6,9.4,1.8,13.1,6.7
		c-2.3,1.1-4.2,2.7-6.2,2.9c-17.5,2.3-35,5.1-52,9.9C2900.4,2081.5,2899.3,2081.9,2896.7,2082.9z"/>
	<path d="M1141.1,2041.1c19.7-9.3,41-13.1,62.3-17.4c1.7-2.6,3-5.1,4.6-7.3c3-4.1,5.8-4.8,10.4-2.4c4.5,2.4,8.8,5.4,13.8,8.5
		c0.4,2.5,0.9,5.6,1.5,9.3c-2.2,1.1-4.3,2.2-6.9,3.5c-5.2,13.9-8.7,28.7-12.4,43.5c-9.7,39.4-18.5,78.9-25.1,118.9
		c-1.1,6.7-3,13.3-5,19.8c-1.3,4.1-5.3,4.7-8.8,2.1c-3.9-3-4.9-7.4-4.9-11.8c0-8.4,0-16.9,0.8-25.2c4.7-46.4,13.2-92.1,26.2-137
		c0.5-1.9,0.9-3.8,1.5-6.6c-2.5,0-4.4-0.3-6.2,0c-13.5,2.2-26.9,4.5-40.4,6.7c-2,0.3-4,1-5.9,0.7
		C1144,2046.1,1141.2,2045.1,1141.1,2041.1z"/>
	<path d="M2150.4,2052.5c9.5,1.7,12.1,3.7,13.1,11.2c0.6,4.3,0.8,8.8,0.3,13.2c-2.8,27.3-9.4,53.7-21.1,78.7
		c-3.2,6.9-6.9,13.6-11.2,19.9c-7.8,11.4-16.7,13.3-29.3,7.5c-13.5-6.2-18.7-17-17.8-31.1c1-17.6,3-35.1,8.2-52.2
		c3.5-11.6,8.7-22.4,15.1-32.7c0.6-1,1.4-1.9,2.3-3.3c2.9,1.4,5.3,2.5,7.6,3.5c0.2,1.7,0.6,3,0.3,4c-2.1,8.2-4.5,16.3-6.4,24.4
		c-5.2,22.3-9.1,44.8-8.6,67.9c0.1,2.6,0.4,5.3,0.6,7.6c3.3,1.2,4.8-0.5,5.9-2c3.7-5.2,7.5-10.5,10.5-16.1
		c10.9-19.9,17.2-41.4,21.6-63.6c1.8-9.1,3.2-18.2,4.7-27.3C2146.8,2058.6,2147.6,2055.1,2150.4,2052.5z"/>
	<path d="M2533.4,2160.1c4.4-1.2,8.2-2.2,11.7-3.1c0.7,0.7,1.1,0.9,1.2,1.2c0.1,0.3,0.2,0.9,0,1.2c-3.7,5.6-7.4,11.2-11.3,17
		c-8.4-0.7-14.8-4.6-20.4-9.9c-1.9-1.8-3.7-4.9-3.5-7.2c0.4-5.2-2.7-8-5.9-10.7c0.4-1.1,0.5-2.1,1-2.4c8.4-5.1,12.4-12.9,15-22.1
		c2.3-8.4,5.7-16.5,8.5-24.5c-4.5-2.4-8.6-4.1-12.1-6.6c-3.8-2.6-4.1-7.3-0.6-10.3c3.6-3,7.8-5.5,12-7.7c4.9-2.6,10-5.2,15.3-6.7
		c4.4-1.3,9.3-1.2,14.7-1.8c1.3,4.6,2.4,8.7,3.5,12.5c-6.6,5.4-6.7,5.3-8.8,12.7c-2.7,9.2-5.1,18.4-10.7,26.5
		c-2.6,3.7-4.4,9-4.3,13.5c0.2,8.3-2.2,15.8-4.6,23.4C2533.5,2156.4,2533.7,2158,2533.4,2160.1z"/>
	<path d="M3331.1,1993.1c-15.1-1.5-30.1-4.2-46.4-3.9c0.7,2.7,1.2,4.8,1.9,6.8c1.4,4,4.9,7.4,4.5,12.1c-9.6,0.7-78.6-7.1-92.3-10.4
		c-1.5-8.1-1.9-16.3,0.4-24.7c4.7,0,9.1-0.3,13.5,0.1c6.8,0.5,13.6,1.3,20.3,2c11.6,1.2,23.1,2.4,34.7,3.8c5,0.6,10.7-0.2,13.7,5.5
		c3.5,0.8,6.9,2,10.4,2.4c11.6,1.2,23.2,2,34.7,3c2.3,0.2,3.7,1.4,4.4,3.4L3331.1,1993.1z"/>
	<path d="M1333.8,2156.9c13.5-15,11.9-29.8,1.5-45.1c2.5-11.9,5.1-24,7.7-36.3c-3.3-2.4-6.1-4.4-8.3-6c1.6-8.1,6.2-12.2,10.6-16.2
		c1.4-1.2,4.8-1.4,6.7-0.6c6.6,2.8,13.3,5.6,18,11.2c-1.2,20.2-18.6,91.9-25.4,105c-3.5-0.1-3.9-3.5-5.6-5.4
		C1337.3,2161.7,1335.9,2159.7,1333.8,2156.9z"/>
	<path d="M1188.8,1543.6c0.4-2.5,0.6-4.9,1.3-7.2c1.1-3.7,3.7-6.4,7.3-7.3c7.1-1.9,13.5,0.2,18.9,5c5.3,4.7,6.2,11,4.6,17.6
		c-1.5,6-7.6,10.1-14.6,10.3c-7.3,0.2-13.8-3.8-15.9-10.3C1189.4,1549.2,1189.3,1546.3,1188.8,1543.6z"/>
	<path d="M2692.8,1543.1c-0.1,10.8-5.6,17.9-14.2,18.9c-5.9,0.7-11.2-0.9-15-5.6c-4.3-5.2-3.9-11.2-1.7-17
		c3.2-8.3,14.9-13.2,23.2-10.1c3.6,1.3,6,4.1,6.9,7.8C2692.5,1539.4,2692.6,1541.8,2692.8,1543.1z"/>
	<path d="M452,1952c-20,1.3-40.1,2.4-60.1,3.8c-15.6,1.1-31.2,2.6-46.8,3.8c-12,0.9-24,1.8-36,2.6c-17.2,1.1-34.5,2.1-51.7,3.3
		c-16,1.1-32,2.5-48,3.6c-17.6,1.2-35.3,2.4-52.9,3.5c-1.5,0.1-3.1-0.2-4.7-1.5c2.1-0.3,4.2-0.7,6.3-0.9c18.4-1.4,36.8-2.7,55.2-4.1
		c1.2-0.1,2.4-0.2,3.6-0.3c17.2-1,34.5-1.9,51.7-3c15.6-1.1,31.2-2.5,46.8-3.8c1.2-0.1,2.4-0.2,3.6-0.3c17.6-1,35.3-1.9,52.9-3.1
		c15.6-1.1,31.2-2.7,46.8-3.8c11.2-0.8,22.4-2.4,33.6,0.4C452.2,1952.1,452,1952,452,1952z"/>
	<path d="M1416,2309.6c-8.3,0.2-15.3-6.6-15.6-15.1c-0.3-7.8,7.3-15.2,15.6-15.1c7.9,0,14.7,6.6,14.9,14.4
		C1431.1,2302.3,1424.4,2309.4,1416,2309.6z"/>
	<path d="M2483.2,2295.4c-3.1,0.7-2.4,3.7-3.5,5.7c-4.6,8.5-13.5,11-21.4,6.1c-6.9-4.3-8.9-14-4.4-21.3c5.2-8.4,19.1-8.6,24.6,0
		c1.9,3,3.2,6.4,4.7,9.8C2483.2,2295.7,2483.2,2295.4,2483.2,2295.4z"/>
	<path d="M3456.5,1957c11.5-3.1,23.1-1,34.7-0.4c5.6,0.3,11.2,0.9,16.8,1.4c18.8,1.4,37.6,2.9,56.4,4.3c1.6,0.1,3.2,0.3,4.8,0.4
		c17.2,1,34.5,1.8,51.7,3c16.4,1.2,32.8,2.8,49.2,4.1c6.3,0.5,12.7,0.5,20.1,0.8c-1.6,1.1-2.2,1.8-2.7,1.8
		c-6.8-0.2-13.7-0.3-20.5-0.7c-18.8-1.3-37.6-2.7-56.4-4.1c-18-1.4-36-2.9-54-4.2c-13.2-1-26.4-1.9-39.7-2.7
		c-20-1.3-40.1-2.5-60.2-3.7C3456.7,1956.9,3456.5,1957,3456.5,1957z"/>
	<path d="M427.2,1833.1c5.5-0.8,11-1.9,16.5-2.2c30-1.9,60-3.7,90-5.5c1.1-0.1,2.2,0.5,6,1.6c-39.3,2.6-75.8,5.1-112.3,7.5
		C427.3,1834,427.2,1833.6,427.2,1833.1z"/>
	<path d="M3301.3,1825.8c3.9-0.2,6.6-0.6,9.4-0.3c33.6,2.7,67.3,3.8,100.8,8.8c-2.4,0-4.8,0.1-7.2,0c-19.2-1.3-38.5-2.7-57.7-4
		c-14-1-28.1-1.8-42.1-2.8C3303.8,1827.3,3303.2,1826.7,3301.3,1825.8z"/>
	<path d="M459.2,1997.8c-14.3,1.3-28.7,2.4-43,3.8c-18.7,1.8-37.3,3.9-56,5.8l0.2,0.1c0.8-2.1,2.2-3.2,4.5-3.3
		c11.2-0.9,22.4-1.8,33.5-2.9c12-1.2,23.9-2.6,35.8-3.8c8.4-0.8,16.7-2.3,25.1,0.3C459.4,1998,459.2,1997.8,459.2,1997.8z"/>
	<path d="M3331,1993.2c8.3-2.9,16.7-1.2,25.1-0.5c13.2,1.2,26.4,2.6,39.5,3.9c10,1,20,1.9,30,2.8c2.3,0.2,3.7,1.3,4.4,3.4
		c0,0,0.2-0.1,0.2-0.1c-9.1-1.1-18.2-2.3-27.3-3.2c-11.5-1.1-23.1-2-34.6-3c-12.3-1.1-24.7-2.3-37-3.5
		C3331.1,1993.1,3331,1993.2,3331,1993.2z"/>
	<path d="M3430,2002.9c8.3-2.9,16.7-1.2,25.1-0.5c13.2,1.2,26.4,2.6,39.6,3.9c10,1,20,1.9,30,2.8c2.3,0.2,3.6,1.4,4.3,3.5l0.2-0.1
		c-9.1-1.1-18.2-2.4-27.3-3.3c-11.5-1.1-23.1-2-34.6-3c-12.3-1.1-24.7-2.3-37-3.5C3430.2,2002.7,3430,2002.9,3430,2002.9z"/>
	<path d="M178.4,1496.5c16.2,2.4,32.3,4.7,48.5,7.1c8.3,1.2,16.5,2.4,24.8,3.5c2.2,0.3,3.8,1.1,4.4,3.3l0.2-0.2
		c-24.3-3.6-48.6-7.2-72.9-11c-1.7-0.3-3.1-1.9-4.7-2.9C178.6,1496.3,178.4,1496.5,178.4,1496.5z"/>
	<path d="M3599.5,1507.9c1.1-1,2.1-2.7,3.3-2.9c17.3-2.7,34.6-5.3,51.8-7.8c7.5-1.1,14.9-2.2,22.4-3.3c0,0-0.2-0.2-0.2-0.2
		c-1.1,1-2.1,2.7-3.4,2.9c-16.8,2.7-33.7,5.2-50.5,7.8c-7.8,1.2-15.7,2.3-23.6,3.5C3599.3,1507.8,3599.5,1507.9,3599.5,1507.9z"/>
	<path d="M462,1541.3c-15.4-2.2-30.8-4.3-46.1-6.5c-8.7-1.2-17.3-2.7-26-4c-2.4-0.4-4.8-0.5-5.9-3.2c0,0-0.3,0.2-0.3,0.2
		c16.2,2.4,32.3,4.8,48.5,7.1c8.3,1.2,16.6,2.3,24.8,3.5c2.1,0.3,3.9,0.9,4.7,3.1C461.7,1541.5,462,1541.3,462,1541.3z"/>
	<path d="M360.2,2007.5c-22.5,1.8-45,4.3-67.8,4.5c8-1,15.9-2.1,23.9-3c7.5-0.9,15-1.7,22.6-2.2c7.1-0.5,14.3-1.8,21.4,0.8
		C360.3,2007.6,360.2,2007.5,360.2,2007.5z"/>
	<path d="M3394,1539.1c1.1-1,2.2-2.6,3.4-2.8c14.3-2.2,28.7-4.2,43-6.2c0,0-0.2-0.2-0.2-0.2c-1.2,1-2.3,2.6-3.6,2.8
		c-14.3,2.2-28.6,4.2-42.9,6.2C3393.8,1539,3394,1539.1,3394,1539.1z"/>
	<path d="M3553.7,2106.5c13,2.1,26,4.2,39.1,6.2c2.2,0.3,3.8,1.1,4.2,3.4c0,0,0.3-0.2,0.3-0.2c-13-2-26.1-4.1-39.1-6
		c-2.3-0.3-3.6-1.5-4.1-3.6C3553.9,2106.3,3553.7,2106.5,3553.7,2106.5z"/>
	<path d="M3399,2082.3c13,2.1,26,4.2,39.1,6.2c2.2,0.3,3.7,1.2,4.1,3.5c0.1,0,0.3-0.2,0.3-0.2c-13-2-26-4.1-39.1-6.1
		c-2.3-0.3-3.6-1.5-4.2-3.6C3399.2,2082.2,3399,2082.3,3399,2082.3z"/>
	<path d="M3519.6,2104.1c-13-2.1-25.9-4.3-38.9-6.3c-2.4-0.4-3.4-1.7-3.9-3.8l-0.2,0.2c12.9,2.2,25.8,4.4,38.8,6.4
		c2.3,0.4,3.6,1.3,4,3.6L3519.6,2104.1z"/>
	<path d="M259.1,2114c0.3-2.2,1.4-3.5,3.7-3.8c12.2-1.7,24.5-3.6,36.7-5.4c0.8-0.1,1.5-0.6,2.3-0.9c0.1,0-0.1-0.1-0.1-0.1
		c-0.5,2.1-1.8,3.3-4.1,3.6c-11.8,1.7-23.6,3.5-35.3,5.3c-1.1,0.2-2.2,0.8-3.3,1.2L259.1,2114z"/>
	<path d="M182,2126.2c0.3-2.2,1.1-3.6,3.6-3.9c12.2-1.7,24.5-3.6,36.7-5.4c0.8-0.1,1.5-0.6,2.3-0.9c0.1,0.1-0.1-0.1-0.1-0.1
		c-0.5,2.1-1.8,3.3-4.1,3.6c-11.3,1.7-22.7,3.4-34,5.2C184.8,2124.9,183.4,2125.7,182,2126.2C181.8,2126.1,182,2126.2,182,2126.2z"
		/>
	<path d="M3631.3,2118.3c12.9,2.2,25.8,4.3,38.8,6.4c2.2,0.4,3.7,1.1,4.2,3.4c0,0,0.3-0.2,0.3-0.2c-13-2-26.1-4.1-39.1-6
		c-2.4-0.4-3.4-1.7-3.9-3.8L3631.3,2118.3z"/>
	<path d="M104.5,2138.1c0.3-2.3,1.4-3.4,3.8-3.8c13.1-2,26.1-4,39.2-6.1l-0.2-0.2c-0.6,2.2-2,3.1-4.2,3.5
		c-11.8,1.7-23.6,3.5-35.4,5.3c-1.1,0.2-2.2,0.8-3.4,1.1L104.5,2138.1z"/>
	<path d="M3708.6,2130.3c12.5,2.1,25.1,4.3,37.6,6.3c2.5,0.4,4.8,0.6,5.3,3.7l0.2-0.2c-13-2.1-26-4.2-39-6.2
		c-2.4-0.4-3.4-1.7-3.9-3.8L3708.6,2130.3z"/>
	<path d="M3739.4,1483.8c-0.6,2.1-2,3.1-4.2,3.5c-8.1,1.3-16.2,2.6-24.4,3.9c-0.1,0,0.1,0.1,0.1,0.1c0.4-2.3,1.7-3.3,4-3.6
		c8.2-1.2,16.4-2.5,24.7-3.7L3739.4,1483.8z"/>
	<path d="M115.9,1486.6c8.3,1.2,16.5,2.5,24.8,3.6c2.3,0.3,3.5,1.5,3.9,3.7l0.2-0.2c-8.1-1.3-16.2-2.7-24.3-4
		c-2.1-0.3-3.6-1.2-4.3-3.3C116.1,1486.4,115.9,1486.6,115.9,1486.6z"/>
	<path d="M3677.1,1493.9c7.4-1.3,14.7-2.8,22.1-3.6c3.8-0.4,7.7,0.6,11.7,1c0.1,0-0.1-0.1-0.1-0.1c-6.6,1-13.2,2-19.9,2.9
		c-4.7,0.6-9.4,1.7-14.1-0.4C3676.9,1493.7,3677.1,1493.9,3677.1,1493.9z"/>
	<path d="M144.5,1493.9c3.5-0.5,7.1-1.7,10.4-1.3c7.8,0.9,15.6,2.6,23.4,3.9c0,0,0.3-0.2,0.3-0.3c-4.2,0.1-8.6,0.7-12.8,0.3
		c-7-0.7-14-2-21.1-2.9C144.7,1493.7,144.5,1493.9,144.5,1493.9z"/>
	<path d="M3568.3,1512.9c0.6-1,1.2-2.6,2-2.7c7.4-1.3,14.8-2.4,22.3-3.2c2.3-0.2,4.6,0.6,7,1c0,0-0.2-0.1-0.1-0.1
		c-10.4,1.7-20.8,3.3-31.3,5C3568.1,1512.7,3568.3,1512.9,3568.3,1512.9z"/>
	<path d="M256.1,1510.4c3.9-0.3,7.9-1,11.7-0.7c5.5,0.4,11,1.5,16.4,2.6c1.2,0.3,2.1,2,3.1,3.1l0.2-0.2c-10.4-1.7-20.8-3.4-31.2-5
		C256.3,1510.2,256.1,1510.4,256.1,1510.4z"/>
	<path d="M3537,1517.9c0.6-1,1.1-2.8,1.8-2.9c7.8-1.3,15.7-2.4,23.6-3.3c1.9-0.2,3.9,0.7,5.8,1.1c0,0-0.2-0.1-0.1-0.1
		c-10.3,1.7-20.7,3.4-31.2,5C3536.8,1517.7,3537,1517.9,3537,1517.9z"/>
	<path d="M287.3,1515.3c4.2-2.1,8.6-1.4,13-0.8c5.1,0.6,10.3,1.4,15.3,2.6c1.2,0.3,2,2.1,3,3.2l0.2-0.2c-10.4-1.7-20.8-3.3-31.2-4.9
		C287.5,1515.2,287.3,1515.3,287.3,1515.3z"/>
	<path d="M3505.5,1522.6c0.6-1,1.1-2.7,1.9-2.8c7.1-1.2,14.2-2.4,21.3-3.1c2.7-0.3,5.5,0.7,8.2,1.2c0.1,0-0.1-0.1-0.1-0.1
		c-10.5,1.6-21,3.1-31.6,4.7C3505.3,1522.4,3505.5,1522.6,3505.5,1522.6z"/>
	<path d="M84.3,1481.8c10.5,1.6,21,3.2,31.5,4.8c0,0,0.3-0.2,0.3-0.3c-3.9,0.3-7.9,1.1-11.7,0.8c-5.6-0.4-11.1-1.5-16.6-2.6
		c-1.3-0.3-2.2-1.9-3.3-3L84.3,1481.8z"/>
	<path d="M3505.3,1522.4c-10.3,1.8-20.6,3.5-30.9,5.2c-0.1-0.1,0.1,0.1,0.1,0.1c0.5-1.1,0.8-3,1.5-3.1c8.3-1.3,16.5-2.4,24.9-3.3
		c1.5-0.2,3.1,0.7,4.7,1.1C3505.5,1522.6,3505.3,1522.4,3505.3,1522.4z"/>
	<path d="M352.5,1522.9c10.4,1.7,20.8,3.4,31.2,5c0,0,0.3-0.2,0.3-0.3c-3.9,0.2-7.8,0.8-11.6,0.5c-5.5-0.5-10.9-1.5-16.3-2.6
		c-1.2-0.3-2.2-1.9-3.3-2.9C352.7,1522.7,352.5,1522.9,352.5,1522.9z"/>
	<path d="M3440.5,1530.2c7.4-1.3,14.8-2.9,22.2-3.7c3.8-0.4,7.8,0.7,11.7,1.2c0.1,0.1-0.1-0.1,0-0.1c-6.2,0.8-12.5,1.6-18.8,2.4
		c-5.1,0.6-10.2,2-15.3,0C3440.2,1530,3440.5,1530.2,3440.5,1530.2z"/>
	<path d="M3393.8,1539c-10.3,1.7-20.7,3.4-31,5.1c-0.1,0,0.2,0.1,0.2,0.1c0.7-0.9,1.2-2.6,2-2.7c7.3-1.3,14.7-2.4,22.1-3.2
		c2.3-0.3,4.6,0.5,7,0.9C3394,1539.1,3393.8,1539,3393.8,1539z"/>
	<path d="M493.2,1546.2c-10.4-1.7-20.8-3.3-31.2-5c0,0-0.3,0.2-0.3,0.3c3.9-0.2,7.8-0.8,11.7-0.5c5.5,0.5,10.9,1.5,16.3,2.6
		c1.2,0.3,2.2,1.9,3.3,2.9C493,1546.4,493.2,1546.2,493.2,1546.2z"/>
	<path d="M3328.9,1546.7c7-1.1,14-2.5,21-3.2c4.2-0.4,8.6,0.4,12.9,0.6c0,0-0.2-0.1-0.1-0.1c-7,1.2-14,2.4-21.1,3.3
		c-4.3,0.6-8.7,1.3-12.9-0.8C3328.7,1546.6,3328.9,1546.7,3328.9,1546.7z"/>
	<path d="M524.2,1551.4c-10.3-1.8-20.6-3.5-30.9-5.2c0,0-0.3,0.2-0.3,0.2c3.9-0.2,7.8-1,11.7-0.6c5.5,0.4,11,1.5,16.4,2.6
		c1.2,0.2,2,2.1,3,3.2L524.2,1551.4z"/>
	<path d="M536.4,2070.1c-10.5,1.6-21.1,3.1-31.6,4.6c0,0,0.2,0.1,0.2,0.1c0.4-0.7,0.7-1.8,1.2-1.9c9.7-1.5,19.1-5.6,29.2-3.2
		c0.4,0.1,0.7,0.3,1.2,0.5C536.6,2070.3,536.4,2070.1,536.4,2070.1z"/>
	<path d="M459.3,2082.4c1-1.1,1.9-2.9,3.1-3.1c8.7-1.4,17.4-2.5,26.1-3.7l-0.2-0.2c-1.5,1-3,2.7-4.7,3c-8.1,1.5-16.3,2.6-24.5,3.9
		C459.1,2082.2,459.3,2082.4,459.3,2082.4z"/>
	<path d="M318.6,1520.2c3.9-0.4,7.8-1.4,11.6-1c7.4,0.8,14.8,2.4,22.2,3.7c0,0,0.3-0.2,0.3-0.3c-4.1,2-8.5,1.2-12.8,0.6
		c-7-0.9-14-2.2-21.1-3.2C318.8,1520.1,318.6,1520.2,318.6,1520.2z"/>
	<path d="M459.1,2082.2c-10.6,1.5-21.2,3-31.8,4.5c0,0,0.2,0.2,0.2,0.2c0.4-0.6,0.8-1.8,1.3-1.9c10.1-1.3,19.9-6.1,30.4-2.7
		C459.3,2082.4,459.1,2082.2,459.1,2082.2z"/>
	<path d="M382,2094.4c0.5-2.2,2-3.2,4.2-3.5c8.3-1.1,16.5-2.4,24.8-3.6c0,0-0.2-0.2-0.2-0.2c-0.8,2-2.4,2.9-4.5,3.2
		c-8.2,1.2-16.4,2.5-24.5,3.8C381.8,2094.3,382,2094.4,382,2094.4z"/>
	<path d="M3476.8,2094c-4.1,2.5-8.5,1.8-12.9,1.2c-7.1-1-14.2-2.3-21.4-3.4c-0.1,0-0.3,0.2-0.3,0.2c4.6-2.1,9.4-1.3,14.1-0.7
		c6.7,0.9,13.4,2,20.2,2.9C3476.7,2094.1,3476.8,2094,3476.8,2094z"/>
	<path d="M381.8,2094.3c-10.6,1.5-21.2,3-31.8,4.5l0.2,0.2c0.4-0.6,0.8-1.8,1.3-1.9c10.1-1.3,19.9-6.1,30.4-2.7
		C382,2094.4,381.8,2094.3,381.8,2094.3z"/>
	<path d="M3519.4,2104.2c4.2-2.1,8.6-1.6,12.9-1c7.1,1,14.2,2.2,21.3,3.3c0.1,0,0.3-0.2,0.3-0.3c-4.5,2.5-9.3,1.4-14.1,0.8
		c-6.7-0.9-13.4-2.1-20.2-3.1C3519.6,2104.1,3519.4,2104.2,3519.4,2104.2z"/>
	<path d="M259,2113.9c-6.8,0.9-13.5,1.9-20.3,2.8c-4.8,0.6-9.6,1.7-14.2-0.8c-0.1,0,0.1,0.1,0.1,0.1c6.5-1,13-2,19.6-2.9
		c5-0.7,10.1-1.6,15,0.9C259.1,2114,259,2113.9,259,2113.9z"/>
	<path d="M3631.4,2118.1c-4.1,2.5-8.5,1.8-12.9,1.2c-7.1-1-14.2-2.3-21.3-3.5c0,0-0.3,0.2-0.3,0.2c4.6-2.1,9.4-1.3,14.1-0.6
		c6.7,0.9,13.4,1.9,20.2,2.9C3631.3,2118.3,3631.4,2118.1,3631.4,2118.1z"/>
	<path d="M147.5,2128.3c7.1-1.1,14.2-2.4,21.4-3.4c4.4-0.6,8.8-1.1,13,1.3c0.1,0-0.1-0.1,0,0c-6.1,0.8-12.3,1.4-18.4,2.2
		c-5.4,0.7-10.8,2.2-16.1-0.2C147.3,2128.1,147.5,2128.3,147.5,2128.3z"/>
	<path d="M3708.8,2130.2c-4.1,2.5-8.5,1.8-12.9,1.2c-7.1-1-14.2-2.3-21.3-3.5c0,0-0.3,0.2-0.3,0.2c4.6-2.1,9.4-1.3,14.1-0.6
		c6.7,0.9,13.4,1.9,20.2,2.9C3708.6,2130.3,3708.8,2130.2,3708.8,2130.2z"/>
	<path d="M524,1551.6c3.9-0.4,7.8-1.4,11.6-1c7.4,0.8,14.8,2.4,22.2,3.6c0,0,0.3-0.2,0.3-0.3c-4.1,2.1-8.5,1.2-12.8,0.7
		c-7-0.9-14-2.2-21.1-3.2C524.2,1551.4,524,1551.6,524,1551.6z"/>
	<path d="M333.5,2099.3c-0.4,0.7-0.8,1.8-1.3,1.9c-9.3,1.7-18.4,5.2-28.2,3.6c-0.8-0.1-1.5-0.6-2.3-1c-0.1,0,0.1,0.1,0.1,0.1
		c10.6-1.5,21.2-3,31.8-4.5C333.7,2099.5,333.5,2099.3,333.5,2099.3z"/>
	<path d="M3364.7,2080.1c4.2-2.2,8.6-1.7,12.9-1.1c7.1,1,14.2,2.2,21.3,3.3c0.1,0,0.3-0.2,0.3-0.3c-4.5,2.5-9.3,1.4-14.1,0.8
		c-6.7-0.9-13.5-2-20.2-3C3364.9,2080,3364.7,2080.1,3364.7,2080.1z"/>
	<path d="M104.3,2138c-7.7,0.9-15.4,1.9-23.1,2.8c7.5-3.8,15.1-5.8,23.2-2.7C104.5,2138.1,104.3,2138,104.3,2138z"/>
	<path d="M3739.6,1484c6.5-0.9,13-1.7,19.4-2.6c-6.2,4.2-12.7,4.8-19.6,2.5C3739.4,1483.8,3739.6,1484,3739.6,1484z"/>
	<path d="M3529,2012.6c5.8-2.7,11.8-1.2,17.9-0.1c-1.5,0.3-3,0.9-4.4,0.9c-4.4-0.2-8.8-0.7-13.3-1
		C3529.2,2012.5,3529,2012.6,3529,2012.6z"/>
	<path d="M488.5,2075.5c5.4-1.8,10.8-2.5,16.4-0.6c0,0-0.2-0.2-0.1-0.1c-5.4,1.3-10.9,2.6-16.5,0.6
		C488.2,2075.3,488.5,2075.5,488.5,2075.5z"/>
	<path d="M350,2098.7c-5.4,1.7-10.8,2.8-16.4,0.6c0,0,0.2,0.2,0.1,0.1c5.4-1.4,10.9-2.4,16.5-0.5
		C350.2,2098.9,350,2098.7,350,2098.7z"/>
	<path d="M427.3,2086.7c-5.4,1.7-10.8,2.7-16.4,0.6c0,0,0.2,0.2,0.1,0.1c5.4-1.4,10.9-2.4,16.5-0.6
		C427.5,2086.9,427.3,2086.7,427.3,2086.7z"/>
	<path d="M3751.5,2140.4c2.6-0.6,5.2-1.1,8.7-1.9c-3,4.4-5.8,1.3-8.4,1.6C3751.7,2140.2,3751.5,2140.4,3751.5,2140.4z"/>
	<path d="M84.5,1481.6c-0.7,0.3-1.4,0.9-2.1,0.9c-0.5,0-1-0.7-1.5-1.1c0.4-0.1,0.7-0.3,1-0.2c0.8,0.2,1.5,0.4,2.4,0.6
		C84.3,1481.8,84.5,1481.6,84.5,1481.6z"/>
</g>
</svg>
