<svg id="svg" version="1.1" xmlns="http://www.w3.org/2000/svg" xmlns:xlink="http://www.w3.org/1999/xlink" width="400" height="225" viewBox="0, 0, 400,225"><g id="svgg"><path id="path0" d="M101.000 110.125 L 101.000 118.000 102.383 118.000 C 103.144 118.000,103.844 117.923,103.939 117.828 C 104.044 117.723,104.916 117.674,106.180 117.703 L 108.250 117.750 108.295 121.542 L 108.340 125.333 112.250 125.333 L 116.160 125.333 116.205 129.042 L 116.250 132.750 120.333 132.833 L 124.417 132.917 124.462 136.539 L 124.506 140.160 128.295 140.205 L 132.083 140.250 132.129 142.693 L 132.175 145.136 133.129 145.193 C 133.654 145.224,141.077 145.223,149.625 145.191 L 165.167 145.132 165.167 142.808 L 165.167 140.483 167.708 140.577 C 169.106 140.629,171.769 140.711,173.625 140.759 L 177.000 140.846 177.000 136.942 L 177.000 133.037 180.458 132.924 C 182.360 132.862,184.013 132.780,184.132 132.742 C 184.298 132.688,184.342 132.006,184.326 129.760 C 184.314 128.158,184.353 126.770,184.412 126.674 C 184.482 126.561,185.891 126.500,188.427 126.500 L 192.333 126.500 192.333 118.333 L 192.333 110.167 200.000 110.167 L 207.667 110.167 207.667 118.333 L 207.667 126.500 211.649 126.500 C 216.367 126.500,215.854 126.082,215.824 129.906 L 215.802 132.750 218.443 132.852 C 219.895 132.909,221.515 132.965,222.042 132.977 L 223.000 133.000 223.000 136.917 L 223.000 140.833 228.792 140.833 L 234.583 140.833 234.583 143.042 L 234.583 145.250 238.125 145.248 C 240.073 145.247,247.552 145.228,254.746 145.206 L 267.824 145.167 267.871 142.708 L 267.917 140.250 271.750 140.167 L 275.583 140.083 275.583 136.500 L 275.583 132.917 279.667 132.833 L 283.750 132.750 283.795 129.042 L 283.840 125.333 287.750 125.333 L 291.660 125.333 291.705 121.542 L 291.750 117.750 295.125 117.705 C 297.339 117.675,298.500 117.718,298.500 117.830 C 298.500 117.923,298.612 118.000,298.750 118.000 C 298.969 118.000,299.000 117.014,299.000 110.125 L 299.000 102.250 200.000 102.250 L 101.000 102.250 101.000 110.125 M123.667 111.750 L 123.667 115.833 126.917 115.833 L 130.167 115.833 130.167 111.750 L 130.167 107.667 135.167 107.667 L 140.167 107.667 140.167 111.750 L 140.167 115.833 144.250 115.833 L 148.333 115.833 148.333 119.997 L 148.333 124.161 152.375 124.205 L 156.417 124.250 156.461 129.042 L 156.505 133.833 151.503 133.833 L 146.500 133.833 146.500 129.750 L 146.500 125.667 143.333 125.667 L 140.167 125.667 140.167 129.750 L 140.167 133.833 135.167 133.833 L 130.167 133.833 130.167 129.753 L 130.167 125.673 126.208 125.628 L 122.250 125.583 122.205 121.375 L 122.161 117.167 117.997 117.167 L 113.833 117.167 113.833 112.417 L 113.833 107.667 118.750 107.667 L 123.667 107.667 123.667 111.750 M227.833 111.750 L 227.833 115.833 231.167 115.833 L 234.500 115.833 234.500 111.750 L 234.500 107.667 239.417 107.667 L 244.333 107.667 244.333 111.750 L 244.333 115.833 248.417 115.833 L 252.500 115.833 252.500 119.997 L 252.500 124.161 256.542 124.205 L 260.583 124.250 260.628 129.042 L 260.672 133.833 255.669 133.833 L 250.667 133.833 250.667 129.750 L 250.667 125.667 247.500 125.667 L 244.333 125.667 244.333 129.750 L 244.333 133.833 239.417 133.833 L 234.500 133.833 234.500 129.753 L 234.500 125.673 230.458 125.628 L 226.417 125.583 226.372 121.375 L 226.328 117.167 222.164 117.167 L 218.000 117.167 218.000 112.417 L 218.000 107.667 222.917 107.667 L 227.833 107.667 227.833 111.750 M132.167 120.663 L 132.167 124.167 135.337 124.167 L 138.507 124.167 138.462 120.708 L 138.417 117.250 135.292 117.205 L 132.167 117.159 132.167 120.663 M236.333 120.663 L 236.333 124.167 239.503 124.167 L 242.673 124.167 242.628 120.708 L 242.583 117.250 239.458 117.205 L 236.333 117.159 236.333 120.663 " stroke="none" fill="#050505" fill-rule="evenodd"></path><path id="path1" d="M103.667 79.417 L 103.667 102.167 133.554 102.167 L 163.442 102.167 164.658 100.500 C 165.870 98.840,166.166 98.570,166.168 99.125 C 166.168 99.285,166.281 99.631,166.418 99.894 C 166.555 100.157,166.667 100.475,166.667 100.602 C 166.667 100.729,166.742 100.833,166.833 100.833 C 166.925 100.833,167.000 100.942,167.000 101.075 C 167.000 101.209,167.087 101.509,167.193 101.742 L 167.387 102.167 183.027 102.167 C 199.057 102.167,199.422 102.153,198.500 101.583 C 198.408 101.527,198.333 101.302,198.333 101.083 C 198.333 100.865,198.258 100.640,198.167 100.583 C 198.075 100.527,198.000 100.351,198.000 100.194 C 198.000 100.036,197.808 99.309,197.574 98.579 C 197.340 97.848,196.750 96.013,196.264 94.500 C 195.778 92.987,195.286 91.412,195.171 91.000 C 195.056 90.587,194.907 90.100,194.839 89.917 C 194.772 89.733,194.344 88.421,193.888 87.000 L 193.059 84.417 166.833 84.417 L 140.606 84.417 138.812 87.083 C 137.825 88.550,136.950 89.828,136.868 89.924 C 136.785 90.020,136.687 90.170,136.650 90.258 C 136.613 90.345,135.908 91.429,135.083 92.667 L 133.583 94.917 133.628 75.792 L 133.672 56.667 118.669 56.667 L 103.667 56.667 103.667 79.417 M258.583 84.512 C 249.913 85.382,240.260 90.635,235.091 97.293 C 234.301 98.312,233.929 98.543,234.291 97.791 C 234.435 97.492,235.944 93.592,236.499 92.083 C 236.567 91.900,236.700 91.563,236.796 91.333 C 237.386 89.916,239.334 84.895,239.334 84.791 C 239.334 84.722,232.419 84.684,223.969 84.707 L 208.604 84.750 208.198 86.083 C 207.975 86.817,207.727 87.547,207.646 87.706 C 207.566 87.865,207.500 88.110,207.500 88.250 C 207.500 88.390,207.432 88.635,207.348 88.794 C 207.265 88.953,206.766 90.433,206.241 92.083 C 205.715 93.733,205.221 95.214,205.143 95.373 C 205.064 95.532,205.000 95.777,205.000 95.917 C 205.000 96.057,204.935 96.301,204.856 96.461 C 204.776 96.620,204.353 97.875,203.915 99.250 C 203.478 100.625,203.085 101.844,203.042 101.958 C 202.980 102.125,212.171 102.167,248.649 102.167 C 274.870 102.167,294.333 102.104,294.333 102.020 C 294.333 100.896,288.238 93.752,285.935 92.176 C 285.741 92.044,285.546 91.894,285.500 91.843 C 284.418 90.635,278.834 87.518,276.083 86.585 C 275.350 86.337,274.600 86.073,274.417 86.000 C 274.105 85.875,272.847 85.516,271.500 85.166 C 268.554 84.401,262.656 84.102,258.583 84.512 M113.872 112.375 L 113.917 117.083 118.125 117.128 L 122.333 117.172 122.333 121.336 L 122.333 125.500 126.333 125.500 L 130.333 125.500 130.333 129.667 L 130.333 133.833 135.167 133.833 L 140.000 133.833 140.000 129.667 L 140.000 125.500 143.333 125.500 L 146.667 125.500 146.667 129.667 L 146.667 133.833 151.500 133.833 L 156.333 133.833 156.333 129.083 L 156.333 124.333 152.250 124.333 L 148.167 124.333 148.167 120.167 L 148.167 116.000 144.083 116.000 L 140.000 116.000 140.000 111.833 L 140.000 107.667 135.167 107.667 L 130.333 107.667 130.333 111.833 L 130.333 116.000 126.917 116.000 L 123.500 116.000 123.500 111.833 L 123.500 107.667 118.664 107.667 L 113.828 107.667 113.872 112.375 M218.039 112.375 L 218.083 117.083 222.292 117.128 L 226.500 117.172 226.500 121.333 L 226.500 125.494 230.542 125.539 L 234.583 125.583 234.628 129.708 L 234.672 133.833 239.420 133.833 L 244.167 133.833 244.167 129.667 L 244.167 125.500 247.500 125.500 L 250.833 125.500 250.833 129.667 L 250.833 133.833 255.667 133.833 L 260.500 133.833 260.500 129.086 L 260.500 124.339 256.458 124.295 L 252.417 124.250 252.372 120.125 L 252.328 116.000 248.247 116.000 L 244.167 116.000 244.167 111.831 L 244.167 107.662 239.408 107.706 L 234.649 107.750 234.616 111.833 L 234.583 115.917 231.125 115.962 L 227.667 116.007 227.667 111.837 L 227.667 107.667 222.831 107.667 L 217.995 107.667 218.039 112.375 M192.500 118.497 L 192.500 126.661 188.485 126.705 L 184.470 126.750 184.492 129.641 C 184.519 133.216,184.665 133.000,182.230 133.000 C 180.176 133.000,180.173 133.002,180.583 133.933 C 180.721 134.245,180.946 134.755,181.083 135.067 C 181.221 135.379,181.333 135.676,181.333 135.729 C 181.333 135.781,181.509 136.219,181.725 136.703 C 182.088 137.520,183.674 141.272,184.016 142.125 C 184.099 142.331,184.238 142.669,184.324 142.875 C 185.256 145.089,185.219 144.894,185.122 147.132 C 185.033 149.180,184.579 151.858,184.302 151.972 C 184.227 152.003,184.167 152.123,184.167 152.239 C 184.167 152.579,183.244 153.756,182.640 154.186 L 182.083 154.583 174.250 154.667 L 166.417 154.750 166.374 166.357 C 166.338 176.132,166.368 177.977,166.562 178.052 C 168.704 178.874,182.441 179.085,186.333 178.357 C 187.479 178.142,188.774 177.927,189.212 177.878 C 189.649 177.830,190.047 177.725,190.097 177.645 C 190.146 177.565,190.444 177.500,190.760 177.500 C 191.075 177.500,191.333 177.425,191.333 177.333 C 191.333 177.242,191.552 177.167,191.819 177.167 C 192.738 177.167,198.266 174.992,199.526 174.134 C 199.769 173.969,200.023 173.833,200.090 173.833 C 200.257 173.833,202.907 172.076,203.833 171.351 C 205.804 169.808,209.667 165.512,209.667 164.862 C 209.667 164.755,209.729 164.667,209.805 164.667 C 209.881 164.667,210.050 164.461,210.180 164.209 C 210.310 163.958,210.723 163.189,211.097 162.501 C 211.471 161.813,212.061 160.500,212.409 159.583 C 212.757 158.667,213.099 157.767,213.168 157.583 C 213.682 156.233,214.442 152.488,214.672 150.167 C 214.837 148.510,215.139 147.221,215.668 145.917 C 215.742 145.733,215.859 145.433,215.927 145.250 C 216.351 144.109,216.823 142.890,218.571 138.417 C 219.646 135.667,220.538 133.342,220.554 133.250 C 220.572 133.148,219.641 133.051,218.167 133.000 L 215.750 132.917 215.667 129.833 L 215.583 126.750 211.542 126.705 L 207.500 126.661 207.500 118.497 L 207.500 110.333 200.000 110.333 L 192.500 110.333 192.500 118.497 M138.628 120.708 L 138.583 124.250 135.292 124.295 L 132.000 124.340 132.000 120.754 L 132.000 117.167 135.337 117.167 L 138.673 117.167 138.628 120.708 M242.833 120.750 L 242.833 124.333 239.500 124.333 L 236.167 124.333 236.167 120.750 L 236.167 117.167 239.500 117.167 L 242.833 117.167 242.833 120.750 M103.867 118.033 C 103.714 118.186,103.667 122.189,103.667 135.033 L 103.667 151.833 118.837 151.833 L 134.007 151.833 133.962 148.625 L 133.917 145.417 132.958 145.367 L 132.000 145.317 132.000 142.825 L 132.000 140.333 128.170 140.333 L 124.340 140.333 124.295 136.655 L 124.250 132.976 120.403 132.993 C 115.432 133.016,116.000 133.511,116.000 129.152 L 116.000 125.506 112.125 125.461 L 108.250 125.417 108.205 121.625 L 108.160 117.833 106.114 117.833 C 104.744 117.833,104.001 117.899,103.867 118.033 M291.795 121.625 L 291.750 125.417 287.875 125.461 L 284.000 125.506 284.000 129.152 C 284.000 133.511,284.568 133.016,279.597 132.994 L 275.750 132.976 275.718 136.613 L 275.686 140.250 271.843 140.295 L 268.000 140.339 268.000 142.836 L 268.000 145.333 254.821 145.333 L 241.641 145.333 242.112 145.718 C 244.536 147.698,250.512 150.407,254.333 151.259 C 258.107 152.099,257.889 152.079,263.083 152.081 C 268.284 152.083,267.989 152.111,271.833 151.268 C 273.031 151.006,275.919 150.092,276.373 149.832 C 276.532 149.741,276.733 149.667,276.820 149.667 C 277.150 149.667,280.526 147.958,282.190 146.949 C 290.597 141.851,296.485 133.413,298.180 124.035 C 298.543 122.025,298.771 118.937,298.604 118.273 L 298.494 117.833 295.167 117.833 L 291.840 117.833 291.795 121.625 M165.296 142.958 L 165.250 145.250 151.625 145.293 C 144.131 145.316,138.000 145.369,138.000 145.411 C 138.000 145.452,138.514 146.300,139.142 147.295 C 139.770 148.289,140.314 149.176,140.351 149.265 C 140.387 149.353,140.754 149.967,141.167 150.628 L 141.917 151.830 160.042 151.832 C 179.367 151.833,178.605 151.866,177.853 151.060 C 177.681 150.875,177.332 150.392,177.079 149.987 C 176.825 149.582,176.566 149.212,176.505 149.167 C 176.443 149.121,175.130 147.326,173.586 145.178 C 172.042 143.031,170.662 141.137,170.519 140.970 C 170.290 140.702,169.972 140.667,167.801 140.667 L 165.343 140.667 165.296 142.958 " stroke="none" fill="#fbfbfb" fill-rule="evenodd"></path><path id="path2" d="M236.237 120.750 C 236.237 122.583,236.261 123.356,236.291 122.467 C 236.321 121.578,236.321 120.078,236.291 119.134 C 236.261 118.189,236.237 118.917,236.237 120.750 M260.574 129.083 C 260.574 131.742,260.597 132.806,260.625 131.448 C 260.653 130.090,260.653 127.915,260.625 126.615 C 260.596 125.314,260.573 126.425,260.574 129.083 M156.407 129.167 C 156.407 131.779,156.430 132.848,156.458 131.542 C 156.486 130.235,156.486 128.098,156.458 126.792 C 156.430 125.485,156.407 126.554,156.407 129.167 M166.368 140.623 C 166.982 140.655,168.032 140.656,168.701 140.624 C 169.370 140.592,168.867 140.566,167.583 140.566 C 166.300 140.565,165.753 140.591,166.368 140.623 " stroke="none" fill="#848484" fill-rule="evenodd"></path><path id="path3" d="M123.579 111.792 L 123.583 115.917 126.917 115.917 L 130.250 115.917 130.254 111.792 L 130.259 107.667 130.210 111.750 L 130.161 115.833 126.917 115.833 L 123.672 115.833 123.623 111.750 L 123.574 107.667 123.579 111.792 M227.746 111.792 L 227.750 115.917 231.000 115.922 L 234.250 115.927 231.045 115.877 L 227.839 115.826 227.790 111.746 L 227.741 107.667 227.746 111.792 M142.218 115.958 C 143.392 115.987,145.267 115.987,146.385 115.958 C 147.502 115.929,146.542 115.905,144.250 115.906 C 141.958 115.906,141.044 115.929,142.218 115.958 M246.385 115.958 C 247.559 115.987,249.434 115.987,250.551 115.958 C 251.669 115.929,250.708 115.905,248.417 115.906 C 246.125 115.906,245.211 115.929,246.385 115.958 M122.246 121.458 L 122.250 125.583 126.205 125.628 L 130.161 125.673 130.210 129.753 L 130.259 133.833 130.254 129.708 L 130.250 125.583 126.295 125.539 L 122.339 125.494 122.290 121.414 L 122.241 117.333 122.246 121.458 M132.078 120.750 L 132.083 124.250 135.292 124.256 L 138.500 124.261 135.337 124.210 L 132.173 124.159 132.123 120.705 L 132.073 117.250 132.078 120.750 M226.412 121.458 L 226.417 125.583 230.417 125.588 L 234.417 125.592 230.461 125.543 L 226.506 125.494 226.457 121.414 L 226.408 117.333 226.412 121.458 M105.049 117.790 C 105.671 117.823,106.646 117.822,107.215 117.790 C 107.784 117.757,107.275 117.731,106.083 117.731 C 104.892 117.732,104.426 117.758,105.049 117.790 M293.458 117.791 C 294.398 117.821,295.935 117.821,296.875 117.791 C 297.815 117.761,297.046 117.737,295.167 117.737 C 293.287 117.737,292.519 117.761,293.458 117.791 M236.312 124.212 C 236.383 124.283,237.860 124.320,239.595 124.295 L 242.750 124.249 239.466 124.166 C 237.660 124.121,236.241 124.141,236.312 124.212 M149.667 124.283 C 153.181 124.402,156.462 124.406,156.391 124.292 C 156.349 124.223,154.499 124.182,152.282 124.201 C 150.064 124.220,148.887 124.257,149.667 124.283 M254.458 124.291 C 255.581 124.320,257.419 124.320,258.542 124.291 C 259.665 124.262,258.746 124.239,256.500 124.239 C 254.254 124.239,253.335 124.262,254.458 124.291 M141.708 125.624 C 142.602 125.654,144.065 125.654,144.958 125.624 C 145.852 125.594,145.121 125.570,143.333 125.570 C 141.546 125.570,140.815 125.594,141.708 125.624 M245.875 125.624 C 246.769 125.654,248.231 125.654,249.125 125.624 C 250.019 125.594,249.287 125.570,247.500 125.570 C 245.713 125.570,244.981 125.594,245.875 125.624 M186.468 126.625 C 187.596 126.653,189.396 126.653,190.468 126.624 C 191.540 126.595,190.617 126.572,188.417 126.572 C 186.217 126.572,185.340 126.596,186.468 126.625 M209.625 126.625 C 210.748 126.653,212.585 126.653,213.708 126.625 C 214.831 126.596,213.912 126.572,211.667 126.572 C 209.421 126.572,208.502 126.596,209.625 126.625 M215.735 129.667 C 215.735 131.271,215.760 131.927,215.791 131.125 C 215.821 130.323,215.821 129.010,215.791 128.208 C 215.760 127.406,215.735 128.063,215.735 129.667 M124.412 136.583 L 124.417 140.250 128.204 140.295 L 131.991 140.340 132.044 142.711 L 132.097 145.083 132.090 142.667 L 132.083 140.250 128.295 140.205 L 124.506 140.160 124.456 136.539 L 124.406 132.917 124.412 136.583 M275.571 136.500 C 275.571 138.471,275.595 139.277,275.624 138.292 C 275.654 137.306,275.654 135.694,275.624 134.708 C 275.595 133.723,275.571 134.529,275.571 136.500 M267.907 140.383 C 267.861 140.502,267.847 141.646,267.875 142.925 L 267.927 145.250 267.963 142.795 L 268.000 140.340 271.792 140.292 L 275.583 140.243 271.786 140.205 C 268.800 140.175,267.972 140.213,267.907 140.383 " stroke="none" fill="#7c7c7c" fill-rule="evenodd"></path><path id="path4" d="M118.805 102.292 C 126.993 102.316,140.343 102.316,148.472 102.292 C 156.600 102.268,149.900 102.248,133.583 102.248 C 117.267 102.248,110.616 102.268,118.805 102.292 M175.208 102.292 C 179.494 102.316,186.506 102.316,190.792 102.292 C 195.077 102.267,191.571 102.247,183.000 102.247 C 174.429 102.247,170.923 102.267,175.208 102.292 M225.792 102.292 C 238.373 102.315,258.960 102.315,271.542 102.292 C 284.123 102.268,273.829 102.249,248.667 102.249 C 223.504 102.249,213.210 102.268,225.792 102.292 M140.072 111.833 C 140.072 114.171,140.096 115.127,140.125 113.958 C 140.153 112.790,140.153 110.877,140.125 109.708 C 140.096 108.540,140.072 109.496,140.072 111.833 M244.239 111.833 C 244.239 114.171,244.263 115.127,244.291 113.958 C 244.320 112.790,244.320 110.877,244.291 109.708 C 244.263 108.540,244.239 109.496,244.239 111.833 M234.572 111.917 C 234.572 114.117,234.596 114.994,234.625 113.865 C 234.653 112.737,234.653 110.937,234.624 109.865 C 234.595 108.794,234.572 109.717,234.572 111.917 M192.410 110.373 C 192.366 110.489,192.350 114.221,192.375 118.667 L 192.420 126.750 192.460 118.542 L 192.500 110.333 199.998 110.333 L 207.497 110.333 207.542 118.458 L 207.588 126.583 207.586 118.417 L 207.583 110.250 200.037 110.207 C 194.089 110.172,192.474 110.208,192.410 110.373 M148.239 120.167 C 148.239 122.504,148.263 123.460,148.291 122.292 C 148.320 121.123,148.320 119.210,148.291 118.042 C 148.263 116.873,148.239 117.829,148.239 120.167 M252.406 120.083 C 252.405 122.375,252.429 123.336,252.458 122.218 C 252.487 121.100,252.487 119.225,252.458 118.051 C 252.429 116.877,252.406 117.792,252.406 120.083 M138.571 120.667 C 138.571 122.638,138.595 123.444,138.624 122.458 C 138.654 121.473,138.654 119.860,138.624 118.875 C 138.595 117.890,138.571 118.696,138.571 120.667 M242.738 120.750 C 242.738 122.767,242.762 123.569,242.791 122.532 C 242.820 121.496,242.820 119.846,242.791 118.866 C 242.762 117.885,242.738 118.733,242.738 120.750 M108.245 121.750 L 108.250 125.417 112.122 125.461 L 115.994 125.506 116.043 129.211 L 116.093 132.917 116.088 129.167 L 116.083 125.417 112.212 125.372 L 108.340 125.327 108.290 121.705 L 108.240 118.083 108.245 121.750 M291.705 121.622 L 291.667 125.327 287.792 125.372 L 283.917 125.417 283.912 129.167 L 283.907 132.917 283.957 129.208 L 284.006 125.500 287.842 125.500 C 290.796 125.500,291.696 125.451,291.759 125.288 C 291.803 125.171,291.818 123.464,291.792 121.496 L 291.743 117.917 291.705 121.622 M140.072 129.667 C 140.072 132.004,140.096 132.960,140.125 131.792 C 140.153 130.623,140.153 128.710,140.125 127.542 C 140.096 126.373,140.072 127.329,140.072 129.667 M146.572 129.667 C 146.572 132.004,146.596 132.960,146.625 131.792 C 146.653 130.623,146.653 128.710,146.625 127.542 C 146.596 126.373,146.572 127.329,146.572 129.667 M244.239 129.667 C 244.239 132.004,244.263 132.960,244.291 131.792 C 244.320 130.623,244.320 128.710,244.291 127.542 C 244.263 126.373,244.239 127.329,244.239 129.667 M234.572 129.750 C 234.572 132.042,234.596 133.002,234.624 131.885 C 234.653 130.767,234.653 128.892,234.625 127.718 C 234.596 126.544,234.572 127.458,234.572 129.750 M250.739 129.833 C 250.739 132.079,250.762 132.998,250.791 131.875 C 250.820 130.752,250.820 128.915,250.791 127.792 C 250.762 126.669,250.739 127.587,250.739 129.833 M184.402 129.833 C 184.402 131.438,184.427 132.094,184.457 131.292 C 184.488 130.490,184.488 129.177,184.457 128.375 C 184.427 127.573,184.402 128.229,184.402 129.833 M118.208 132.958 C 119.285 132.987,121.048 132.987,122.125 132.958 C 123.202 132.929,122.321 132.905,120.167 132.905 C 118.013 132.905,117.131 132.929,118.208 132.958 M181.298 132.957 C 181.875 132.990,182.775 132.989,183.298 132.956 C 183.822 132.923,183.350 132.897,182.250 132.897 C 181.150 132.897,180.722 132.924,181.298 132.957 M216.958 132.957 C 217.623 132.989,218.710 132.989,219.375 132.957 C 220.040 132.925,219.496 132.900,218.167 132.900 C 216.838 132.900,216.294 132.925,216.958 132.957 M277.875 132.958 C 278.952 132.987,280.715 132.987,281.792 132.958 C 282.869 132.929,281.987 132.905,279.833 132.905 C 277.679 132.905,276.798 132.929,277.875 132.958 M165.203 142.874 L 165.167 145.165 151.542 145.208 L 137.917 145.252 151.547 145.293 C 162.621 145.326,165.193 145.293,165.260 145.116 C 165.306 144.997,165.320 143.928,165.291 142.741 L 165.239 140.583 165.203 142.874 M132.167 145.261 C 132.727 145.386,133.963 145.408,133.891 145.292 C 133.848 145.223,133.387 145.175,132.865 145.186 C 132.343 145.197,132.029 145.230,132.167 145.261 M248.279 145.292 C 251.870 145.317,257.795 145.317,261.446 145.292 C 265.097 145.267,262.158 145.246,254.917 145.246 C 247.675 145.246,244.688 145.267,248.279 145.292 " stroke="none" fill="#a5a5a5" fill-rule="evenodd"></path></g></svg>